<?xml version="1.0" standalone="no"?>
<!DOCTYPE svg PUBLIC "-//W3C//DTD SVG 20010904//EN"
 "http://www.w3.org/TR/2001/REC-SVG-20010904/DTD/svg10.dtd">
<svg version="1.0" xmlns="http://www.w3.org/2000/svg"
 width="3024.000000pt" height="4032.000000pt" viewBox="0 0 3024.000000 4032.000000"
 preserveAspectRatio="xMidYMid meet">

<g transform="translate(0.000000,4032.000000) scale(0.100000,-0.100000)"
fill="#000000" stroke="none">
<path d="M0 32632 l0 -7689 123 -6 c114 -6 185 -20 197 -38 3 -4 21 -11 39
-14 18 -3 47 -13 63 -21 16 -9 32 -13 36 -10 3 3 11 1 17 -4 33 -28 314 -28
323 0 2 5 24 10 48 10 25 0 54 5 64 10 22 12 1010 17 1095 6 28 -4 73 -13 100
-21 28 -7 70 -19 95 -26 90 -24 96 -28 92 -69 -3 -29 -9 -40 -25 -45 -36 -11
-347 -18 -347 -8 0 7 -85 11 -365 17 -32 1 -56 7 -65 17 -13 14 -34 15 -155 9
l-140 -7 124 -1 c68 -1 122 -4 120 -6 -2 -2 -93 -6 -201 -10 -176 -6 -198 -5
-198 8 0 12 -10 16 -40 16 -33 0 -40 -3 -40 -20 0 -19 -7 -20 -120 -20 -100 0
-120 -2 -120 -15 0 -18 -76 -22 -82 -4 -3 8 -15 6 -38 -6 -23 -12 -35 -14 -38
-6 -2 6 -21 11 -43 11 -27 0 -42 5 -46 15 -5 14 -7 14 -24 -1 -10 -9 -45 -19
-77 -23 -33 -4 -71 -15 -85 -24 -33 -21 -61 -22 -93 0 -20 13 -27 14 -34 4 -5
-10 -27 -11 -84 -6 l-76 7 0 -9851 0 -9851 40 0 40 0 0 40 c0 36 3 40 25 40
23 0 25 -4 25 -40 0 -22 -4 -40 -10 -40 -5 0 -10 -18 -10 -40 l0 -40 -55 0
-55 0 0 -40 0 -40 80 0 80 0 0 40 0 40 40 0 40 0 0 -40 c0 -29 4 -40 15 -40
11 0 15 11 15 40 l0 40 65 0 65 0 0 40 0 40 120 0 120 0 0 25 c0 23 4 25 40
25 29 0 40 4 40 15 0 12 13 15 55 15 l55 0 0 40 c0 36 3 40 25 40 16 0 25 6
25 15 0 12 16 15 80 15 64 0 80 -3 80 -15 0 -8 7 -15 15 -15 13 0 15 -24 15
-160 0 -136 -2 -160 -15 -160 -11 0 -15 -11 -15 -40 l0 -40 -40 0 -40 0 0 -40
c0 -37 7 -45 33 -41 12 2 8 -16 -7 -28 -11 -10 -15 -8 -19 6 -3 12 -5 9 -6 -9
0 -15 -9 -33 -19 -40 -10 -7 -27 -29 -39 -48 -12 -19 -26 -34 -30 -34 -4 1 -7
-1 -6 -6 1 -4 -12 -15 -30 -25 -18 -9 -47 -37 -65 -61 l-33 -44 -88 0 c-56 0
-91 4 -93 11 -4 12 -78 -19 -78 -33 0 -4 -7 -8 -15 -8 -18 0 -65 -47 -65 -65
0 -8 -7 -15 -15 -15 -8 0 -25 -11 -39 -25 -19 -18 -36 -25 -66 -25 -29 0 -40
-4 -40 -15 0 -12 -20 -15 -120 -15 l-120 0 0 -120 0 -120 40 0 40 0 0 41 0 41
44 -3 c38 -3 48 1 73 27 l28 30 85 -9 c47 -6 91 -16 98 -24 22 -21 72 -45 72
-33 0 6 44 10 119 10 86 0 121 3 124 13 4 9 7 9 18 0 7 -7 23 -13 36 -13 14 0
23 -6 23 -16 0 -9 8 -23 19 -32 14 -13 17 -27 14 -64 -4 -32 -10 -48 -19 -48
-8 0 -14 -7 -14 -15 0 -11 -11 -15 -40 -15 -29 0 -40 4 -40 15 0 19 -76 21
-83 3 -4 -10 -7 -10 -18 -1 -7 8 -39 13 -74 13 -50 0 -73 -6 -121 -32 -32 -17
-60 -35 -62 -40 -6 -15 -44 -8 -79 13 -28 18 -37 19 -43 9 -7 -11 -16 -6 -38
18 -17 18 -35 32 -42 32 -6 0 -29 -18 -50 -40 -24 -25 -48 -40 -62 -40 -42 0
-48 -17 -48 -132 0 -96 2 -108 18 -108 9 0 22 8 29 19 10 15 20 18 56 14 44
-5 50 -3 92 34 7 7 28 13 45 13 20 0 38 8 49 21 l17 22 27 -27 c26 -26 26 -27
20 -141 l-6 -115 66 0 c65 0 67 -1 67 -25 0 -22 4 -25 40 -25 29 0 40 -4 40
-15 0 -10 10 -15 34 -15 18 0 47 -7 62 -15 16 -8 37 -15 47 -15 9 0 17 -4 17
-10 0 -5 18 -10 40 -10 36 0 40 3 40 25 0 23 4 25 40 25 l40 0 0 40 0 40 40 0
40 0 0 40 0 40 40 0 40 0 0 65 0 65 40 0 c29 0 40 4 40 15 0 14 40 21 93 15
16 -1 18 5 16 44 -3 38 1 50 24 74 15 15 27 38 27 50 0 19 5 22 40 22 29 0 40
-4 40 -15 0 -11 11 -15 40 -15 29 0 40 -4 40 -15 0 -11 11 -15 40 -15 29 0 40
4 40 15 0 11 11 15 40 15 22 0 40 -4 40 -10 0 -5 18 -10 40 -10 36 0 40 3 40
25 0 23 4 25 40 25 34 0 40 3 40 21 0 11 18 38 40 59 22 21 40 45 40 52 0 21
65 48 115 48 33 0 45 4 45 15 0 11 11 15 40 15 29 0 40 -4 40 -15 0 -11 11
-15 40 -15 36 0 40 -2 40 -25 0 -16 6 -25 15 -25 11 0 15 -11 15 -40 0 -29 -4
-40 -15 -40 -8 0 -15 7 -15 15 0 11 -11 15 -40 15 -29 0 -40 -4 -40 -15 0 -12
-13 -15 -55 -15 l-55 0 0 -40 0 -40 -50 0 -50 0 0 -80 c0 -79 0 -80 25 -80 20
0 25 -5 25 -25 0 -22 4 -25 39 -25 21 0 44 -6 50 -14 11 -12 6 -15 -29 -18
l-42 -3 19 -24 c17 -21 28 -24 72 -22 40 2 51 -1 51 -14 0 -11 11 -15 40 -15
36 0 40 3 40 24 0 21 5 24 48 28 51 5 112 -16 112 -39 0 -9 16 -13 55 -13 l55
0 0 48 c0 26 4 52 10 58 14 14 -10 214 -27 214 -7 0 -13 7 -13 15 0 8 -11 25
-25 39 -18 19 -25 36 -25 66 0 29 -4 40 -15 40 -22 0 -18 18 5 25 26 8 26 22
0 30 -17 5 -20 15 -20 60 0 45 -3 55 -21 60 -37 12 -13 30 44 33 42 2 57 7 57
17 0 9 10 15 25 15 23 0 25 -4 25 -40 0 -29 4 -40 15 -40 11 0 15 -11 15 -40
0 -34 3 -40 21 -40 19 0 20 -5 18 -85 -1 -57 2 -90 11 -100 11 -13 10 -19 -5
-35 -18 -19 -17 -20 8 -20 22 0 27 -5 27 -24 0 -16 7 -27 20 -31 11 -3 20 -10
20 -14 0 -5 27 -8 60 -7 33 2 60 -1 60 -6 0 -4 36 -8 79 -8 51 0 81 -4 83 -11
3 -9 10 -9 27 1 18 9 21 14 10 20 -9 6 -5 12 17 20 16 7 43 18 59 24 23 9 53
10 124 2 90 -9 94 -9 111 12 16 20 27 22 114 22 79 0 96 -3 96 -15 0 -11 11
-15 40 -15 29 0 40 4 40 15 0 12 17 15 91 15 80 0 90 -2 79 -15 -7 -9 -29 -15
-52 -15 -37 0 -39 -2 -36 -28 2 -18 8 -26 18 -24 13 3 13 1 1 -10 -11 -10 -14
-10 -18 0 -6 16 -33 15 -33 -2 0 -25 -30 -40 -81 -37 -39 2 -49 -1 -49 -14 0
-8 -9 -15 -20 -15 -11 0 -20 -4 -20 -8 0 -5 -16 -16 -35 -25 -20 -9 -38 -24
-41 -32 -4 -9 -19 -15 -39 -15 -28 0 -34 -5 -50 -40 -17 -38 -35 -53 -35 -28
0 6 -19 -10 -43 -35 -36 -40 -49 -47 -80 -47 -30 0 -37 -4 -37 -20 0 -18 -7
-20 -80 -20 -73 0 -83 -2 -106 -25 -14 -14 -30 -25 -35 -25 -6 0 -28 -18 -49
-40 -29 -30 -46 -40 -69 -40 -29 0 -31 -2 -31 -37 0 -32 -6 -42 -36 -62 -19
-13 -39 -33 -45 -43 -13 -23 -97 -26 -105 -3 -4 10 -20 15 -45 15 -28 0 -39
-4 -39 -15 0 -11 -12 -15 -48 -15 -47 0 -50 -1 -67 -40 -10 -22 -22 -40 -27
-40 -12 0 -148 -138 -148 -151 0 -5 -7 -9 -15 -9 -11 0 -15 -11 -15 -40 l0
-40 -40 0 c-29 0 -40 4 -40 15 0 11 -11 15 -40 15 -29 0 -40 -4 -40 -15 0 -11
-11 -15 -40 -15 -22 0 -40 -4 -40 -10 0 -5 -18 -10 -40 -10 -22 0 -40 4 -40 9
0 4 -90 8 -200 7 l-200 -1 0 -37 0 -38 -88 0 c-85 0 -89 -1 -117 -30 -20 -21
-31 -26 -36 -18 -6 9 -11 9 -23 -1 -22 -18 -20 -31 4 -31 25 0 27 -30 2 -51
-22 -19 -19 -109 4 -109 11 0 14 -18 14 -80 l0 -80 40 0 40 0 0 -40 0 -40 40
0 40 0 0 -40 0 -40 -40 0 -40 0 0 -40 0 -40 40 0 40 0 0 -40 c0 -37 2 -40 28
-40 26 -1 26 -1 8 -15 -25 -19 -36 -19 -36 0 0 12 -16 15 -80 15 l-80 0 0 -40
c0 -33 3 -40 20 -40 11 0 20 -4 20 -9 0 -19 -45 -41 -82 -41 -34 0 -38 3 -38
25 0 23 -4 25 -40 25 -36 0 -40 3 -40 25 0 23 -4 25 -40 25 -36 0 -40 -2 -40
-25 0 -20 -5 -25 -24 -25 -21 0 -24 -5 -28 -47 -3 -27 -1 -59 4 -72 8 -23 9
-23 28 -6 19 18 20 17 20 -8 0 -17 -5 -27 -15 -27 -19 0 -19 -14 0 -34 8 -8
15 -28 15 -45 0 -29 2 -31 40 -31 38 0 40 2 40 30 0 28 2 30 40 30 22 0 40 5
40 10 0 6 18 10 40 10 29 0 47 -7 64 -23 33 -33 91 -47 198 -47 89 0 98 2 139
30 29 19 63 31 99 36 30 3 63 14 73 22 14 13 20 13 26 4 14 -23 33 13 29 55
-2 30 -9 41 -30 51 -15 7 -36 24 -46 37 -11 14 -26 25 -34 25 -8 0 -23 18 -33
40 -10 22 -24 40 -32 40 -9 0 -13 13 -13 40 0 29 4 40 15 40 11 0 15 11 15 40
0 28 -4 40 -14 40 -10 0 -16 13 -18 38 -3 35 -5 37 -40 40 -37 3 -38 4 -38 43
0 39 0 39 -40 39 -29 0 -40 4 -40 15 0 11 11 15 40 15 22 0 40 5 40 10 0 6 17
10 38 10 30 0 39 -5 49 -25 6 -14 7 -25 2 -25 -5 0 -9 -9 -9 -20 0 -26 15 -26
33 0 11 16 32 23 83 29 38 5 93 16 122 24 30 9 60 13 68 10 9 -3 14 2 14 16 0
11 11 27 24 36 28 19 125 45 142 38 6 -2 19 3 28 12 9 9 33 18 54 19 20 2 46
6 57 10 11 4 33 13 49 19 17 6 67 10 113 8 70 -2 89 1 119 18 19 12 49 21 65
21 17 0 39 5 50 10 13 7 19 7 19 0 0 -5 -8 -10 -17 -10 -14 0 -15 -2 -4 -12
10 -11 14 -10 22 5 17 30 81 55 164 62 70 7 129 24 145 44 14 17 86 41 125 41
25 0 45 4 45 10 0 6 43 7 122 3 91 -5 119 -3 114 5 -14 23 4 12 41 -26 31 -30
38 -34 41 -19 3 13 13 17 43 17 32 0 39 -3 39 -20 0 -17 7 -20 40 -20 22 0 40
4 40 9 0 5 16 12 36 16 41 7 70 32 103 88 19 31 20 37 7 37 -12 0 -16 10 -16
40 0 36 -2 40 -25 40 -20 0 -25 5 -25 25 0 23 -4 25 -40 25 -29 0 -40 4 -40
15 0 11 -11 15 -40 15 l-40 0 0 40 0 40 80 0 c60 0 80 3 80 13 0 8 18 22 40
32 22 10 40 22 40 27 0 4 10 8 23 8 12 0 32 7 45 15 14 10 39 15 68 14 41 -3
50 1 71 27 18 22 25 26 32 15 6 -9 11 -10 15 -2 4 6 2 11 -3 11 -6 0 -11 18
-11 40 0 29 4 40 15 40 11 0 15 11 15 39 0 24 8 48 20 62 10 13 19 20 20 15 0
-5 11 3 25 18 13 14 29 26 35 26 6 0 9 4 6 8 -3 5 4 16 15 25 14 13 38 17 94
17 79 0 76 2 79 -52 1 -9 14 -30 30 -47 l30 -31 208 0 208 0 0 -40 0 -40 40 0
40 0 0 -40 0 -40 40 0 c29 0 40 -4 40 -15 0 -12 16 -15 80 -15 79 0 80 0 80
-25 0 -22 4 -25 40 -25 29 0 40 4 40 15 0 11 11 15 40 15 36 0 40 3 40 25 0
23 4 25 40 25 l40 0 0 40 0 40 -40 0 -40 0 0 40 0 40 40 0 40 0 0 40 0 40 200
0 200 0 0 -40 0 -40 40 0 c36 0 40 3 40 25 0 23 4 25 40 25 36 0 40 -2 40 -25
0 -16 6 -25 15 -25 11 0 15 11 15 40 0 29 -4 40 -15 40 -11 0 -15 11 -15 40 0
32 4 40 18 40 9 0 23 9 30 20 16 26 32 26 32 0 0 -28 11 -25 50 15 27 28 32
38 21 44 -9 6 -10 11 -2 15 6 4 11 2 11 -3 0 -7 30 -11 80 -11 64 0 80 3 80
15 0 19 11 19 36 0 10 -8 31 -15 47 -15 25 0 27 -3 27 -39 0 -22 4 -41 9 -43
6 -1 11 -25 12 -52 3 -42 -1 -52 -23 -70 -21 -17 -25 -27 -21 -53 6 -38 -5
-92 -15 -76 -4 7 -23 -4 -51 -28 -24 -21 -38 -39 -32 -39 6 0 11 -17 11 -40 0
-39 1 -40 34 -40 34 0 35 1 39 43 2 23 4 -6 5 -65 l2 -108 -40 0 -40 0 0 -55
c0 -42 -3 -55 -15 -55 -11 0 -15 -11 -15 -40 0 -29 4 -40 15 -40 11 0 15 -11
15 -40 l0 -40 40 0 c29 0 40 4 40 15 0 11 11 15 40 15 29 0 40 -4 40 -15 0 -9
9 -15 25 -15 22 0 25 -4 25 -39 0 -30 -4 -40 -17 -43 -15 -3 -12 -10 17 -38
65 -64 85 -70 224 -70 119 0 126 -1 126 -20 0 -11 6 -20 13 -20 8 0 7 -3 -3
-10 -17 -10 -15 -12 26 -33 29 -15 36 -15 78 -1 25 9 48 20 52 25 3 5 14 9 25
9 10 0 19 4 19 8 0 5 11 22 25 38 27 32 30 40 15 49 -5 3 -10 17 -10 31 0 16
-8 27 -23 33 -13 5 -29 16 -36 25 -12 14 -11 19 3 35 12 13 14 20 5 23 -8 3
-7 12 4 35 9 17 13 34 9 38 -4 4 12 5 36 2 23 -2 45 -1 47 3 6 10 32 7 42 -5
4 -4 3 -5 -3 -2 -6 3 22 -28 62 -70 l72 -76 65 -1 c78 -2 117 -29 117 -83 0
-18 3 -33 8 -33 15 0 36 19 38 36 2 9 9 21 16 25 11 7 10 9 -1 9 -8 0 -3 8 12
20 14 11 37 20 52 20 18 0 29 6 32 20 9 33 66 27 103 -11 16 -18 30 -36 30
-42 0 -19 122 -127 144 -127 29 0 46 -18 46 -47 0 -13 5 -29 10 -36 21 -25 60
-88 51 -83 -18 12 -21 -13 -3 -26 10 -7 21 -21 25 -30 6 -16 21 -18 122 -18
l115 0 -1 -65 c-1 -38 4 -71 11 -80 9 -10 9 -15 1 -15 -6 0 -11 -17 -11 -40
l0 -40 40 0 c29 0 40 4 40 15 0 11 11 15 38 15 21 0 56 11 81 25 57 33 148 35
174 5 19 -22 25 -24 46 -11 10 7 14 25 12 60 -2 49 -1 51 24 51 24 0 25 3 25
53 1 30 7 60 15 71 19 25 19 36 0 36 -22 0 -18 13 14 44 26 25 38 29 99 31 54
1 74 -2 84 -14 10 -12 27 -15 61 -13 43 4 47 6 48 31 0 24 1 25 12 7 32 -52
76 -86 112 -86 34 0 35 1 35 40 0 29 4 40 15 40 11 0 15 12 15 45 0 61 26 113
56 113 13 -1 33 10 44 23 18 23 19 23 20 4 1 -15 3 -16 7 -5 4 8 14 21 25 28
10 7 18 19 18 27 0 7 7 21 16 30 13 13 19 14 25 4 5 -9 16 -4 37 19 25 27 37
32 76 32 l46 0 0 40 c0 29 4 40 15 40 11 0 15 -11 15 -40 l0 -39 132 -3 132
-3 10 -35 10 -35 4 38 c3 36 4 37 43 37 28 0 39 -4 39 -15 0 -11 11 -15 40
-15 29 0 40 4 40 15 0 11 -11 15 -40 15 -40 0 -40 0 -40 39 0 22 5 42 12 44
10 4 10 6 1 6 -17 1 -17 58 0 64 7 3 5 6 -6 6 -10 1 -33 17 -53 36 l-35 35 38
33 c20 17 57 52 80 77 30 32 43 40 43 28 0 -14 9 -18 40 -18 33 0 40 -3 40
-20 0 -18 6 -19 135 -13 133 6 135 6 154 -18 15 -17 23 -21 28 -12 6 8 31 -11
77 -58 67 -66 71 -69 118 -69 36 0 48 -4 48 -15 0 -11 11 -15 38 -15 26 0 46
-7 62 -22 l25 -23 -23 -3 c-18 -3 -22 -10 -22 -43 l0 -39 65 0 65 0 0 -40 c0
-36 -2 -40 -25 -40 -33 0 -32 -7 7 -47 l32 -33 -32 0 c-31 0 -32 -2 -32 -40
l0 -40 -40 0 -40 0 0 -40 0 -40 -55 0 -55 0 0 -80 c0 -64 3 -80 15 -80 11 0
15 -12 15 -49 0 -44 4 -52 40 -85 32 -29 40 -43 40 -71 0 -24 5 -35 15 -35 11
0 15 -11 15 -40 0 -29 -4 -40 -15 -40 -8 0 -15 -7 -15 -15 0 -11 11 -15 40
-15 22 0 40 -4 40 -10 0 -5 18 -10 39 -10 30 0 40 4 43 18 3 14 10 10 41 -21
31 -30 45 -37 77 -37 31 0 40 4 40 17 0 13 3 14 12 5 7 -7 25 -12 40 -12 21 0
28 -5 28 -20 0 -18 7 -20 59 -20 32 0 86 -3 120 -6 61 -7 61 -7 61 20 0 16 5
26 15 26 11 0 15 11 15 40 0 22 5 40 10 40 6 0 10 18 10 40 0 22 4 40 10 40 5
0 28 19 50 43 27 27 43 38 47 29 3 -9 13 -5 35 13 34 29 48 32 48 10 0 -12 13
-15 58 -15 47 0 61 -4 77 -22 l20 -23 3 22 c6 41 32 27 32 -17 0 -22 5 -40 10
-40 6 0 10 -18 10 -40 0 -29 4 -40 15 -40 9 0 15 -9 15 -25 0 -22 4 -25 40
-25 29 0 40 -4 40 -15 0 -12 -20 -15 -119 -15 -84 0 -121 4 -123 12 -3 9 -6 9
-12 0 -4 -7 -2 -12 3 -12 6 0 11 -18 11 -40 l0 -40 -40 0 -40 0 0 -40 c0 -29
4 -40 15 -40 11 0 15 -11 15 -40 0 -22 5 -40 10 -40 6 0 10 -18 10 -40 0 -29
4 -40 15 -40 11 0 15 11 16 38 1 30 8 43 40 71 l39 33 0 -31 c0 -17 4 -31 9
-31 5 0 25 18 45 40 29 32 43 40 71 40 31 0 35 -3 35 -25 0 -22 4 -25 40 -25
29 0 40 -4 40 -15 0 -11 11 -15 40 -15 l40 0 0 40 0 40 -40 0 -40 0 0 80 0 80
45 0 c39 0 51 5 80 35 30 29 35 41 35 80 0 33 4 45 15 45 11 0 15 -11 15 -40
0 -36 3 -40 25 -40 23 0 25 -4 25 -40 l0 -40 40 0 40 0 0 -40 0 -40 40 0 c36
0 40 3 40 24 0 31 36 93 61 107 15 7 19 6 19 -6 0 -8 2 -15 5 -15 12 0 70 33
77 44 9 14 78 -52 78 -74 0 -10 16 -24 39 -34 21 -10 58 -42 82 -71 33 -41 51
-54 71 -55 15 0 30 -5 33 -10 10 -16 19 -12 58 25 33 31 37 40 37 84 0 41 5
55 30 82 26 29 34 32 80 30 39 -2 50 1 50 14 0 8 7 15 15 15 11 0 15 -11 15
-40 0 -29 -4 -40 -15 -40 -23 0 -19 -8 24 -49 34 -33 43 -36 80 -33 39 4 41 6
41 38 0 22 6 37 15 40 10 4 15 20 15 45 0 35 3 39 25 39 23 0 25 -4 25 -40 0
-29 4 -40 15 -40 12 0 15 16 15 80 0 57 4 80 13 81 6 0 72 0 145 -1 l132 -1 0
40 0 41 40 0 40 0 0 40 0 40 -40 0 -40 0 0 40 0 40 -40 0 c-22 0 -40 5 -40 10
0 6 18 10 40 10 22 0 40 -4 40 -10 0 -5 18 -10 40 -10 l40 0 0 65 0 65 39 0
c22 0 44 6 51 15 7 8 25 15 41 15 31 0 36 9 17 28 -9 9 -7 12 10 12 12 0 27 9
34 20 11 17 24 20 88 20 64 0 77 -3 88 -20 24 -39 32 -20 32 80 0 82 3 100 15
100 11 0 15 11 15 40 0 36 3 40 25 40 23 0 25 4 25 40 0 36 -2 40 -25 40 -22
0 -25 4 -25 40 0 29 -4 40 -15 40 -11 0 -15 -11 -15 -40 0 -29 -4 -40 -15 -40
-11 0 -15 -11 -15 -40 0 -33 -3 -40 -20 -40 -11 0 -36 18 -56 40 -38 42 -54
50 -54 25 0 -11 -11 -15 -40 -15 -29 0 -40 4 -40 15 0 22 -8 19 -50 -18 -90
-78 -112 -92 -156 -97 -39 -5 -47 -3 -71 22 -25 27 -31 28 -115 28 -72 0 -88
-3 -88 -15 0 -11 -11 -15 -40 -15 l-40 0 0 53 c0 49 -2 53 -36 69 -43 22 -124
24 -124 4 0 -8 4 -16 9 -18 5 -1 -10 -19 -33 -40 -34 -29 -52 -37 -87 -38 -90
-4 -89 -4 -89 39 0 42 -13 54 -49 44 -19 -5 -21 -1 -21 35 0 23 6 45 15 52 8
7 15 25 15 41 0 19 5 29 15 29 11 0 15 11 15 40 0 29 -4 40 -15 40 -8 0 -15 8
-15 17 0 10 -18 34 -41 54 -35 31 -40 41 -41 78 l0 42 -85 -2 c-75 -2 -86 0
-108 21 -19 18 -22 26 -13 32 9 6 7 10 -9 14 -17 5 -23 14 -23 35 0 16 4 29 9
29 13 0 41 87 41 127 0 23 5 33 15 33 11 0 15 11 15 40 0 29 4 40 15 40 12 0
15 16 15 80 0 73 -2 80 -20 80 -13 0 -18 5 -14 15 4 10 20 15 45 15 37 0 39 2
39 31 0 22 9 40 33 62 28 26 39 30 87 30 51 1 59 -3 93 -36 l36 -37 101 0 100
0 0 -39 c0 -28 5 -40 18 -43 31 -8 42 3 42 43 0 39 0 39 41 39 22 0 50 5 62
11 16 9 22 9 25 0 2 -6 10 -11 18 -11 10 0 14 12 14 40 0 45 16 51 66 25 16
-8 37 -15 47 -15 9 0 17 -6 17 -13 0 -8 10 -19 23 -25 l22 -11 -22 0 c-12 -1
-23 4 -25 11 -2 6 -10 8 -16 4 -17 -11 -15 -91 3 -106 10 -9 15 -9 15 -1 0 6
17 11 40 11 l40 0 0 40 c0 39 1 40 38 41 20 1 54 0 76 -1 35 -2 55 10 56 31 0
4 -20 12 -44 18 -25 6 -48 15 -51 21 -3 5 -42 10 -86 10 -44 0 -79 4 -79 10 0
5 -19 14 -42 20 -65 17 -108 33 -108 41 0 4 -25 19 -56 35 -30 15 -68 43 -84
61 -16 18 -33 33 -38 33 -5 0 -17 9 -27 20 -10 11 -36 31 -59 44 -23 13 -71
55 -107 93 -36 37 -88 89 -115 114 -27 26 -54 53 -60 61 -24 31 -64 114 -70
146 -4 18 -10 35 -15 38 -30 18 23 64 74 64 42 0 91 -27 111 -61 27 -46 122
-138 191 -184 33 -22 81 -57 106 -77 26 -21 52 -38 58 -38 6 0 11 -4 11 -9 0
-16 65 -39 128 -44 53 -4 62 -3 62 12 0 9 -11 25 -25 35 -16 12 -26 32 -31 62
-7 47 11 84 69 145 59 62 74 134 34 169 -28 24 -282 150 -303 150 -8 0 -14 4
-14 8 0 4 -15 16 -32 27 -51 30 -92 75 -129 139 -27 48 -33 70 -32 112 1 52
22 110 53 148 17 21 112 66 140 66 10 0 21 4 24 8 3 5 49 19 103 31 54 13 106
27 115 32 10 5 124 9 254 9 l237 0 -6 -54 c-5 -49 -10 -58 -65 -112 -93 -93
-107 -118 -107 -195 0 -37 6 -77 14 -92 24 -45 108 -73 153 -53 13 6 20 3 24
-10 3 -11 17 -42 30 -71 13 -28 24 -59 24 -67 0 -8 4 -17 9 -20 5 -4 12 -25
16 -49 36 -238 52 -287 94 -287 46 0 50 35 22 214 -19 125 -17 163 15 211 10
16 20 41 21 55 5 72 17 122 31 128 9 3 18 0 20 -6 2 -7 9 -12 16 -12 6 0 19
-9 29 -20 20 -24 73 -26 131 -6 43 15 66 39 66 68 0 42 73 27 90 -18 10 -26
55 -62 85 -70 29 -7 97 12 126 35 15 12 23 29 23 52 1 44 28 50 61 14 14 -14
24 -29 24 -33 -3 -19 2 -32 13 -32 12 0 23 -9 98 -82 15 -16 33 -28 39 -28 6
0 18 -11 27 -25 14 -21 24 -25 66 -25 l49 0 -7 38 c-8 44 -21 72 -34 72 -6 0
-10 8 -10 18 0 11 -8 26 -19 36 -19 17 -35 133 -24 175 5 19 9 17 39 -22 19
-23 34 -48 34 -55 0 -15 26 -56 60 -95 29 -33 132 -137 135 -137 2 0 25 -22
51 -48 27 -26 67 -61 89 -77 22 -16 54 -43 71 -60 54 -53 98 -91 127 -110 16
-10 24 -21 18 -25 -6 -3 5 -12 24 -19 19 -7 35 -17 35 -22 0 -5 25 -21 55 -35
31 -15 58 -30 61 -35 3 -5 14 -9 25 -9 11 0 19 -7 19 -16 0 -16 8 -15 88 3 20
5 23 2 20 -18 -3 -21 -9 -24 -53 -27 -40 -2 -56 2 -74 18 -26 22 -57 27 -63 9
-2 -6 -16 1 -31 15 -23 21 -32 24 -48 16 -19 -11 -22 -19 -20 -56 6 -69 -50
-105 -165 -107 l-72 -2 -71 72 c-39 40 -71 77 -71 82 0 5 -7 11 -15 15 -8 3
-15 11 -15 19 0 7 -16 27 -35 43 -19 16 -39 41 -45 57 -5 16 -19 31 -30 34
-11 3 -20 12 -20 20 0 8 -4 12 -9 9 -5 -3 -14 8 -20 25 -6 17 -20 33 -32 36
-14 4 -19 11 -16 25 3 10 1 34 -4 53 -8 28 -15 35 -35 35 -22 0 -24 -3 -18
-22 3 -13 15 -35 25 -50 11 -14 19 -35 19 -46 0 -11 16 -37 35 -58 19 -22 40
-51 47 -66 7 -16 16 -28 20 -28 4 0 16 -17 27 -38 11 -21 27 -45 36 -52 24
-20 37 -59 30 -90 -4 -19 -20 -33 -59 -53 -29 -15 -59 -27 -67 -28 -32 -1 38
-20 75 -20 23 0 93 -2 156 -5 98 -5 126 -10 190 -36 76 -31 178 -60 260 -73
25 -4 68 -13 95 -20 28 -7 88 -15 135 -19 47 -4 137 -14 201 -23 109 -15 123
-15 212 1 114 21 186 54 286 130 86 65 120 72 148 29 15 -22 19 -58 24 -193 5
-114 3 -172 -5 -189 -7 -15 -42 -40 -91 -66 -44 -22 -106 -55 -138 -73 -31
-18 -64 -32 -72 -32 -8 0 -15 -4 -15 -8 0 -19 -163 -44 -258 -40 -84 4 -107 9
-167 37 -38 18 -94 45 -123 58 -71 33 -112 28 -182 -25 -30 -23 -70 -44 -92
-47 -46 -8 -148 21 -148 41 0 8 -15 20 -32 29 -18 8 -40 19 -48 23 -29 17 -85
41 -125 52 -22 7 -53 18 -70 25 -39 17 -99 27 -155 25 -33 -1 -51 -7 -68 -24
l-24 -23 29 -39 c47 -65 67 -84 85 -84 10 0 18 7 18 15 0 12 15 15 79 15 64 0
80 3 83 16 2 11 25 -6 73 -55 67 -68 72 -71 118 -71 26 0 47 -4 47 -8 0 -5 18
-17 40 -27 30 -13 40 -24 40 -41 0 -13 5 -26 10 -29 6 -3 10 -1 10 6 0 7 13 1
28 -14 16 -15 31 -25 35 -21 3 3 20 -2 37 -12 23 -14 33 -16 38 -7 6 10 15 10
43 0 18 -6 40 -17 46 -24 7 -6 18 -14 25 -17 11 -5 11 -7 0 -12 -7 -3 -19 -12
-26 -20 -10 -10 -38 -14 -90 -14 -74 0 -76 1 -76 25 0 23 -4 25 -40 25 -36 0
-40 -2 -40 -25 0 -22 -4 -25 -40 -25 l-40 0 0 -40 c0 -29 -4 -40 -15 -40 -11
0 -15 -11 -15 -40 0 -22 -4 -40 -10 -40 -6 0 -10 -33 -10 -80 0 -79 0 -80 25
-80 23 0 25 -4 25 -40 l0 -40 40 0 40 0 0 -40 0 -40 40 0 40 0 0 40 c0 28 -4
40 -14 40 -14 0 -27 82 -15 101 3 5 47 11 97 14 87 5 92 4 92 -15 0 -17 7 -20
48 -20 41 0 53 5 80 33 18 18 32 39 32 46 0 7 18 30 40 51 22 21 40 43 40 49
0 6 18 11 40 11 36 0 40 3 40 25 0 16 6 25 15 25 11 0 15 -11 15 -40 l0 -40
50 0 50 0 0 40 0 40 55 0 c48 0 55 2 55 20 0 11 4 20 10 20 5 0 15 -9 22 -20
7 -11 21 -20 30 -20 14 0 18 -8 18 -40 0 -29 4 -40 15 -40 11 0 15 -11 15 -40
0 -29 -4 -40 -15 -40 -11 0 -15 11 -15 40 l0 40 -40 0 -40 0 0 -40 0 -40 40 0
c29 0 40 -4 40 -15 0 -11 11 -15 40 -15 22 0 40 -4 40 -10 0 -6 33 -10 80 -10
73 0 80 2 80 20 0 17 7 20 40 20 22 0 40 -4 40 -9 0 -5 9 -13 20 -16 14 -4 20
-15 20 -34 0 -16 10 -41 21 -56 31 -38 31 -104 1 -128 -12 -10 -22 -29 -22
-43 0 -13 -4 -24 -9 -24 -9 0 -17 -35 -25 -109 -3 -24 -10 -47 -17 -51 -6 -5
-14 -31 -17 -59 -2 -27 -9 -49 -15 -48 -6 1 -14 -9 -18 -23 -15 -53 -9 -119
21 -203 16 -47 30 -100 30 -119 0 -25 3 -29 10 -18 6 10 10 11 10 3 0 -7 9
-22 21 -34 12 -12 19 -29 16 -40 -3 -10 -1 -19 4 -19 5 0 9 -18 9 -40 0 -22 5
-40 10 -40 6 0 10 -13 10 -29 0 -15 11 -73 25 -129 14 -56 25 -115 25 -132 0
-20 5 -30 15 -30 8 0 15 -7 15 -15 0 -8 6 -25 13 -36 10 -17 10 -23 0 -26 -18
-6 -16 -33 2 -33 18 0 29 -41 21 -75 -4 -14 -13 -25 -21 -25 -8 0 -15 -7 -15
-15 0 -8 7 -15 15 -15 22 0 22 -188 0 -196 -8 -4 -15 -15 -15 -25 0 -14 -7
-19 -25 -19 -25 0 -25 1 -25 80 l0 80 -55 0 -55 0 0 -40 0 -40 -40 0 -40 0 0
80 0 80 40 0 40 0 0 40 0 40 40 0 40 0 0 -40 c0 -29 4 -40 15 -40 11 0 15 11
15 40 0 29 -4 40 -15 40 -12 0 -15 16 -15 80 0 79 0 80 -25 80 -22 0 -25 4
-25 40 0 29 -4 40 -15 40 -8 0 -15 -7 -15 -15 0 -11 -11 -15 -40 -15 -38 0
-40 2 -40 30 0 28 -2 30 -40 30 -29 0 -40 -4 -40 -15 0 -8 -7 -15 -15 -15 -11
0 -15 11 -15 40 0 22 -4 40 -10 40 -5 0 -10 18 -10 40 0 29 -4 40 -15 40 -11
0 -15 11 -15 40 l0 40 -80 0 -80 0 0 40 0 40 -40 0 -40 0 0 -55 0 -55 -40 0
c-29 0 -40 4 -40 15 0 11 -11 15 -40 15 l-40 0 0 40 c0 36 -2 40 -25 40 -22 0
-25 4 -25 40 0 28 -4 40 -14 40 -8 0 -17 -6 -20 -12 -3 -7 -3 -1 0 15 6 26 5
27 -36 27 -38 0 -42 -2 -37 -21 4 -15 -5 -30 -34 -56 -33 -30 -39 -42 -39 -74
0 -22 4 -39 9 -39 5 0 14 -14 22 -32 7 -17 36 -55 65 -84 l52 -52 -24 -11
c-31 -14 -30 -27 3 -45 20 -11 23 -15 11 -16 -14 0 -18 -9 -18 -40 0 -22 -4
-40 -10 -40 -5 0 -10 -18 -10 -40 l0 -40 -95 0 c-80 0 -95 -3 -95 -16 0 -12
-10 -15 -45 -13 -37 3 -50 -2 -73 -24 -15 -15 -34 -27 -40 -27 -12 0 -82 -64
-82 -75 0 -3 8 -5 17 -5 10 0 32 -16 50 -37 40 -44 149 -93 210 -93 39 0 43 2
43 25 0 25 0 25 95 25 l95 0 0 -40 0 -40 -55 0 -55 0 0 -75 c0 -75 0 -75 40
-111 32 -29 40 -43 40 -70 0 -33 -1 -34 -40 -34 -29 0 -40 -4 -40 -15 0 -13
-35 -21 -76 -16 -8 1 -11 -71 -11 -236 1 -173 -3 -238 -11 -241 -7 -2 -13 -20
-13 -40 l-2 -37 -7 40 -7 40 -2 -42 c-1 -31 -5 -43 -16 -43 -22 0 -19 -7 20
-45 31 -31 40 -35 89 -35 45 0 57 4 66 20 6 11 25 27 42 36 23 12 28 18 17 24
-10 7 -6 12 14 19 16 6 35 11 43 11 19 0 18 20 -3 37 -17 13 -16 14 5 10 29
-7 28 -1 -10 33 -28 26 -31 34 -29 80 2 39 -1 50 -14 50 -22 0 -19 7 25 57 22
25 40 52 40 59 0 10 13 14 40 14 29 0 40 4 40 15 0 9 9 15 25 15 25 0 25 1 25
80 0 47 -4 80 -10 80 -5 0 -10 18 -10 40 0 22 5 40 10 40 6 0 10 18 10 40 l0
40 81 0 81 0 -4 -45 c-2 -36 0 -46 14 -51 25 -8 22 -39 -4 -52 l-23 -11 23 0
c29 -1 28 -9 -5 -43 -22 -23 -27 -36 -24 -73 2 -35 -1 -45 -13 -45 -11 0 -16
-10 -16 -34 0 -26 10 -43 46 -80 l47 -46 73 0 74 0 0 49 c0 44 4 52 40 85 32
29 40 43 40 71 0 34 1 35 40 35 l40 0 0 40 0 40 -40 0 -40 0 0 40 0 40 86 0
87 0 -7 -69 c-7 -66 -6 -69 16 -75 17 -4 20 -8 10 -15 -11 -7 -10 -16 7 -50
12 -22 26 -41 31 -41 6 0 10 -13 10 -30 0 -16 -5 -30 -11 -30 -5 0 -8 -4 -5
-9 3 -5 -3 -19 -13 -33 -23 -28 -45 -104 -37 -125 10 -26 -17 -97 -46 -121
-24 -20 -28 -32 -28 -72 0 -30 -5 -50 -13 -53 -7 -2 -8 -8 -3 -13 5 -5 11 -4
13 4 3 6 9 12 14 12 21 0 4 -144 -26 -222 -7 -17 4 -18 137 -18 132 0 144 2
156 20 7 11 19 20 27 20 8 0 22 11 31 25 14 22 14 26 0 47 -9 12 -16 36 -16
53 0 18 -9 41 -20 53 -24 25 -40 28 -40 8 0 -7 -6 -19 -14 -25 -12 -10 -17 -8
-25 7 -26 48 41 408 82 445 73 64 162 -6 251 -198 24 -51 30 -79 36 -190 6
-99 5 -144 -6 -190 -7 -33 -14 -63 -14 -67 0 -5 108 -8 240 -8 192 0 240 3
240 13 0 27 -68 107 -161 191 -100 88 -119 114 -97 128 19 12 45 10 86 -7 119
-50 283 -98 353 -102 103 -7 271 34 414 102 93 43 167 74 194 80 23 5 40 19
58 48 15 23 36 57 47 74 22 34 55 43 73 21 44 -56 68 -301 48 -485 l-7 -63
251 0 251 0 0 39 c0 22 -4 41 -9 43 -6 2 -11 23 -12 48 -4 77 -41 150 -76 150
-13 0 -33 38 -33 63 0 7 11 24 25 39 26 28 34 84 16 104 -9 9 -15 35 -46 198
-8 43 -22 86 -31 95 -8 9 -24 31 -35 48 -10 18 -26 33 -34 33 -22 0 -121 117
-174 204 -28 45 -70 228 -71 304 0 73 24 118 61 114 4 -1 15 8 24 18 10 11 26
20 36 20 9 0 19 5 21 11 3 8 10 8 26 -2 14 -9 20 -20 16 -31 -3 -11 3 -22 15
-30 12 -7 21 -18 21 -24 0 -6 8 -18 18 -27 56 -51 57 17 2 74 -58 60 -51 79
26 79 24 0 34 5 34 15 0 11 -11 15 -40 15 -31 0 -40 -4 -40 -17 0 -10 -3 -13
-8 -7 -5 5 -7 30 -4 57 4 42 7 47 28 47 29 0 31 15 4 32 -17 11 -20 24 -21 83
0 101 -13 166 -35 182 -24 18 -24 108 0 235 10 48 16 93 14 100 -1 7 4 34 12
60 11 36 21 50 48 62 18 9 38 14 43 10 5 -3 26 4 45 15 20 12 53 21 75 21 39
0 39 0 39 40 l0 40 65 0 65 0 0 40 c0 36 -2 40 -25 40 -22 0 -25 4 -25 40 0
31 4 40 18 40 16 1 16 1 0 14 -23 17 -23 36 0 36 9 0 30 7 46 15 15 8 43 15
62 15 l33 0 3 -102 3 -103 20 22 c11 13 27 23 37 23 10 0 18 7 18 15 0 11 11
15 40 15 22 0 40 5 40 10 0 16 88 12 122 -6 19 -10 33 -12 37 -6 3 5 40 13 81
17 l75 6 43 -38 c30 -27 42 -46 42 -66 0 -22 4 -27 25 -27 23 0 25 -4 25 -40
l0 -40 55 0 c42 0 55 3 55 15 0 21 76 21 84 0 4 -10 20 -15 53 -15 26 0 57 -7
67 -15 11 -8 29 -15 40 -15 49 0 101 -25 161 -76 47 -39 73 -54 95 -54 l30 0
0 -80 c0 -79 0 -80 -25 -80 -23 0 -25 -3 -25 -47 1 -42 6 -54 40 -92 22 -24
40 -39 40 -33 0 6 20 0 44 -14 46 -26 72 -24 81 7 5 16 16 19 61 19 l54 0 0
-40 0 -40 120 0 120 0 0 -40 c0 -29 -4 -40 -15 -40 -11 0 -15 -11 -15 -40 0
-39 -1 -40 -34 -40 -27 0 -41 -8 -70 -40 -20 -22 -40 -40 -46 -40 -5 0 -10
-18 -10 -40 0 -36 -2 -40 -25 -40 -25 0 -25 0 -25 -95 l0 -95 40 0 c31 0 40
-4 40 -17 0 -13 8 -9 33 15 18 18 39 32 45 32 7 0 28 16 47 35 34 34 35 36 35
120 l0 85 80 0 80 0 0 -40 0 -40 40 0 40 0 0 -40 0 -40 40 0 40 0 0 40 0 40
40 0 40 0 0 79 0 79 40 4 c22 2 58 2 80 0 l40 -4 0 -79 0 -79 -40 0 -40 0 0
-80 0 -80 -40 0 -40 0 0 -40 0 -40 -40 0 -40 0 0 -40 0 -40 -40 0 -40 0 0 -40
0 -40 80 0 c64 0 80 -3 80 -15 0 -11 11 -15 40 -15 29 0 40 4 40 15 0 12 16
15 80 15 48 0 80 -4 80 -10 0 -7 6 -7 19 0 11 5 29 10 40 10 18 0 21 6 21 40
l0 40 -40 0 -40 0 0 40 0 40 40 0 40 0 0 80 0 80 -40 0 -40 0 0 40 0 40 105 0
105 0 0 40 0 40 61 0 c58 0 62 2 99 40 31 32 46 40 74 40 l36 0 0 -80 0 -80
120 0 120 0 0 -40 0 -40 -80 0 -80 0 0 -80 0 -80 -40 0 -40 0 0 -145 0 -145
34 0 c23 0 44 8 62 25 15 14 35 25 45 25 11 0 19 7 19 18 1 17 61 62 84 62 7
0 21 9 31 20 13 14 14 20 5 20 -9 0 -7 6 5 20 18 20 18 21 -16 56 -18 19 -44
37 -56 40 -19 5 -23 13 -23 45 0 35 3 39 25 39 23 0 25 4 25 40 l0 40 40 0
c36 0 40 -2 40 -25 0 -22 4 -25 40 -25 22 0 40 5 40 10 0 6 18 10 40 10 29 0
40 4 40 15 0 11 11 15 40 15 l40 0 0 -40 c0 -29 -4 -40 -15 -40 -23 0 -21 -77
3 -84 9 -2 -5 -4 -33 -3 -43 2 -54 -2 -80 -28 l-29 -30 -6 23 -5 23 -29 -30
c-26 -27 -27 -31 -10 -31 17 -1 16 -3 -8 -24 l-27 -24 57 -16 c54 -15 102 -51
102 -75 0 -6 6 -11 14 -11 7 0 21 -11 30 -25 19 -29 50 -32 68 -7 7 10 21 21
31 25 9 3 17 17 17 30 0 13 5 28 12 35 13 13 68 17 68 4 0 -13 68 -42 84 -36
9 3 20 -3 28 -15 8 -14 23 -21 44 -21 29 0 31 -3 42 -51 7 -28 12 -64 12 -80
0 -18 5 -29 14 -29 8 0 16 -10 18 -22 2 -17 13 -25 41 -31 20 -5 37 -15 37
-22 0 -7 15 -28 34 -46 30 -31 39 -34 95 -35 l61 0 0 38 c0 21 5 38 10 38 6 0
10 18 10 40 l0 40 40 0 40 0 0 -40 c0 -29 4 -40 15 -40 8 0 15 -5 15 -11 0 -8
5 -8 15 1 9 7 15 29 15 51 0 35 3 39 25 39 16 0 25 6 25 15 0 11 11 15 40 15
36 0 40 3 40 25 0 23 4 25 40 25 23 0 40 -5 40 -11 0 -8 5 -8 15 1 9 7 15 29
15 51 0 28 -4 39 -15 39 -10 0 -15 10 -15 34 0 25 -9 44 -30 67 -26 29 -34 32
-80 30 -39 -2 -50 1 -50 14 0 11 -12 15 -51 15 -40 0 -49 -3 -41 -12 16 -21
20 -77 5 -71 -9 4 -13 -6 -13 -36 0 -23 5 -41 10 -41 18 0 10 -29 -15 -55 -29
-28 -70 -32 -99 -10 -25 19 -36 19 -36 0 0 -11 -11 -15 -40 -15 l-40 0 0 -44
c0 -41 -1 -43 -25 -38 -22 4 -25 10 -25 43 0 22 5 39 10 39 6 0 10 33 10 80 0
64 3 80 15 80 9 0 15 9 15 25 0 23 -4 25 -40 25 -33 0 -40 3 -40 20 0 17 -7
20 -40 20 -33 0 -40 -3 -40 -20 0 -30 -83 -29 -117 2 -100 91 -93 78 -93 167
0 65 -3 81 -15 81 -8 0 -15 7 -15 15 0 11 11 15 40 15 29 0 40 -4 40 -15 0
-22 12 -18 36 12 18 23 27 27 70 24 27 -1 51 -6 52 -12 5 -13 80 -11 84 2 4
12 78 -19 78 -33 0 -4 7 -8 16 -8 9 0 27 -10 40 -23 21 -20 22 -28 17 -79 l-6
-58 62 0 61 0 0 80 c0 79 0 80 25 80 16 0 25 6 25 15 0 12 16 15 80 15 44 0
80 -4 80 -9 0 -6 13 -24 30 -42 26 -29 34 -32 80 -30 39 2 50 -1 50 -14 0 -12
12 -15 58 -15 46 0 60 -4 70 -20 16 -26 32 -26 32 0 0 16 7 20 35 20 28 0 44
8 73 37 30 31 34 38 20 41 -14 3 -18 13 -18 43 0 28 -4 39 -15 39 -10 0 -15
-10 -15 -32 l0 -32 -33 32 c-28 27 -41 32 -80 32 -35 0 -47 -4 -47 -15 0 -11
-11 -15 -40 -15 -29 0 -40 4 -40 15 0 10 -10 15 -28 15 -31 0 -116 65 -106 81
3 6 -1 21 -10 34 -20 31 -20 59 0 90 9 13 13 28 10 33 -11 18 78 82 114 82 17
0 20 7 20 39 0 39 0 39 43 42 38 4 43 2 39 -13 -5 -22 8 -23 34 -3 10 8 34 15
52 15 17 0 32 4 32 9 0 5 13 14 29 19 16 6 32 20 36 31 3 12 12 21 19 21 8 0
35 12 62 27 32 18 49 23 52 15 2 -7 21 -12 43 -12 28 0 39 -4 39 -15 0 -8 7
-15 15 -15 25 0 65 -49 65 -80 0 -31 -40 -80 -65 -80 -11 0 -15 -12 -15 -39 0
-22 -5 -41 -12 -43 -9 -3 -9 -6 0 -12 7 -4 12 -2 12 3 0 6 18 11 40 11 l40 0
0 -40 0 -40 40 0 c32 0 40 4 40 18 0 11 15 26 38 37 l37 20 -37 3 c-54 5 -52
32 2 32 40 0 44 -5 41 -42 -2 -14 5 -18 28 -18 16 0 56 -7 88 -15 81 -21 115
-19 135 9 14 19 15 30 7 62 -10 33 -8 45 12 86 21 43 30 50 77 65 51 16 67 38
37 49 -8 4 -13 9 -10 14 2 4 -9 20 -25 35 -17 16 -30 36 -30 45 0 23 62 50
115 50 33 0 45 4 45 15 0 8 9 15 19 15 10 0 21 7 24 15 4 8 24 23 47 35 22 11
38 24 36 29 -7 11 56 81 72 81 7 0 12 15 12 40 0 29 4 40 15 40 8 0 15 -5 15
-11 0 -8 4 -8 13 -2 6 5 28 16 47 23 19 7 69 44 112 82 42 37 79 68 83 68 3 0
21 11 38 24 24 18 50 26 110 31 46 4 77 4 77 -2 0 -5 16 -17 36 -26 20 -10 38
-27 41 -37 4 -17 14 -20 57 -20 58 0 82 -11 73 -34 -5 -11 -1 -16 13 -16 11 0
20 -7 20 -15 0 -11 11 -15 38 -15 26 0 46 -7 62 -22 l25 -23 -38 -3 -37 -3 0
-80 0 -79 61 0 c58 0 62 -2 99 -40 21 -22 43 -40 49 -40 6 0 11 -18 11 -40 0
-29 -4 -40 -15 -40 -25 0 -17 -16 25 -54 22 -20 40 -45 40 -56 0 -24 -1 -24
47 -2 55 24 113 91 113 131 0 30 2 31 40 31 29 0 40 -4 40 -15 0 -8 9 -20 20
-27 15 -10 20 -24 20 -60 0 -55 23 -78 80 -78 20 0 44 -6 55 -14 11 -7 31 -16
45 -19 31 -8 98 -75 102 -102 2 -11 7 -26 11 -33 5 -6 6 -16 3 -20 -3 -5 46
-59 109 -120 113 -109 115 -112 115 -156 0 -34 4 -46 15 -46 11 0 15 11 15 40
0 36 3 40 25 40 14 0 25 -5 25 -10 0 -7 6 -7 18 0 55 31 140 60 178 60 41 0
44 2 44 28 0 15 7 36 15 46 19 25 19 36 0 36 -12 0 -15 15 -15 76 l0 76 -47
44 c-25 24 -54 44 -65 44 -14 0 -18 8 -18 40 0 22 -4 40 -9 40 -11 0 -101 90
-101 102 0 5 23 8 51 7 46 -2 54 1 73 24 14 17 31 27 48 27 15 0 28 5 30 11 2
6 17 13 33 15 18 1 39 14 53 31 17 22 24 25 31 14 6 -9 11 -10 15 -2 10 15
119 14 134 -1 9 -9 12 -9 12 0 0 7 11 12 25 12 23 0 25 -4 25 -40 0 -29 4 -40
15 -40 8 0 15 7 15 15 0 22 48 65 74 65 15 0 46 23 90 68 65 64 69 67 110 64
34 -3 46 -9 59 -32 10 -15 17 -42 17 -59 0 -41 36 -112 61 -118 10 -3 19 -11
19 -19 0 -22 21 -27 35 -8 9 11 14 14 15 7 0 -9 23 -13 80 -13 64 0 80 3 80
15 0 11 -11 15 -42 15 l-43 0 3 80 c3 68 1 80 -12 80 -12 0 -16 10 -16 40 0
29 4 40 15 40 8 0 15 7 15 15 0 11 11 15 40 15 30 0 40 -4 40 -16 0 -14 10
-16 73 -10 96 7 149 -3 162 -32 9 -20 17 -22 87 -22 62 0 77 3 80 16 2 12 10
8 32 -15 23 -24 26 -31 13 -31 -13 0 -17 -9 -17 -40 0 -23 5 -40 11 -40 8 0
10 -17 7 -51 -4 -42 -2 -53 13 -62 13 -8 19 -24 19 -47 0 -37 34 -80 64 -80
26 0 19 -15 -24 -54 -22 -20 -40 -40 -40 -46 0 -6 33 -10 80 -10 64 0 80 3 80
15 0 12 13 15 55 15 l55 0 0 39 c0 33 4 40 23 43 18 2 23 10 25 41 3 36 4 37
42 37 36 0 39 -2 42 -32 l3 -33 32 33 c25 26 39 32 72 32 26 0 44 -5 47 -14 3
-7 23 -21 44 -31 22 -10 38 -21 36 -24 -2 -3 34 -5 80 -3 l84 3 0 195 c0 148
-3 194 -12 194 -7 0 -21 12 -31 26 -16 21 -17 30 -7 60 7 19 20 40 31 47 19
12 19 333 19 18859 l0 18848 -15120 0 -15120 0 0 -7688z m15470 4 c33 0 65 6
72 11 24 20 91 24 122 8 15 -8 36 -15 45 -15 19 -1 51 -23 51 -37 0 -5 11 -16
25 -23 20 -11 32 -11 63 -1 30 10 44 11 61 2 13 -8 39 -10 67 -5 24 3 57 2 72
-4 15 -5 45 -15 67 -22 51 -15 87 -44 83 -67 -3 -16 6 -18 69 -20 40 -1 82 -7
93 -13 16 -9 25 -8 36 0 11 10 20 9 40 -5 20 -13 23 -19 13 -25 -7 -5 -22 -4
-32 2 -15 7 -18 7 -15 -3 2 -7 18 -16 34 -21 16 -4 34 -14 39 -22 6 -7 19 -15
30 -17 13 -3 24 -20 35 -54 20 -62 51 -125 62 -125 4 0 8 -4 8 -10 0 -5 -7
-10 -16 -10 -14 0 -14 -3 -4 -15 10 -12 15 -13 21 -4 7 12 10 5 24 -56 3 -16
15 -35 26 -43 10 -7 19 -19 19 -26 0 -6 6 -18 13 -24 6 -7 12 -17 12 -21 0 -4
16 -24 35 -43 19 -20 43 -46 53 -59 9 -13 53 -60 96 -104 43 -44 81 -87 84
-95 5 -13 7 -13 15 -1 8 11 18 7 53 -20 24 -19 46 -38 48 -44 2 -5 32 -36 67
-70 l63 -60 6 -120 c3 -65 10 -124 15 -130 12 -14 50 -132 50 -154 0 -9 9 -29
19 -45 13 -19 18 -39 14 -60 -2 -17 2 -43 10 -59 23 -44 9 -81 -32 -85 -52 -5
-368 76 -401 103 -8 6 -37 18 -65 25 -27 7 -54 16 -60 21 -5 4 -37 16 -70 27
-112 38 -130 45 -185 67 -68 29 -191 67 -289 92 -40 10 -75 23 -77 28 -3 7
-43 9 -109 7 -66 -3 -105 -1 -105 6 0 15 -32 24 -40 11 -4 -6 -41 -15 -81 -19
-41 -5 -113 -18 -159 -29 -115 -27 -193 -34 -232 -22 -18 5 -61 15 -96 22 -45
8 -82 25 -130 57 -37 24 -69 49 -70 53 -2 5 -8 7 -13 3 -5 -3 -9 2 -9 10 0 9
-7 16 -15 16 -18 0 -20 20 -2 21 6 0 2 5 -10 11 -13 6 -23 17 -23 25 0 16 -16
17 -25 2 -13 -19 -29 -3 -39 42 -8 32 -16 44 -28 43 -10 -1 -15 2 -12 7 7 11
-47 70 -57 63 -5 -3 -23 2 -41 9 -18 8 -57 17 -87 21 -30 4 -60 10 -65 14 -6
4 -36 7 -66 7 -59 0 -58 -1 -48 60 2 15 -2 19 -17 18 -11 -2 -31 6 -45 17
l-25 20 25 0 c30 0 59 48 37 62 -9 6 -9 10 -1 16 7 4 14 16 16 27 2 11 9 19
15 18 15 -3 26 59 12 68 -9 5 -8 18 5 48 9 23 16 50 16 60 0 10 13 34 28 54
21 25 29 48 31 83 1 27 9 56 17 65 8 8 14 20 14 26 0 6 7 13 15 17 8 3 14 9
13 13 -5 17 24 53 43 53 13 0 24 10 31 30 8 24 14 29 30 24 16 -5 19 -2 14 13
-6 18 6 36 49 71 8 7 15 22 15 32 0 13 7 20 19 20 11 0 32 11 47 25 15 14 34
23 41 21 9 -4 16 5 20 24 3 17 9 30 13 30 4 0 17 9 30 20 13 11 31 20 42 20
10 0 27 9 38 20 31 31 136 25 142 -8 2 -12 8 -9 28 11 23 24 26 25 43 9 14
-12 36 -17 77 -16z m-833 -518 c-3 -8 -6 -5 -6 6 -1 11 2 17 5 13 3 -3 4 -12
1 -19z m-48 -39 c-12 -7 -12 -12 0 -31 9 -14 10 -23 3 -26 -5 -1 -20 -12 -33
-23 -24 -20 -37 -19 -23 3 5 7 9 20 9 29 0 22 37 69 48 62 5 -3 3 -9 -4 -14z
m-9 -112 c0 -7 -9 -18 -21 -25 -15 -9 -20 -21 -17 -37 6 -28 -30 -65 -62 -65
-26 0 -26 26 0 42 11 7 20 18 20 25 0 30 24 64 42 60 10 -3 18 -1 18 4 0 5 5
9 10 9 6 0 10 -6 10 -13z m-100 -167 c0 -5 -4 -10 -10 -10 -5 0 -10 5 -10 10
0 6 5 10 10 10 6 0 10 -4 10 -10z m-4 -137 c-3 -3 -13 -2 -23 2 -17 7 -17 8 2
15 19 7 34 -5 21 -17z m-79 -55 c-3 -8 -6 -5 -6 6 -1 11 2 17 5 13 3 -3 4 -12
1 -19z m118 -238 c4 -6 41 -10 88 -9 77 2 178 -12 222 -32 11 -5 32 -13 48
-19 15 -5 27 -14 27 -20 0 -5 9 -10 20 -10 11 0 20 -4 20 -10 0 -5 12 -13 28
-16 64 -16 141 -87 159 -147 19 -63 16 -114 -12 -201 -25 -79 -107 -246 -135
-276 -9 -8 -29 -33 -45 -54 -36 -47 -98 -90 -151 -103 -50 -12 -214 -1 -299
21 -109 28 -195 60 -195 73 0 7 -4 13 -9 13 -5 0 -22 5 -36 10 -24 9 -25 11
-10 26 12 13 19 14 30 4 12 -10 15 -10 15 3 0 8 -7 18 -16 21 -12 4 -14 13
-10 31 5 21 1 29 -23 42 -20 12 -29 25 -29 43 1 59 21 226 29 235 5 5 9 18 9
28 0 18 -5 19 -45 14 -57 -8 -58 -1 -2 14 23 6 44 15 47 19 11 17 87 54 125
61 30 5 15 7 -56 8 -85 1 -97 3 -102 20 -5 22 -84 38 -101 21 -7 -7 -10 -71
-9 -183 3 -198 -10 -198 -27 0 -12 139 -8 191 19 222 16 19 18 19 29 1 7 -12
28 -20 64 -24 73 -9 257 -16 234 -9 -15 4 -16 7 -5 13 9 6 6 10 -14 15 -30 8
-35 22 -12 31 8 4 15 10 15 16 0 5 11 19 25 32 14 13 25 33 25 44 0 31 50 56
65 32z m1623 -259 c11 -6 36 -11 55 -11 38 0 195 -54 285 -98 123 -59 172
-145 158 -273 -16 -142 -125 -415 -192 -482 -39 -39 -121 -75 -190 -82 -67 -8
-250 9 -328 30 -87 23 -200 74 -237 107 -30 26 -79 101 -79 120 0 7 -7 26 -15
42 -8 16 -18 47 -21 70 -4 22 -11 46 -16 52 -8 11 -16 69 -38 259 -8 80 -3
105 24 105 6 0 17 12 24 28 27 59 38 71 76 93 72 41 176 58 332 54 79 -1 150
-8 162 -14z m-653 -27 c-8 -20 -15 -39 -16 -43 0 -3 -5 5 -10 18 -7 18 -5 28
8 42 28 28 35 22 18 -17z m-108 -89 c43 -12 79 -110 84 -230 2 -27 10 -68 19
-90 9 -22 19 -62 23 -90 6 -52 23 -112 60 -205 21 -54 87 -128 132 -148 203
-92 262 -105 475 -106 l165 -1 67 33 c110 54 146 103 272 374 20 43 36 82 36
87 0 6 12 36 27 66 38 76 42 77 213 40 41 -9 95 -20 120 -25 212 -38 265 -52
273 -74 3 -7 8 -39 10 -72 3 -32 4 -48 1 -34 -3 14 -10 38 -16 53 l-11 29 -13
-39 c-11 -32 -11 -46 2 -89 13 -45 13 -58 -1 -119 -9 -38 -14 -78 -11 -89 6
-24 -8 -51 -26 -51 -7 0 -15 -15 -19 -34 -4 -18 -13 -44 -20 -57 -10 -19 -10
-26 1 -39 14 -16 7 -29 -35 -70 -26 -26 -30 -78 -8 -96 14 -12 16 -12 8 1 -8
13 -7 13 9 1 11 -10 14 -17 7 -24 -7 -7 -5 -15 7 -23 16 -12 15 -13 -5 -14
-13 0 -23 -2 -23 -4 0 -2 -3 -12 -6 -20 -5 -12 -2 -15 12 -10 12 4 8 -5 -13
-25 -22 -20 -33 -40 -33 -58 0 -15 -10 -37 -22 -50 -19 -21 -21 -27 -9 -45 9
-14 9 -23 2 -27 -5 -4 -13 -25 -17 -49 -3 -23 -17 -56 -30 -74 -13 -17 -24
-38 -24 -45 0 -8 -8 -26 -17 -40 -13 -20 -17 -42 -15 -84 3 -39 -2 -69 -13
-93 -19 -40 -29 -44 -43 -20 -8 15 -10 15 -15 0 -6 -15 4 -20 41 -19 17 1 15
-33 -4 -62 -12 -19 -22 -23 -40 -19 -15 4 -24 2 -24 -5 0 -20 -19 -11 -23 12
-4 19 -4 19 -6 -5 0 -14 5 -28 11 -30 10 -4 10 -10 1 -30 -6 -14 -14 -47 -18
-74 -4 -27 -13 -54 -20 -59 -7 -6 -23 -31 -34 -56 -12 -25 -33 -52 -46 -59
-14 -7 -25 -21 -25 -30 0 -10 -6 -22 -13 -28 -7 -6 -19 -34 -27 -62 -7 -27
-17 -50 -22 -50 -4 0 -8 -12 -8 -26 0 -21 -4 -25 -20 -21 -11 3 -23 1 -26 -4
-3 -5 -10 -7 -15 -4 -5 4 -12 -1 -15 -9 -3 -9 -16 -16 -27 -16 -15 0 -18 -3
-10 -11 8 -8 7 -19 -4 -40 -11 -22 -21 -29 -44 -29 -16 0 -29 -4 -29 -10 0 -5
-7 -10 -15 -10 -8 0 -15 -5 -15 -11 0 -8 -5 -8 -15 1 -12 10 -15 10 -16 -1 -1
-8 -2 -23 -2 -34 -1 -11 -6 -21 -12 -22 -5 -1 -9 7 -8 18 2 10 -1 19 -5 19
-14 0 -50 -55 -54 -81 -4 -34 -18 -46 -53 -46 -40 0 -89 -24 -93 -46 -2 -12 3
-17 20 -18 13 0 17 -3 11 -6 -14 -5 -18 -33 -5 -33 4 0 12 4 17 9 14 12 87 36
103 32 7 -1 29 7 48 19 20 11 40 17 46 14 5 -3 16 3 24 15 17 24 70 51 99 50
57 -1 130 32 122 55 -4 12 16 36 31 36 4 0 19 11 32 25 13 14 31 25 40 25 10
0 20 16 29 46 8 26 27 58 42 72 16 14 29 32 29 39 0 8 11 24 24 36 13 12 29
38 36 58 8 22 23 40 41 48 35 15 59 62 59 113 0 32 4 40 25 48 14 5 29 20 34
32 6 16 10 18 16 8 5 -8 2 -16 -9 -22 -12 -7 -16 -21 -15 -54 2 -36 -1 -47
-19 -60 -19 -13 -21 -22 -16 -50 5 -29 3 -35 -20 -45 -19 -9 -26 -20 -26 -41
0 -18 5 -28 15 -28 12 0 14 -7 9 -27 -4 -16 -11 -32 -15 -37 -5 -6 -9 -17 -9
-25 0 -8 -7 -23 -16 -32 -9 -10 -18 -29 -19 -41 -1 -13 -3 -29 -4 -37 0 -8 -8
-11 -19 -9 -19 5 -49 -27 -33 -36 4 -3 6 -18 3 -35 -3 -22 1 -32 16 -40 20
-11 25 -32 16 -79 -3 -13 -9 -20 -14 -17 -15 9 -12 -9 10 -65 11 -28 18 -56
15 -61 -4 -5 -3 -15 2 -21 4 -7 8 -31 8 -53 0 -35 3 -40 23 -39 22 1 26 -6 23
-38 -1 -10 4 -18 13 -18 10 0 16 -9 16 -25 0 -31 19 -110 36 -150 30 -71 53
-147 48 -160 -4 -9 7 -19 29 -28 19 -8 42 -25 50 -38 27 -38 63 -45 251 -48
l179 -3 43 -44 c24 -24 44 -47 44 -52 0 -5 10 -17 21 -28 12 -10 37 -42 55
-71 20 -30 54 -64 84 -84 58 -37 80 -67 80 -106 0 -44 82 -170 173 -268 26
-27 47 -54 47 -58 0 -10 161 -210 172 -215 4 -2 8 -10 8 -18 0 -8 3 -14 8 -14
4 0 13 -12 19 -28 7 -15 43 -59 81 -97 70 -71 158 -180 182 -225 7 -14 32 -45
56 -70 23 -25 55 -61 70 -80 16 -19 52 -59 80 -90 90 -97 204 -239 246 -306
15 -22 32 -47 40 -55 25 -25 75 -122 98 -189 34 -99 73 -176 142 -280 34 -52
65 -97 69 -100 21 -18 149 -264 149 -289 0 -6 4 -19 10 -29 15 -28 70 -198 87
-270 8 -37 19 -121 23 -187 7 -103 31 -255 69 -435 5 -25 17 -92 25 -150 64
-417 80 -616 71 -890 -6 -207 -43 -592 -65 -675 -6 -22 -15 -62 -19 -90 -18
-105 -43 -219 -62 -283 -11 -37 -26 -89 -34 -117 -21 -70 -53 -598 -70 -1155
-9 -269 -44 -726 -78 -1025 -9 -71 -20 -209 -26 -305 -23 -360 -34 -448 -82
-620 -8 -31 -29 -132 -60 -290 -6 -30 -23 -95 -38 -145 -49 -157 -112 -373
-147 -500 -15 -55 -32 -111 -39 -125 -7 -14 -23 -56 -35 -95 -13 -38 -43 -112
-67 -163 -23 -52 -43 -98 -43 -103 0 -5 -4 -17 -10 -27 -31 -57 -96 -198 -120
-262 -16 -41 -50 -129 -75 -195 -26 -66 -71 -183 -100 -260 -137 -356 -303
-710 -405 -860 -15 -22 -39 -62 -53 -90 -14 -27 -33 -59 -42 -70 -8 -11 -42
-60 -75 -110 -146 -219 -350 -509 -408 -580 -37 -45 -143 -189 -166 -225 -30
-46 -88 -120 -141 -178 -72 -80 -299 -219 -460 -282 -77 -31 -82 -34 -96 -78
-22 -67 -89 -160 -169 -235 -84 -80 -149 -120 -245 -156 -53 -20 -71 -22 -155
-15 -52 3 -115 13 -140 20 -67 20 -78 18 -124 -27 -24 -22 -66 -57 -94 -79
-29 -21 -59 -45 -68 -54 -8 -9 -19 -16 -24 -16 -5 0 -38 -29 -73 -65 -44 -43
-70 -78 -79 -107 -12 -36 -22 -47 -61 -66 -31 -15 -51 -32 -58 -50 -14 -39
-120 -241 -154 -298 -68 -109 -101 -150 -190 -241 -55 -55 -131 -135 -168
-177 -38 -42 -73 -76 -78 -76 -10 0 -60 -33 -94 -62 -12 -10 -30 -19 -40 -21
-109 -21 -188 -46 -294 -94 -40 -18 -82 -31 -91 -28 -10 3 -21 1 -25 -5 -38
-62 -295 165 -295 262 0 16 -5 28 -13 28 -27 0 -93 39 -124 74 -111 127 -158
202 -151 248 2 19 9 23 35 23 18 0 38 6 44 13 7 6 23 12 36 12 29 0 29 20 0
53 -16 19 -31 26 -52 25 -17 -1 -57 1 -90 5 -57 7 -59 6 -30 -8 17 -8 48 -15
70 -16 35 -1 37 -2 15 -9 -36 -12 -104 -12 -135 0 -72 27 -120 145 -120 296 0
81 3 106 17 120 9 11 26 53 37 94 11 41 38 120 60 176 22 55 47 143 56 194 9
52 18 97 20 101 8 11 13 99 6 99 -3 0 -12 -13 -19 -30 -8 -16 -19 -30 -25 -30
-6 0 -20 -8 -31 -19 -34 -30 -103 -64 -119 -58 -20 8 -27 53 -27 178 0 312 83
484 270 555 153 59 270 117 270 134 0 4 -33 18 -72 30 -203 62 -352 111 -363
120 -5 5 -46 23 -90 40 -44 17 -85 36 -92 42 -7 5 -50 29 -95 52 -195 98 -379
222 -499 338 -252 241 -428 420 -474 483 -17 22 -35 45 -41 50 -6 6 -18 21
-27 34 -16 23 -103 124 -167 192 -42 45 -62 69 -105 125 -47 62 -132 162 -163
194 -22 21 -50 90 -57 135 -3 22 -2 81 3 130 5 50 5 100 1 112 -4 12 -29 36
-56 54 -26 19 -96 81 -154 139 -59 58 -136 131 -170 163 -92 83 -169 220 -171
302 0 57 -17 147 -28 155 -10 6 6 548 19 660 10 82 14 123 46 420 8 74 19 162
24 195 5 33 15 110 21 170 6 61 15 133 20 160 4 28 13 77 19 110 5 33 21 137
35 230 14 94 33 204 41 245 9 41 22 107 30 145 8 39 21 97 30 130 9 33 23 89
30 125 12 57 45 188 76 300 5 19 14 58 19 85 13 62 82 292 162 538 12 39 20
98 23 175 2 64 9 164 15 222 7 58 15 139 20 180 10 95 36 285 87 640 8 58 12
134 10 170 -3 36 -12 151 -21 255 -18 225 -21 629 -5 770 20 172 72 364 174
635 84 224 92 244 123 310 60 129 92 200 92 206 0 8 223 458 245 494 8 14 44
86 79 160 64 135 96 231 96 288 0 31 15 114 30 167 64 227 93 309 154 434 20
41 36 80 36 88 0 7 5 13 10 13 6 0 10 6 10 14 0 21 19 53 84 141 79 106 124
153 226 238 47 39 87 74 90 77 3 4 25 21 50 38 25 18 70 53 100 77 103 84 175
132 255 172 79 39 114 51 325 114 58 17 139 42 180 55 41 13 83 24 93 24 25 0
21 -17 -5 -24 -19 -5 -21 -8 -8 -16 8 -5 25 -10 38 -10 13 0 30 -7 38 -15 13
-13 12 -17 -6 -35 -11 -11 -20 -24 -20 -30 0 -19 -2 -25 -16 -45 -8 -11 -14
-39 -14 -63 0 -41 1 -43 28 -40 36 4 56 61 48 135 -4 36 -2 53 7 56 9 4 9 8 0
14 -6 4 -12 26 -14 48 -2 33 3 46 29 73 33 35 46 87 41 158 -5 49 10 309 19
349 6 26 7 23 13 -25 l6 -55 2 50 c2 47 2 49 15 26 13 -24 13 -24 20 13 5 26
15 40 32 48 30 14 31 31 2 51 -20 13 -21 18 -11 36 9 13 10 28 4 44 -5 12 -7
37 -5 54 2 22 -2 35 -12 41 -23 13 -13 46 14 50 12 2 34 -5 50 -16 21 -16 38
-19 75 -15 30 4 47 2 47 -5 0 -6 19 -11 43 -12 23 0 118 -2 211 -4 99 -1 200
2 245 9 42 7 82 10 88 8 7 -3 28 5 48 17 27 17 34 18 29 6 -12 -30 41 -17 100
24 64 45 66 46 66 25 0 -19 0 -19 39 1 18 9 47 18 65 19 23 2 32 8 34 25 3 16
9 21 22 17 11 -3 25 2 31 9 8 9 22 13 38 9 21 -4 32 2 59 35 l33 40 -27 11
c-20 7 -42 7 -75 -1 -26 -6 -53 -12 -61 -14 -9 -1 -23 -9 -32 -19 -10 -9 -23
-17 -29 -18 -57 -3 -127 -26 -127 -41 0 -5 -7 -8 -15 -8 -8 0 -15 9 -15 21 0
11 -5 30 -11 41 -9 17 -13 18 -20 7 -5 -8 -9 -26 -9 -40 0 -28 -30 -69 -49
-69 -7 0 -9 5 -5 12 5 8 2 9 -9 5 -9 -3 -19 -2 -22 4 -4 5 4 13 17 18 21 8 20
9 -14 16 -22 4 -43 16 -52 30 -20 30 -44 24 -76 -20 -14 -19 -30 -35 -37 -35
-7 0 -16 -6 -20 -13 -9 -16 -37 -28 -73 -33 -14 -2 -38 -5 -55 -7 -92 -14 -90
-14 -89 16 1 27 -1 29 -30 23 -17 -3 -41 -17 -52 -30 l-22 -25 -5 25 c-2 13
-1 24 3 24 9 0 0 62 -12 78 -16 19 -25 14 -31 -15 -3 -16 1 -32 9 -40 18 -18
18 -53 1 -53 -8 0 -20 12 -28 28 -8 15 -20 31 -26 35 -7 4 -13 19 -13 33 0 14
-4 22 -10 19 -14 -8 -13 -41 2 -65 15 -24 1 -41 -15 -19 -7 9 -23 20 -37 24
-14 4 -28 13 -32 19 -5 8 -11 7 -20 -2 -9 -9 -9 -12 0 -12 7 0 12 -4 12 -10 0
-19 -16 -10 -34 21 -13 22 -24 29 -38 26 -14 -4 -18 -2 -14 9 3 9 -1 14 -13
14 -10 0 -21 -6 -24 -14 -10 -24 -74 -27 -112 -4 -20 11 -32 25 -28 31 5 8 8
7 11 -1 3 -10 7 -10 18 -1 11 9 18 9 29 -1 13 -11 15 -8 15 15 0 26 -2 27 -40
22 -27 -3 -40 -1 -40 6 0 7 -8 3 -16 -8 -13 -17 -17 -18 -27 -5 -7 8 -19 15
-27 15 -10 0 -15 10 -16 30 -1 17 -7 42 -14 55 l-13 24 -9 -23 c-5 -15 -4 -28
3 -37 9 -11 8 -14 -5 -14 -18 0 -26 13 -30 54 -4 36 -14 43 -30 21 -13 -18
-16 -15 -41 35 -41 85 -67 159 -60 171 4 6 4 31 0 57 -5 36 -9 43 -16 29 -6
-9 -14 -17 -18 -17 -12 0 -30 49 -33 90 -1 21 -12 44 -25 57 -13 12 -23 31
-23 43 0 12 -6 33 -14 48 -8 15 -19 50 -25 77 -6 28 -17 82 -25 120 -43 203
-60 417 -59 740 1 143 6 301 11 350 6 50 14 122 18 160 3 39 11 76 17 84 12
14 18 60 18 117 -1 28 3 32 32 37 20 3 54 -4 92 -18 240 -92 390 -114 550 -80
72 15 98 9 71 -18 -9 -9 -16 -20 -16 -25 0 -5 -11 -21 -25 -37 -20 -21 -23
-30 -14 -41 15 -18 40 -18 33 0 -3 8 8 23 25 36 17 12 31 28 31 36 0 8 7 17
16 21 11 4 13 13 9 34 -5 22 -3 29 9 29 9 0 16 8 16 20 0 10 6 23 13 27 7 4
19 27 27 51 7 23 19 47 27 53 7 6 13 24 13 40 0 19 6 30 20 34 11 3 20 13 20
20 0 8 8 20 18 27 10 7 31 34 46 60 15 25 33 52 41 58 8 7 15 19 15 27 0 8 9
26 20 40 11 14 20 34 20 45 0 21 54 50 80 43 8 -2 25 -6 37 -10z m1452 -150
c0 -11 -6 -29 -14 -39 -13 -18 -15 -18 -21 -2 -4 10 -1 36 7 58 10 33 14 37
20 22 4 -11 8 -28 8 -39z m141 -45 c0 -5 -8 -10 -17 -10 -15 0 -16 2 -3 10 19
12 20 12 20 0z m935 -440 c3 -5 17 -10 30 -10 14 0 32 -11 45 -27 30 -38 23
-75 -33 -193 -29 -61 -51 -127 -62 -185 -18 -93 -36 -146 -110 -325 -24 -58
-51 -125 -61 -150 -10 -25 -28 -61 -40 -80 -13 -19 -26 -47 -29 -61 -11 -44
-64 -98 -122 -124 -47 -22 -71 -26 -173 -28 -78 -1 -115 -5 -110 -12 9 -11
-11 -45 -28 -45 -5 0 -10 -16 -9 -36 1 -36 -17 -58 -40 -49 -6 2 -14 -1 -17
-8 -4 -7 -4 5 -2 27 3 21 11 46 19 55 22 26 37 92 26 112 -13 25 -9 168 5 194
6 11 17 28 25 38 24 29 44 89 46 137 1 25 5 54 10 65 4 11 19 49 33 84 24 63
56 106 79 106 24 0 80 89 87 139 4 26 21 70 38 97 25 42 33 48 54 43 17 -5 26
-1 32 12 23 55 48 84 69 81 27 -4 63 -35 63 -56 1 -10 7 -5 16 12 l16 29 29
-29 c15 -15 31 -43 35 -62 l7 -33 17 28 c23 36 37 139 21 148 -8 5 -6 16 6 37
18 30 17 31 -4 49 -12 9 -19 20 -16 24 10 10 41 7 48 -4z m-62 -187 c-4 -10
-8 -9 -19 2 -17 17 -18 57 -1 74 10 10 13 5 18 -26 4 -21 4 -43 2 -50z m-709
-680 c-15 -24 -34 -28 -34 -6 0 26 21 46 34 33 7 -7 7 -16 0 -27z m-150 -441
c7 -12 -50 -76 -62 -68 -15 9 -4 36 15 36 9 0 13 6 10 14 -3 8 -3 17 0 20 9 8
31 7 37 -2z m-444 -602 c0 -5 -4 -10 -10 -10 -5 0 -10 5 -10 10 0 6 5 10 10
10 6 0 10 -4 10 -10z m470 -45 c0 -8 -7 -15 -15 -15 -8 0 -15 7 -15 15 0 8 7
15 15 15 8 0 15 -7 15 -15z m-13694 -74 c21 -7 48 -16 59 -21 11 -5 38 -16 60
-25 68 -27 130 -73 158 -116 23 -35 27 -52 28 -116 1 -69 -3 -83 -37 -149
l-38 -74 23 -127 c42 -236 60 -316 79 -350 6 -12 12 -53 12 -92 0 -63 -4 -79
-41 -148 -22 -43 -47 -86 -56 -96 -35 -38 -132 -88 -182 -94 -60 -7 -179 11
-253 38 -76 28 -185 110 -201 152 -3 9 -15 17 -26 17 -11 0 -23 5 -26 10 -9
15 -75 12 -75 -3 0 -13 -24 -28 -62 -41 -12 -3 -18 0 -18 9 0 9 -10 15 -24 15
-14 0 -28 5 -31 10 -3 6 -15 10 -26 10 -11 0 -34 13 -50 29 -16 16 -29 25 -29
20 0 -6 -4 -7 -10 -4 -5 3 -10 28 -10 55 0 48 2 50 36 65 46 19 216 24 222 7
7 -23 58 25 69 65 7 23 10 112 8 227 -2 104 1 214 6 245 5 31 14 106 19 168
13 167 52 238 167 303 42 24 56 27 128 25 45 -1 99 -8 121 -14z m13014 -81 c0
-5 -5 -10 -11 -10 -5 0 -7 5 -4 10 3 6 8 10 11 10 2 0 4 -4 4 -10z m-630 -140
c0 -5 -4 -10 -10 -10 -5 0 -10 5 -10 10 0 6 5 10 10 10 6 0 10 -4 10 -10z
m-220 -17 c0 -5 -5 -15 -10 -23 -8 -12 -10 -11 -10 8 0 12 5 22 10 22 6 0 10
-3 10 -7z m70 -18 c0 -8 -7 -15 -15 -15 -23 0 -18 -18 8 -23 16 -3 13 -5 -10
-6 -37 -1 -41 10 -15 38 21 24 32 26 32 6z m-385 -35 c3 -5 1 -10 -4 -10 -6 0
-11 5 -11 10 0 6 2 10 4 10 3 0 8 -4 11 -10z m-11565 -5170 c10 -5 26 -30 36
-55 12 -32 24 -47 41 -51 15 -4 29 -19 38 -42 9 -19 26 -45 38 -58 31 -31 48
-89 36 -121 -5 -13 -9 -55 -9 -93 0 -38 -5 -91 -11 -118 -10 -40 -18 -52 -45
-67 -18 -10 -31 -21 -29 -26 3 -4 1 -10 -5 -14 -5 -3 -10 -1 -10 4 0 6 -18 11
-39 11 -23 0 -41 5 -44 13 -3 7 -23 19 -46 27 -50 16 -92 67 -89 108 2 27 -7
58 -38 129 -16 36 -19 123 -4 123 6 0 10 7 10 15 0 8 4 15 9 15 5 0 15 17 22
38 6 20 16 43 22 50 5 7 11 26 13 42 8 66 53 97 104 70z m11583 -16666 c27
-16 25 -69 -3 -99 -13 -14 -28 -25 -34 -25 -36 1 -80 106 -57 134 12 14 63 9
94 -10z m-164 -230 c12 -15 21 -31 21 -36 0 -6 10 -24 22 -41 64 -90 75 -156
32 -196 -17 -17 -36 -24 -60 -23 -31 1 -47 -12 -24 -20 17 -6 -11 -86 -46
-126 -38 -45 -73 -47 -95 -6 -10 20 -10 29 2 51 20 39 58 74 77 72 43 -4 47 0
50 54 2 43 -3 63 -28 110 -30 56 -38 112 -24 165 9 31 47 29 73 -4z m-309
-569 c0 -2 -9 -9 -20 -15 -22 -12 -44 -5 -35 11 6 9 55 13 55 4z m735 -80 c27
-25 55 -45 62 -45 6 0 13 -4 15 -9 4 -10 189 -87 303 -126 58 -20 107 -29 180
-32 116 -6 318 10 435 33 93 19 104 14 96 -43 -8 -56 -94 -215 -143 -265 -71
-72 -122 -90 -251 -87 -133 3 -206 17 -352 67 -150 51 -200 75 -256 125 -47
42 -144 171 -144 192 0 7 -7 26 -15 41 -10 19 -15 58 -15 112 0 100 10 104 85
37z m-365 -220 c7 -8 10 -25 6 -40 -5 -20 -12 -25 -40 -25 -19 0 -39 7 -47 16
-12 14 -9 20 16 40 35 28 48 30 65 9z m-13320 -45 c0 -13 -7 -20 -20 -20 -23
0 -26 10 -8 28 18 18 28 15 28 -8z m14998 -300 c2 -19 -9 -36 -50 -73 -84 -75
-208 -167 -237 -173 -14 -4 -31 -12 -36 -19 -16 -20 -78 -55 -97 -55 -10 0
-18 -4 -18 -10 0 -12 -37 -14 -43 -2 -11 16 87 102 117 102 8 0 36 18 63 40
118 97 171 142 217 180 53 45 79 48 84 10z m2560 -460 c17 -14 22 -25 17 -40
-5 -14 -2 -20 9 -20 12 0 16 -10 16 -40 l0 -40 -49 0 -50 0 -17 54 c-19 60
-15 82 18 96 31 12 30 12 56 -10z m442 -20 c0 -29 -4 -40 -15 -40 -11 0 -15
11 -15 40 0 29 4 40 15 40 11 0 15 -11 15 -40z m918 -87 l27 -28 -32 -3 c-21
-2 -33 -9 -33 -18 0 -10 -12 -14 -40 -14 -22 0 -40 5 -40 10 0 14 66 80 80 80
6 0 23 -12 38 -27z m62 -37 c0 -3 -4 -8 -10 -11 -5 -3 -10 -1 -10 4 0 6 5 11
10 11 6 0 10 -2 10 -4z m-19646 -177 c12 -15 20 -18 25 -10 5 7 17 1 36 -19
l29 -30 -32 0 c-25 0 -32 -4 -32 -20 0 -13 -7 -20 -19 -20 -10 0 -46 -3 -80
-6 -61 -7 -61 -7 -61 19 0 16 -6 27 -17 29 -12 3 0 13 37 32 30 16 57 32 58
37 6 16 37 9 56 -12z m25892 -36 c15 -16 15 -17 -2 -24 -14 -4 -20 -1 -22 12
-2 13 -14 19 -45 22 l-42 4 47 1 c32 1 52 -3 64 -15z m-742 -8 c3 -8 18 -15
33 -15 l28 0 -27 -26 c-21 -22 -35 -27 -78 -27 -43 0 -57 5 -78 27 l-27 26 33
0 c22 0 32 5 32 15 0 11 11 15 39 15 25 0 41 -5 45 -15z m-24724 -55 l0 -40
-40 0 -40 0 0 40 0 40 40 0 40 0 0 -40z m25420 37 c0 -2 -13 -16 -30 -32 l-30
-29 0 32 c0 29 3 32 30 32 17 0 30 -1 30 -3z m-13980 -62 c0 -11 -11 -15 -40
-15 -29 0 -40 4 -40 15 0 11 11 15 40 15 29 0 40 -4 40 -15z m7600 -5 c0 -5
-5 -10 -11 -10 -5 0 -7 5 -4 10 3 6 8 10 11 10 2 0 4 -4 4 -10z m-19650 -50
c0 -36 3 -40 25 -40 l25 0 0 -120 0 -120 -80 0 -80 0 0 120 0 120 40 0 40 0 0
40 c0 29 4 40 15 40 11 0 15 -11 15 -40z m25890 30 c0 -5 -7 -7 -15 -4 -8 4
-15 8 -15 10 0 2 7 4 15 4 8 0 15 -4 15 -10z m-21200 -55 c0 -11 -11 -15 -40
-15 -29 0 -40 4 -40 15 0 11 11 15 40 15 29 0 40 -4 40 -15z m-160 -55 c0 -29
-4 -40 -15 -40 -11 0 -15 11 -15 40 0 29 4 40 15 40 11 0 15 -11 15 -40z m-80
-20 c0 -13 -7 -20 -20 -20 -23 0 -26 10 -8 28 18 18 28 15 28 -8z m-80 -60 l0
-40 -60 0 c-33 0 -60 3 -60 8 0 4 9 22 20 40 17 27 25 32 60 32 l40 0 0 -40z
m20960 25 c0 -11 -11 -15 -39 -15 -25 0 -41 5 -45 15 -4 12 4 15 39 15 33 0
45 -4 45 -15z m3836 -62 c-10 -10 -19 5 -10 18 6 11 8 11 12 0 2 -7 1 -15 -2
-18z m-22141 7 c3 -5 1 -10 -4 -10 -6 0 -11 5 -11 10 0 6 2 10 4 10 3 0 8 -4
11 -10z m1646 -220 c14 0 19 -7 19 -27 0 -21 3 -24 12 -15 16 16 120 16 136 0
9 -9 12 -9 12 3 0 11 10 14 40 11 l40 -4 0 -45 c0 -38 -5 -50 -32 -75 -26 -24
-29 -31 -17 -39 12 -8 12 -10 -1 -19 -21 -14 -30 -12 -30 5 0 11 -11 15 -37
15 -47 0 -123 39 -123 62 0 16 -10 18 -80 18 l-80 0 0 -40 c0 -29 -4 -40 -15
-40 -11 0 -15 11 -15 40 0 22 -4 40 -10 40 -11 0 -13 70 -2 86 17 26 49 35
106 29 32 -3 67 -5 77 -5z m16979 -96 c0 -8 10 -14 25 -14 23 0 25 -4 25 -40
0 -29 4 -40 15 -40 11 0 15 -11 15 -40 l0 -40 -40 0 c-29 0 -40 4 -40 15 0 11
-11 15 -39 15 -52 0 -91 38 -91 89 0 55 25 77 83 73 32 -3 47 -9 47 -18z
m-9560 -71 c0 -50 -2 -55 -20 -50 -17 4 -20 0 -20 -24 0 -51 -27 -35 -33 19
-3 37 0 51 14 64 11 9 19 25 19 36 0 15 5 19 20 15 17 -5 20 -14 20 -60z
m-12170 16 c0 -52 -24 -48 -28 4 -2 28 1 37 12 37 12 0 16 -11 16 -41z m4130
1 c0 -5 18 -10 40 -10 29 0 40 -4 40 -15 0 -12 14 -15 65 -15 l65 0 0 -80 0
-80 -64 0 c-59 0 -65 -2 -68 -22 l-3 -23 -20 23 c-11 12 -25 22 -31 22 -15 0
-104 89 -104 104 0 6 -10 20 -22 31 l-23 20 65 6 c50 4 55 6 23 7 -36 2 -43 5
-43 22 0 17 7 20 40 20 22 0 40 -4 40 -10z m-2132 -12 c18 -18 15 -28 -8 -28
-13 0 -20 7 -20 20 0 23 10 26 28 8z m3772 -17 c0 -4 -8 -7 -19 -8 -14 -1 -17
3 -14 18 4 15 8 17 19 8 8 -6 14 -14 14 -18z m-1366 -77 c4 -11 30 -14 121
-14 l115 0 0 -40 c0 -22 5 -40 10 -40 6 0 10 -18 10 -40 0 -36 -2 -40 -25 -40
-16 0 -25 -6 -25 -15 0 -11 -11 -15 -40 -15 -29 0 -40 4 -40 15 0 11 -11 15
-35 15 -28 0 -42 7 -67 36 -27 31 -31 43 -29 80 2 35 -1 44 -13 44 -9 0 -16 8
-16 20 0 22 25 18 34 -6z m11696 -56 c0 -27 4 -38 15 -38 20 0 19 -37 -2 -48
-13 -8 -16 -22 -14 -61 1 -39 -1 -51 -12 -51 -8 0 -20 -7 -27 -15 -7 -9 -29
-15 -51 -15 l-39 0 0 95 c0 78 3 95 15 95 11 0 15 11 15 40 0 36 3 40 25 40
14 0 25 4 25 9 0 5 11 4 25 -2 20 -10 25 -19 25 -49z m-10290 27 c0 -11 -11
-15 -40 -15 -29 0 -40 4 -40 15 0 11 11 15 40 15 29 0 40 -4 40 -15z m14099
-65 c15 0 61 -49 61 -65 0 -8 7 -15 15 -15 11 0 15 -11 15 -40 0 -29 -4 -40
-15 -40 -11 0 -15 -12 -15 -45 l0 -45 -40 0 -40 0 0 54 c0 50 -3 56 -40 90
-32 29 -40 43 -40 71 0 27 4 35 18 35 10 0 26 10 36 22 l19 22 8 -22 c5 -12
13 -22 18 -22z m-7739 10 c0 -5 -4 -10 -10 -10 -5 0 -10 5 -10 10 0 6 5 10 10
10 6 0 10 -4 10 -10z m5298 -2 c82 -9 102 -15 102 -28 0 -8 8 -23 18 -31 16
-14 18 -25 12 -70 -6 -48 -5 -55 18 -77 18 -19 26 -22 32 -12 6 10 12 8 26 -9
20 -23 54 -29 54 -9 0 9 3 9 12 0 7 -7 25 -12 40 -12 l28 0 0 -120 0 -120 -65
0 -65 0 0 40 c0 29 -4 40 -15 40 -11 0 -15 13 -15 54 l0 54 -47 5 c-38 3 -52
0 -65 -14 -9 -11 -23 -19 -32 -19 -12 0 -16 -11 -16 -47 0 -39 5 -52 32 -80
l32 -33 -32 0 c-31 0 -32 -2 -32 -40 0 -39 1 -40 36 -40 19 0 42 -6 50 -14 7
-8 19 -17 26 -19 10 -4 9 -8 -2 -16 -21 -15 -30 -14 -30 4 0 11 -11 15 -40 15
-36 0 -40 -2 -40 -25 0 -16 -6 -25 -15 -25 -12 0 -15 16 -15 80 0 79 0 80 -25
80 -25 0 -25 -1 -25 -80 l0 -80 -40 0 -40 0 0 40 0 40 -40 0 c-36 0 -40 3 -40
25 0 25 -1 25 -80 25 -47 0 -80 -4 -80 -10 0 -5 -18 -10 -40 -10 -36 0 -40 3
-40 25 0 23 4 25 40 25 29 0 40 4 40 15 0 11 11 15 40 15 29 0 40 -4 40 -15 0
-9 9 -15 25 -15 23 0 25 4 25 40 0 29 4 40 15 40 11 0 15 -11 15 -40 l0 -40
80 0 80 0 0 40 0 40 -40 0 -40 0 0 80 0 80 40 0 40 0 0 40 0 40 -80 0 -80 0 0
58 c0 47 4 61 23 77 l22 20 -25 5 c-19 3 -15 6 20 11 25 3 52 7 60 8 8 0 61
-4 118 -11z m7153 -37 c-1 -24 -9 -51 -17 -58 -16 -17 -28 -58 -20 -71 3 -5
-8 -21 -23 -36 -19 -18 -30 -23 -33 -15 -3 10 -11 10 -38 1 -42 -15 -112 -15
-162 0 l-39 11 3 50 c3 46 6 52 38 70 19 10 52 32 72 48 20 16 47 29 60 29 13
0 30 5 38 10 8 6 40 9 70 8 l55 -3 -4 -44z m-1821 -11 c0 -39 -1 -40 -36 -40
-19 0 -44 -5 -55 -10 -13 -7 -19 -7 -19 0 0 5 -14 10 -31 10 l-31 0 33 39 c31
36 38 39 87 40 l52 1 0 -40z m-3763 -19 l32 -29 -29 -27 c-16 -15 -30 -37 -32
-49 -3 -19 -6 -17 -21 11 -9 18 -26 37 -37 43 -14 8 -20 21 -20 45 0 34 1 35
38 35 27 0 46 -8 69 -29z m-13564 2 c-13 -2 -33 -2 -45 0 -13 2 -3 4 22 4 25
0 35 -2 23 -4z m-6943 -63 c0 -29 -4 -40 -15 -40 -11 0 -15 11 -15 40 0 29 4
40 15 40 11 0 15 -11 15 -40z m16834 -26 c3 -9 -1 -14 -14 -14 -13 0 -20 7
-20 20 0 22 25 18 34 -6z m4206 -35 c0 -24 -23 -21 -28 4 -2 10 3 17 12 17 10
0 16 -9 16 -21z m3820 -8 c6 -16 19 -32 28 -36 26 -10 -5 -25 -50 -25 -43 0
-45 5 -21 55 20 43 27 44 43 6z m-4835 -49 l40 -8 -30 -29 -30 -30 -3 32 c-3
30 -6 32 -45 36 -38 3 -38 4 -7 5 19 0 53 -2 75 -6z m-16778 -34 c40 -39 41
-46 6 -50 l-28 -4 28 -14 c15 -7 27 -16 27 -19 0 -12 -62 -41 -87 -41 -14 0
-32 -8 -41 -19 -13 -14 -27 -17 -64 -14 l-48 5 0 69 0 69 40 0 c22 0 40 5 40
10 0 6 18 10 40 10 29 0 40 4 40 15 0 22 10 19 47 -17z m16383 -8 c0 -36 3
-40 25 -40 20 0 25 5 25 25 0 23 4 25 40 25 36 0 40 -2 40 -25 0 -25 1 -25 80
-25 l80 0 0 -40 c0 -37 2 -40 26 -40 26 0 26 -1 22 -51 -4 -42 -2 -53 13 -62
11 -7 19 -19 20 -27 0 -8 18 -30 40 -49 l39 -33 0 31 c0 30 2 31 40 31 l40 0
0 -40 0 -40 -40 0 c-39 0 -40 -1 -40 -34 0 -26 10 -43 46 -80 26 -25 52 -46
58 -46 6 0 17 -9 24 -20 9 -15 23 -20 57 -20 45 0 95 17 95 32 0 4 17 8 38 8
42 0 82 -34 84 -72 1 -22 53 -88 69 -88 4 0 9 10 11 23 l3 22 20 -22 c11 -13
27 -23 37 -23 10 0 18 -7 18 -15 0 -11 11 -15 40 -15 22 0 40 -4 40 -10 0 -5
18 -10 40 -10 29 0 40 -4 40 -15 0 -9 -9 -15 -25 -15 -22 0 -25 -4 -25 -40 0
-29 -4 -40 -15 -40 -11 0 -15 -11 -15 -40 0 -36 -2 -40 -25 -40 -22 0 -25 -4
-25 -40 0 -29 -4 -40 -15 -40 -8 0 -15 -7 -15 -15 0 -11 -11 -15 -40 -15 -29
0 -40 4 -40 15 0 8 -7 15 -15 15 -11 0 -15 11 -15 39 0 33 -4 40 -22 43 -19 2
-24 10 -26 41 -3 36 -4 37 -43 37 -28 0 -39 -4 -39 -15 0 -11 -11 -15 -40 -15
-29 0 -40 4 -40 15 0 11 -12 15 -47 15 -39 0 -51 -5 -68 -26 -21 -26 -22 -26
-153 -25 -113 2 -132 0 -132 -14 0 -22 -10 -19 -47 17 l-33 32 0 -32 c0 -31
-2 -32 -40 -32 -29 0 -40 4 -40 15 0 11 -11 15 -39 15 l-40 0 -3 -47 -3 -48
-32 33 -31 32 -126 0 -126 0 0 -25 c0 -18 -4 -23 -15 -19 -8 4 -15 15 -15 25
0 10 -4 19 -10 19 -5 0 -10 18 -10 40 0 29 -4 40 -15 40 -8 0 -15 -5 -15 -11
0 -5 -5 -7 -12 -3 -9 6 -9 9 0 12 7 2 12 25 12 58 l0 54 40 0 c36 0 40 3 40
25 0 23 4 25 40 25 l40 0 0 40 0 40 40 0 c29 0 40 4 40 15 0 11 -11 15 -40 15
-29 0 -40 -4 -40 -15 0 -11 -11 -15 -36 -15 -28 0 -43 8 -74 40 -21 22 -48 40
-59 40 -20 0 -21 6 -21 80 0 64 3 80 15 80 11 0 15 -11 15 -40 l0 -40 40 0
c36 0 40 3 40 25 0 23 4 25 40 25 36 0 40 -2 40 -25 0 -25 1 -25 80 -25 l80 0
0 40 0 40 -40 0 -40 0 0 40 0 40 -40 0 -40 0 0 160 0 160 95 0 95 0 0 -40z
m-16750 -25 c0 -11 -11 -15 -40 -15 -29 0 -40 4 -40 15 0 11 11 15 40 15 29 0
40 -4 40 -15z m18402 -55 c3 -47 0 -53 -32 -85 -39 -38 -50 -43 -50 -20 0 9
-9 15 -25 15 -20 0 -25 5 -25 25 0 16 -6 25 -15 25 -23 0 -18 33 8 55 27 25
51 33 99 34 l36 1 4 -50z m-13282 0 l0 -40 -40 0 -40 0 0 40 0 40 40 0 40 0 0
-40z m9200 -25 c0 -9 9 -15 25 -15 23 0 25 -4 25 -40 l0 -40 -65 0 -65 0 0 55
0 55 40 0 c29 0 40 -4 40 -15z m8269 -56 l33 -39 -46 0 -46 0 0 40 c0 51 15
50 59 -1z m-3485 25 c21 -8 20 -40 -1 -48 -9 -4 -23 0 -31 8 -13 12 -13 18 -2
30 14 18 13 18 34 10z m-464 -48 c0 -8 10 -16 22 -18 22 -3 22 -3 2 -22 -19
-20 -19 -20 -22 2 -2 14 -10 22 -23 22 -21 0 -26 16 -6 23 21 9 27 7 27 -7z
m825 -6 c3 -5 17 -10 31 -10 16 0 24 -6 24 -18 0 -10 10 -26 23 -37 l22 -19
-24 -6 c-13 -3 -41 -4 -62 -2 -38 4 -39 5 -39 43 0 29 -4 39 -16 39 -8 0 -12
5 -9 10 3 6 15 10 25 10 10 0 22 -4 25 -10z m-14665 -50 c0 -29 -4 -40 -15
-40 -11 0 -15 11 -15 40 0 29 4 40 15 40 11 0 15 -11 15 -40z m13760 0 c0 -29
-4 -40 -15 -40 -11 0 -15 11 -15 40 0 29 4 40 15 40 11 0 15 -11 15 -40z m180
36 c0 -3 -4 -8 -10 -11 -5 -3 -10 -1 -10 4 0 6 5 11 10 11 6 0 10 -2 10 -4z
m-3120 -80 c0 -3 -4 -8 -10 -11 -5 -3 -10 -1 -10 4 0 6 5 11 10 11 6 0 10 -2
10 -4z m-8740 -56 c0 -13 -7 -20 -20 -20 -23 0 -26 10 -8 28 18 18 28 15 28
-8z m14640 -75 l0 -75 -45 0 c-39 0 -47 4 -57 25 -15 33 17 105 47 105 11 0
27 5 35 10 8 5 16 10 18 10 1 0 2 -34 2 -75z m-19320 46 c0 -5 14 -14 30 -21
41 -17 60 -46 60 -92 l0 -38 -65 0 c-63 0 -65 1 -65 25 0 23 -4 25 -40 25 -35
0 -40 3 -40 22 0 33 58 88 92 88 15 0 28 -4 28 -9z m16200 -72 c0 -21 -4 -29
-12 -26 -80 34 -91 57 -28 57 38 0 40 -1 40 -31z m-2800 11 c0 -5 -5 -10 -11
-10 -5 0 -7 5 -4 10 3 6 8 10 11 10 2 0 4 -4 4 -10z m-10800 -30 c0 -13 -5
-17 -14 -14 -24 9 -28 34 -6 34 13 0 20 -7 20 -20z m10560 -20 l0 -40 40 0
c29 0 40 4 40 15 0 11 11 15 40 15 22 0 40 5 40 10 0 6 18 10 40 10 33 0 40
-3 40 -20 0 -11 -18 -36 -40 -56 -32 -29 -40 -43 -40 -70 0 -33 -1 -34 -40
-34 -36 0 -40 3 -40 25 0 25 0 25 -95 25 -88 0 -96 2 -120 26 -32 32 -28 64
13 107 21 22 34 27 74 27 l48 0 0 -40z m880 -25 c0 -11 -11 -15 -40 -15 -29 0
-40 4 -40 15 0 11 11 15 40 15 29 0 40 -4 40 -15z m-480 -20 c0 -22 -4 -25
-40 -25 -36 0 -40 3 -40 25 0 23 4 25 40 25 36 0 40 -2 40 -25z m-846 -9 c-9
-24 -34 -28 -34 -6 0 13 7 20 20 20 13 0 17 -5 14 -14z m1085 -28 l-4 -43 43
4 42 3 0 -121 c0 -101 -2 -121 -15 -121 -11 0 -15 -11 -15 -40 0 -29 4 -40 15
-40 8 0 15 -9 15 -19 0 -18 -9 -20 -120 -23 l-120 -3 0 70 c0 64 -2 71 -32
102 -18 18 -26 33 -19 33 10 0 12 18 6 81 l-7 82 28 -5 c29 -4 29 -3 25 39
l-3 43 82 0 82 0 -3 -42z m3043 -13 c4 -34 3 -35 -32 -34 -19 0 -53 3 -75 7
l-40 8 27 27 c21 21 36 27 71 27 44 0 45 -1 49 -35z m-2802 -30 c0 -22 -4 -25
-40 -25 -36 0 -40 3 -40 25 0 23 4 25 40 25 36 0 40 -2 40 -25z m-8880 -60 c0
-8 7 -15 15 -15 11 0 15 -11 15 -40 l0 -40 -55 0 -55 0 0 40 c0 23 -5 40 -11
40 -8 0 -8 5 1 15 7 9 29 15 51 15 28 0 39 -4 39 -15z m8080 -135 c0 -29 -4
-40 -15 -40 -11 0 -15 11 -15 40 0 29 4 40 15 40 11 0 15 -11 15 -40z m800
-25 c0 -11 -11 -15 -40 -15 -29 0 -40 4 -40 15 0 11 11 15 40 15 29 0 40 -4
40 -15z m-9280 -85 c0 -5 -5 -10 -11 -10 -5 0 -7 5 -4 10 3 6 8 10 11 10 2 0
4 -4 4 -10z m3200 -80 c0 -5 -5 -10 -11 -10 -5 0 -7 5 -4 10 3 6 8 10 11 10 2
0 4 -4 4 -10z m6960 -25 c0 -11 11 -15 40 -15 l40 0 0 -65 0 -65 -120 0 -120
0 0 40 0 40 40 0 40 0 0 40 0 40 40 0 c29 0 40 -4 40 -15z m840 -25 c0 -33 -3
-40 -20 -40 -17 0 -20 7 -20 40 0 33 3 40 20 40 17 0 20 -7 20 -40z m-7550
-25 c9 -10 9 -15 1 -15 -6 0 -11 -17 -11 -40 l0 -40 -80 0 -80 0 0 40 0 40 40
0 c29 0 40 4 40 15 0 11 11 15 39 15 22 0 44 -6 51 -15z m7573 -132 c-13 -2
-33 -2 -45 0 -13 2 -3 4 22 4 25 0 35 -2 23 -4z m-7731 -201 c-15 -5 -16 -82
-1 -82 8 0 8 -5 -1 -15 -7 -9 -29 -15 -51 -15 l-39 0 0 55 0 55 40 0 c22 0 40
5 40 11 0 5 5 7 12 3 9 -6 9 -9 0 -12z m657 -304 c10 -28 4 -48 -15 -48 -9 0
-14 12 -14 35 0 39 16 47 29 13z m-269 -138 l0 -40 40 0 40 0 0 -40 0 -40 -40
0 -40 0 0 -40 c0 -29 -4 -40 -15 -40 -11 0 -15 11 -15 40 0 29 4 40 15 40 11
0 15 11 15 40 0 29 -4 40 -15 40 -11 0 -15 11 -15 40 0 29 4 40 15 40 11 0 15
-11 15 -40z m-400 -20 c0 -13 -7 -20 -20 -20 -23 0 -26 10 -8 28 18 18 28 15
28 -8z m320 -60 c0 -29 -4 -40 -15 -40 -11 0 -15 11 -15 40 0 29 4 40 15 40
11 0 15 -11 15 -40z"/>
<path d="M15120 32591 c0 -6 5 -13 10 -16 6 -3 10 1 10 9 0 9 -4 16 -10 16 -5
0 -10 -4 -10 -9z"/>
<path d="M15104 32572 c3 -6 -2 -13 -11 -15 -16 -4 -16 -5 -1 -6 21 -1 32 15
17 25 -7 4 -9 3 -5 -4z"/>
<path d="M15798 32553 c7 -3 16 -2 19 1 4 3 -2 6 -13 5 -11 0 -14 -3 -6 -6z"/>
<path d="M15911 32553 c0 -6 -13 -15 -28 -20 l-28 -10 29 -7 c34 -8 39 -5 33
26 -2 12 -5 18 -6 11z"/>
<path d="M15987 32527 c-18 -18 -18 -19 0 -32 33 -26 50 -11 30 27 -12 23 -13
23 -30 5z"/>
<path d="M14880 32355 c0 -8 2 -15 4 -15 2 0 6 7 10 15 3 8 1 15 -4 15 -6 0
-10 -7 -10 -15z"/>
<path d="M16540 32110 c0 -5 5 -10 10 -10 6 0 10 5 10 10 0 6 -4 10 -10 10 -5
0 -10 -4 -10 -10z"/>
<path d="M14625 31910 c-3 -5 -1 -10 4 -10 6 0 11 5 11 10 0 6 -2 10 -4 10 -3
0 -8 -4 -11 -10z"/>
<path d="M15041 31424 c0 -11 3 -14 6 -6 3 7 2 16 -1 19 -3 4 -6 -2 -5 -13z"/>
<path d="M16140 31340 c-19 -5 -74 -11 -122 -13 -82 -5 -89 -8 -123 -40 -41
-39 -39 -57 5 -57 16 0 32 -5 35 -11 5 -7 12 -6 23 4 24 21 162 31 162 12 0
-23 35 -36 64 -25 16 6 27 6 31 0 4 -6 36 -10 72 -10 53 0 79 -6 131 -31 39
-18 74 -28 86 -25 20 5 71 -6 107 -24 8 -4 28 -6 43 -3 26 5 26 6 10 24 -10
11 -31 19 -51 19 -26 0 -33 4 -33 19 0 10 -7 21 -15 25 -8 3 -15 1 -15 -4 0
-6 -6 -10 -13 -10 -15 0 -52 41 -49 55 2 14 -46 36 -54 24 -7 -12 -51 -1 -90
22 -21 13 -34 15 -41 8 -6 -6 -22 -7 -38 -3 -17 4 -23 9 -15 14 11 7 0 13 -60
33 -8 3 -31 1 -50 -3z m420 -170 c0 -5 -5 -10 -11 -10 -5 0 -7 5 -4 10 3 6 8
10 11 10 2 0 4 -4 4 -10z"/>
<path d="M15846 31297 c-11 -8 -17 -18 -15 -24 2 -5 15 1 29 13 26 26 16 33
-14 11z"/>
<path d="M16625 31200 c-3 -5 -2 -10 4 -10 5 0 13 5 16 10 3 6 2 10 -4 10 -5
0 -13 -4 -16 -10z"/>
<path d="M16706 31111 c-3 -5 1 -11 9 -15 9 -3 15 0 15 9 0 16 -16 20 -24 6z"/>
<path d="M16640 31100 c0 -5 7 -10 15 -10 8 0 15 5 15 10 0 6 -7 10 -15 10 -8
0 -15 -4 -15 -10z"/>
<path d="M16690 31071 c0 -6 15 -11 34 -11 19 0 38 -4 41 -10 10 -15 35 -12
35 5 0 10 -10 15 -32 15 -18 0 -43 3 -55 6 -14 4 -23 2 -23 -5z"/>
<path d="M14563 31143 c15 -2 39 -2 55 0 15 2 2 4 -28 4 -30 0 -43 -2 -27 -4z"/>
<path d="M14538 31120 c18 -4 43 -5 54 -2 14 3 19 1 14 -6 -3 -6 -31 -16 -61
-23 -59 -13 -130 -70 -120 -97 3 -7 5 -51 5 -97 l0 -84 36 -7 c20 -4 40 -2 46
4 6 6 11 47 12 93 3 81 4 83 36 111 25 20 29 28 17 28 -26 0 -20 24 10 38 15
6 32 12 38 12 18 0 14 29 -4 34 -9 2 -38 4 -66 4 -45 0 -47 -1 -17 -8z"/>
<path d="M14690 31079 c-12 -8 -10 -9 8 -4 21 6 22 4 16 -22 -4 -15 -11 -38
-15 -51 -13 -34 -11 -59 7 -100 30 -69 26 -67 100 -67 76 0 94 11 120 72 30
69 2 131 -61 138 -15 1 -30 8 -34 14 -16 26 -113 40 -141 20z m155 -99 c7 -12
-12 -40 -26 -40 -10 0 -12 34 -2 43 9 10 21 9 28 -3z"/>
<path d="M16128 30829 c-23 -25 -28 -39 -28 -84 0 -54 16 -105 32 -105 5 0 6
-4 3 -10 -3 -6 4 -10 17 -10 14 0 33 -7 44 -15 31 -23 51 -18 99 26 35 32 45
50 51 85 4 28 11 44 20 44 25 0 15 30 -13 41 -15 6 -31 16 -35 22 -6 9 -8 9
-8 0 0 -7 -9 -13 -20 -13 -11 0 -20 5 -20 11 0 8 -17 10 -55 6 -57 -6 -74 6
-32 23 22 9 22 9 -3 9 -15 0 -36 -12 -52 -30z m100 -87 c3 -18 -2 -22 -22 -22
-30 0 -31 3 -14 30 16 25 32 21 36 -8z"/>
<path d="M16400 30740 c0 -23 52 -100 67 -100 7 0 13 -8 14 -17 0 -15 2 -15 9
2 15 34 12 75 -5 75 -19 0 -56 20 -72 40 -11 13 -12 13 -13 0z"/>
<path d="M15080 30659 c0 -5 5 -7 10 -4 6 3 10 8 10 11 0 2 -4 4 -10 4 -5 0
-10 -5 -10 -11z"/>
<path d="M14766 30265 c-9 -14 -13 -25 -9 -25 12 1 46 50 35 50 -6 0 -17 -11
-26 -25z"/>
<path d="M14953 30018 c3 -10 2 -18 -3 -18 -6 0 -10 -9 -10 -20 0 -13 7 -20
20 -20 15 0 19 6 18 26 -2 14 -9 31 -17 37 -12 10 -14 9 -8 -5z"/>
<path d="M15276 29991 c-6 -9 63 -91 76 -91 4 0 4 16 1 36 -6 34 -5 35 22 28
20 -5 26 -4 21 5 -4 6 -14 11 -22 11 -8 0 -14 5 -14 10 0 12 -77 13 -84 1z"/>
<path d="M15440 29915 c0 -9 6 -12 15 -9 8 4 15 7 15 9 0 2 -7 5 -15 9 -9 3
-15 0 -15 -9z"/>
<path d="M14553 29303 c-7 -15 -13 -36 -13 -47 0 -23 20 -60 20 -38 0 6 11 12
24 12 13 0 28 6 34 13 6 7 23 14 39 15 15 1 33 8 38 15 6 7 24 18 40 26 30 13
30 13 7 24 -16 7 -33 6 -63 -3 -32 -11 -47 -11 -73 -2 -42 15 -39 16 -53 -15z"/>
<path d="M16960 29150 c0 -5 5 -10 11 -10 5 0 7 5 4 10 -3 6 -8 10 -11 10 -2
0 -4 -4 -4 -10z"/>
<path d="M16166 28245 c-21 -32 -20 -34 9 -30 33 3 38 9 30 34 -8 28 -19 26
-39 -4z"/>
<path d="M14460 27060 c0 -5 5 -10 10 -10 6 0 10 5 10 10 0 6 -4 10 -10 10 -5
0 -10 -4 -10 -10z"/>
<path d="M12080 16553 c0 -12 54 -43 75 -43 11 0 15 7 13 23 -2 18 -10 23 -45
25 -24 2 -43 -1 -43 -5z"/>
<path d="M12205 16520 c3 -5 8 -10 11 -10 2 0 4 5 4 10 0 6 -5 10 -11 10 -5 0
-7 -4 -4 -10z"/>
<path d="M12185 16480 c3 -5 11 -10 16 -10 6 0 7 5 4 10 -3 6 -11 10 -16 10
-6 0 -7 -4 -4 -10z"/>
<path d="M12352 16478 c3 -7 13 -15 24 -17 16 -3 17 -1 5 13 -16 19 -34 21
-29 4z"/>
<path d="M12410 16455 c0 -8 5 -15 10 -15 6 0 10 7 10 15 0 8 -4 15 -10 15 -5
0 -10 -7 -10 -15z"/>
<path d="M12412 16281 c16 -25 41 -28 36 -3 -2 9 -14 18 -26 20 -21 3 -22 2
-10 -17z"/>
<path d="M12540 16170 c0 -5 5 -10 10 -10 6 0 10 5 10 10 0 6 -4 10 -10 10 -5
0 -10 -4 -10 -10z"/>
<path d="M12786 16162 c-10 -30 -3 -36 29 -28 29 7 34 26 6 26 -11 0 -21 6
-24 13 -2 6 -7 2 -11 -11z"/>
<path d="M12592 16129 c2 -7 10 -15 17 -17 8 -3 12 1 9 9 -2 7 -10 15 -17 17
-8 3 -12 -1 -9 -9z"/>
<path d="M15105 15390 c-3 -5 3 -10 14 -10 12 0 21 5 21 10 0 6 -6 10 -14 10
-8 0 -18 -4 -21 -10z"/>
<path d="M14838 15383 c7 -3 16 -2 19 1 4 3 -2 6 -13 5 -11 0 -14 -3 -6 -6z"/>
<path d="M14978 15333 c7 -3 16 -2 19 1 4 3 -2 6 -13 5 -11 0 -14 -3 -6 -6z"/>
<path d="M15220 15060 c0 -11 5 -20 10 -20 6 0 10 9 10 20 0 11 -4 20 -10 20
-5 0 -10 -9 -10 -20z"/>
<path d="M13774 12840 c3 -14 6 -28 6 -32 0 -5 5 -8 11 -8 12 0 2 39 -13 55
-7 7 -9 2 -4 -15z"/>
<path d="M14498 12510 c-29 -18 -178 -34 -191 -21 -26 26 -87 6 -87 -27 0 -12
14 -14 71 -10 57 4 69 3 65 -8 -4 -10 3 -14 20 -14 18 0 25 4 21 14 -5 11 2
13 30 10 27 -3 34 -1 30 9 -4 10 10 18 44 26 27 7 49 17 49 22 0 12 -30 11
-52 -1z"/>
<path d="M14190 12340 c0 -5 4 -10 9 -10 6 0 13 5 16 10 3 6 -1 10 -9 10 -9 0
-16 -4 -16 -10z"/>
<path d="M14508 12082 c-18 -3 -26 -32 -9 -32 10 0 36 29 30 33 -2 2 -12 2
-21 -1z"/>
<path d="M17585 30090 c3 -5 -1 -10 -9 -10 -9 0 -16 -4 -16 -10 0 -14 13 -13
28 2 15 15 15 28 1 28 -5 0 -7 -4 -4 -10z"/>
<path d="M23040 2385 c0 -11 11 -15 40 -15 29 0 40 4 40 15 0 11 -11 15 -40
15 -29 0 -40 -4 -40 -15z"/>
<path d="M23266 2172 c-4 -7 -20 -12 -37 -12 -24 0 -29 -4 -29 -25 0 -22 -4
-25 -40 -25 -36 0 -40 3 -40 25 0 23 -4 25 -40 25 l-40 0 0 -40 0 -40 -40 0
c-29 0 -40 -4 -40 -15 0 -12 16 -15 80 -15 64 0 80 3 80 15 0 11 11 15 40 15
l40 0 0 -80 0 -80 40 0 40 0 0 80 0 80 40 0 40 0 0 40 c0 40 0 40 -39 40 -22
0 -41 5 -43 12 -3 9 -6 9 -12 0z"/>
<path d="M2018 24853 c12 -2 30 -2 40 0 9 3 -1 5 -23 4 -22 0 -30 -2 -17 -4z"/>
<path d="M210 4600 c0 -29 4 -40 15 -40 8 0 15 -9 15 -20 0 -23 10 -26 28 -8
18 18 15 28 -8 28 -17 0 -20 7 -20 40 0 29 -4 40 -15 40 -11 0 -15 -11 -15
-40z"/>
<path d="M14770 4200 c0 -5 7 -10 15 -10 8 0 15 5 15 10 0 6 -7 10 -15 10 -8
0 -15 -4 -15 -10z"/>
<path d="M14735 3889 c-27 -5 -97 -13 -155 -18 -236 -23 -304 -32 -315 -41 -7
-5 -82 -12 -169 -16 -159 -5 -188 -8 -206 -19 -18 -11 -11 -35 10 -35 11 0 20
-6 20 -14 0 -7 9 -16 20 -19 12 -3 20 -14 20 -26 0 -20 5 -21 105 -20 l105 1
39 -41 c32 -33 46 -41 75 -41 19 0 51 -10 71 -22 26 -15 39 -18 44 -10 5 8 17
2 36 -18 26 -27 34 -30 94 -30 57 1 64 2 49 14 -10 7 -18 18 -18 25 0 6 8 11
18 11 9 0 30 7 45 15 27 14 30 13 63 -20 19 -20 32 -40 29 -46 -4 -5 -3 -43 0
-84 5 -54 11 -75 21 -75 10 0 14 -13 14 -40 0 -22 5 -40 10 -40 6 0 10 -18 10
-39 0 -28 -7 -45 -25 -62 -21 -20 -25 -33 -25 -81 0 -45 3 -58 15 -58 11 0 15
-11 15 -40 0 -29 -4 -40 -15 -40 -11 0 -15 -12 -15 -48 0 -40 5 -53 30 -77 16
-15 28 -32 27 -38 -1 -5 4 -12 11 -14 6 -3 12 3 12 12 0 14 8 16 48 13 42 -3
52 1 87 30 44 37 105 67 105 52 0 -6 20 -10 45 -10 41 0 115 -26 115 -40 0 -4
-15 -14 -32 -23 -21 -10 -27 -16 -15 -16 13 -1 17 -10 17 -41 l0 -40 -65 0
-65 0 0 -40 0 -40 -40 0 c-29 0 -40 -4 -40 -15 0 -11 11 -15 40 -15 29 0 40 4
40 15 0 11 11 15 40 15 36 0 40 -2 40 -25 0 -22 4 -25 39 -25 57 0 83 25 91
91 7 50 5 55 -21 80 -33 30 -36 39 -14 39 11 0 15 11 15 40 0 36 3 40 25 40
25 0 25 1 25 80 l0 80 -40 0 c-36 0 -40 2 -40 25 0 25 -2 26 -51 24 -35 -2
-53 2 -60 12 -6 10 -3 15 11 17 11 2 20 10 20 18 0 10 -12 14 -40 14 -29 0
-40 -4 -40 -15 0 -9 -9 -15 -25 -15 -22 0 -25 4 -25 40 0 44 -26 58 -32 18
l-3 -23 -20 23 c-11 12 -27 22 -37 22 -16 0 -18 11 -18 95 0 86 2 96 24 118
13 13 31 27 40 30 10 4 16 19 16 42 0 24 4 35 15 35 12 0 15 15 15 78 0 64 4
82 20 100 11 12 20 26 20 31 0 6 -19 30 -42 53 -24 24 -57 60 -75 81 -29 34
-35 37 -80 36 -26 -1 -70 -5 -98 -10z"/>
<path d="M1825 3590 c3 -5 8 -10 11 -10 2 0 4 5 4 10 0 6 -5 10 -11 10 -5 0
-7 -4 -4 -10z"/>
<path d="M13171 3479 c-24 -29 -29 -39 -17 -39 14 0 16 -16 16 -120 0 -119 0
-120 -24 -120 -21 0 -24 -5 -30 -61 -11 -105 -14 -99 54 -99 l60 0 0 40 c0 29
-4 40 -15 40 -13 0 -15 24 -15 160 l0 160 25 0 c23 0 25 4 25 40 0 35 -3 40
-22 39 -14 0 -37 -17 -57 -40z"/>
<path d="M1360 3465 c0 -20 -5 -25 -25 -25 -22 0 -25 -4 -25 -40 0 -29 -4 -40
-15 -40 -9 0 -15 -9 -15 -25 0 -22 -4 -25 -40 -25 -29 0 -40 -4 -40 -15 0 -9
-9 -15 -25 -15 -22 0 -25 -4 -25 -40 0 -22 5 -40 10 -40 6 0 10 -20 10 -44 0
-42 19 -74 28 -48 2 7 10 12 18 12 10 0 14 12 14 40 0 29 -4 40 -15 40 -23 0
-18 13 18 48 32 31 36 32 120 32 86 0 87 0 87 25 0 23 4 25 40 25 l40 0 0 80
0 80 -80 0 c-79 0 -80 0 -80 -25z"/>
<path d="M2040 3432 c0 -10 22 -32 32 -32 4 0 8 9 8 20 0 13 -7 20 -20 20 -11
0 -20 -4 -20 -8z"/>
<path d="M5390 3240 c0 -38 -2 -40 -30 -40 -28 0 -30 -2 -30 -40 0 -29 4 -40
15 -40 11 0 15 -11 15 -40 l0 -40 40 0 c29 0 40 -4 40 -15 0 -11 11 -15 40
-15 36 0 40 -2 40 -25 0 -17 5 -25 18 -25 10 0 26 -10 37 -22 l20 -23 3 63 c3
58 4 62 27 62 22 0 25 4 25 40 0 36 -2 40 -25 40 -25 0 -25 1 -25 80 l0 80
-105 0 -105 0 0 -40z"/>
<path d="M15520 3254 c0 -26 -1 -26 -50 -22 -43 4 -53 2 -65 -16 -8 -11 -15
-37 -15 -58 0 -27 -4 -38 -15 -38 -9 0 -15 9 -15 25 0 23 -4 25 -40 25 l-40 0
0 -50 0 -50 40 0 c29 0 40 -4 40 -15 0 -11 11 -15 40 -15 29 0 40 4 40 15 0
11 11 15 40 15 29 0 40 -4 40 -15 0 -8 7 -15 15 -15 11 0 15 11 15 40 0 36 3
40 25 40 33 0 32 7 -7 47 l-32 33 32 0 c31 0 32 2 32 40 l0 40 -40 0 c-37 0
-40 -2 -40 -26z"/>
<path d="M1486 3218 c-9 -12 -16 -38 -16 -58 0 -34 3 -37 57 -60 32 -14 66
-26 77 -26 10 -1 23 -9 28 -17 5 -10 21 -16 41 -15 35 1 87 -39 87 -67 0 -11
12 -15 39 -15 37 0 40 -2 43 -32 l3 -33 38 37 c20 21 37 42 37 48 0 5 16 10
35 10 19 0 58 9 87 20 29 11 64 20 78 20 57 0 70 10 70 51 0 28 -4 39 -15 39
-8 0 -15 8 -15 18 0 25 -71 62 -119 62 -34 0 -41 3 -41 20 0 17 -7 20 -47 20
-30 0 -60 -7 -80 -20 -33 -19 -33 -19 -68 1 -32 19 -45 21 -120 14 -63 -5 -85
-10 -85 -21 0 -10 -12 -14 -40 -14 -33 0 -40 3 -40 20 0 26 -15 25 -34 -2z
m674 -168 c0 -5 -7 -10 -16 -10 -8 0 -12 5 -9 10 3 6 10 10 16 10 5 0 9 -4 9
-10z"/>
<path d="M695 3210 c-3 -5 1 -10 9 -10 9 0 16 5 16 10 0 6 -4 10 -9 10 -6 0
-13 -4 -16 -10z"/>
<path d="M12865 3210 c-3 -5 -1 -10 4 -10 6 0 11 5 11 10 0 6 -2 10 -4 10 -3
0 -8 -4 -11 -10z"/>
<path d="M13985 3190 c3 -5 8 -10 11 -10 2 0 4 5 4 10 0 6 -5 10 -11 10 -5 0
-7 -4 -4 -10z"/>
<path d="M440 3112 c0 -10 22 -32 32 -32 4 0 8 9 8 20 0 13 -7 20 -20 20 -11
0 -20 -4 -20 -8z"/>
<path d="M13440 3101 c0 -6 -17 -11 -40 -11 -36 0 -40 -2 -40 -25 0 -22 -4
-25 -40 -25 -29 0 -40 -4 -40 -15 0 -12 20 -15 120 -15 100 0 120 3 120 15 0
8 -8 15 -17 15 -17 1 -17 1 0 11 24 14 21 36 -7 43 -13 3 -31 9 -40 12 -9 3
-16 1 -16 -5z"/>
<path d="M480 2985 c0 -44 -4 -59 -25 -79 -18 -19 -25 -36 -25 -66 0 -38 -2
-40 -30 -40 -28 0 -30 -2 -30 -40 0 -29 4 -40 15 -40 12 0 15 -16 15 -80 0
-64 3 -80 15 -80 11 0 15 11 15 40 0 34 3 40 21 40 11 0 38 19 60 41 l40 41
82 -4 c45 -3 65 -3 45 -1 -37 4 -38 5 -38 44 l0 39 80 0 80 0 0 40 0 40 -40 0
-40 0 0 40 c0 39 -1 40 -35 40 -28 0 -42 8 -71 40 -33 36 -41 40 -85 40 l-49
0 0 -55z"/>
<path d="M4865 2950 c3 -5 8 -10 11 -10 2 0 4 5 4 10 0 6 -5 10 -11 10 -5 0
-7 -4 -4 -10z"/>
<path d="M14480 2920 c0 -32 4 -40 18 -40 9 0 23 -9 30 -20 16 -25 32 -26 32
-1 0 15 8 21 33 23 l32 3 -37 38 c-29 29 -45 37 -73 37 -34 0 -35 -1 -35 -40z"/>
<path d="M1105 2810 c-3 -5 -1 -10 4 -10 6 0 11 5 11 10 0 6 -2 10 -4 10 -3 0
-8 -4 -11 -10z"/>
<path d="M1200 2810 c0 -5 5 -10 11 -10 5 0 7 5 4 10 -3 6 -8 10 -11 10 -2 0
-4 -4 -4 -10z"/>
<path d="M4146 2812 c-4 -7 -2 -12 3 -12 6 0 11 -7 11 -15 0 -11 -11 -15 -37
-15 -31 0 -40 -5 -50 -25 l-11 -25 89 0 c78 0 89 2 89 18 0 9 9 23 20 30 35
21 22 32 -39 32 -37 0 -61 4 -63 12 -3 9 -6 9 -12 0z"/>
<path d="M880 2760 c0 -29 4 -40 15 -40 11 0 15 11 15 40 0 29 -4 40 -15 40
-11 0 -15 -11 -15 -40z"/>
<path d="M15600 2761 c0 -22 -4 -41 -9 -43 -5 -1 -3 -11 4 -21 12 -17 22 -18
89 -12 55 5 76 11 76 21 0 8 -10 14 -25 14 -22 0 -25 4 -25 40 l0 40 -55 0
-55 0 0 -39z"/>
<path d="M43 2743 l-43 -4 0 -75 0 -74 40 0 c29 0 40 -4 40 -15 0 -22 10 -19
47 17 25 24 33 28 33 15 0 -13 9 -17 40 -17 36 0 40 3 40 25 0 20 5 25 25 25
23 0 25 -4 25 -40 0 -29 4 -40 15 -40 12 0 15 13 15 55 l0 55 -40 0 c-36 0
-40 3 -40 25 0 23 -4 25 -40 25 -29 0 -40 4 -40 15 0 15 -19 17 -117 8z"/>
<path d="M4785 2730 c-3 -5 -1 -10 4 -10 6 0 11 5 11 10 0 6 -2 10 -4 10 -3 0
-8 -4 -11 -10z"/>
<path d="M15440 2709 c0 -5 5 -7 10 -4 6 3 10 8 10 11 0 2 -4 4 -10 4 -5 0
-10 -5 -10 -11z"/>
<path d="M15840 2680 l0 -40 55 0 55 0 0 40 0 40 -55 0 -55 0 0 -40z"/>
<path d="M5405 2675 l-30 -30 28 -3 c36 -4 39 -1 35 35 l-3 28 -30 -30z"/>
<path d="M5520 2650 c0 -5 5 -10 11 -10 5 0 7 5 4 10 -3 6 -8 10 -11 10 -2 0
-4 -4 -4 -10z"/>
<path d="M3440 2550 c0 -5 4 -10 9 -10 6 0 13 5 16 10 3 6 -1 10 -9 10 -9 0
-16 -4 -16 -10z"/>
<path d="M16560 2535 c0 -22 -4 -25 -40 -25 -38 0 -40 -2 -40 -30 0 -28 2 -30
40 -30 29 0 40 4 40 15 0 11 11 15 40 15 l40 0 0 40 0 40 -40 0 c-36 0 -40 -2
-40 -25z"/>
<path d="M320 2469 c0 -5 5 -7 10 -4 6 3 10 8 10 11 0 2 -4 4 -10 4 -5 0 -10
-5 -10 -11z"/>
<path d="M3812 2428 c-18 -18 -15 -28 8 -28 13 0 20 7 20 20 0 23 -10 26 -28
8z"/>
<path d="M4018 2433 c12 -2 32 -2 45 0 12 2 2 4 -23 4 -25 0 -35 -2 -22 -4z"/>
<path d="M4320 2415 c0 -8 7 -15 15 -15 11 0 15 -11 15 -40 l0 -40 65 0 65 0
0 55 0 55 -80 0 c-64 0 -80 -3 -80 -15z"/>
<path d="M4880 2360 c0 -29 4 -40 15 -40 11 0 15 11 15 40 0 29 -4 40 -15 40
-11 0 -15 -11 -15 -40z"/>
<path d="M750 2280 c0 -36 3 -40 25 -40 23 0 25 -4 25 -40 l0 -40 40 0 40 0 0
-40 0 -40 40 0 40 0 0 80 0 80 -40 0 -40 0 0 40 0 40 -65 0 -65 0 0 -40z"/>
<path d="M4960 2309 c0 -5 5 -7 10 -4 6 3 10 8 10 11 0 2 -4 4 -10 4 -5 0 -10
-5 -10 -11z"/>
<path d="M5600 2309 c0 -5 5 -7 10 -4 6 3 10 8 10 11 0 2 -4 4 -10 4 -5 0 -10
-5 -10 -11z"/>
<path d="M29265 2310 c3 -5 8 -10 11 -10 2 0 4 5 4 10 0 6 -5 10 -11 10 -5 0
-7 -4 -4 -10z"/>
<path d="M2960 2200 c0 -29 4 -40 15 -40 11 0 15 11 15 40 0 29 -4 40 -15 40
-11 0 -15 -11 -15 -40z"/>
<path d="M20770 2200 l0 -40 45 0 c25 0 45 2 45 5 0 10 -69 75 -80 75 -5 0
-10 -18 -10 -40z"/>
<path d="M26770 2232 c0 -5 7 -17 15 -28 14 -18 14 -18 15 9 0 17 -5 27 -15
27 -8 0 -15 -4 -15 -8z"/>
<path d="M2800 2205 c0 -12 -15 -15 -79 -15 -82 0 -112 -13 -86 -37 9 -8 16
-9 20 -3 3 6 37 10 76 10 39 0 69 4 69 10 0 6 18 10 40 10 33 0 40 3 40 20 0
17 -7 20 -40 20 -29 0 -40 -4 -40 -15z"/>
<path d="M9120 2180 c0 -13 7 -20 20 -20 23 0 26 10 8 28 -18 18 -28 15 -28
-8z"/>
<path d="M19665 2170 c-3 -6 -22 -10 -41 -10 -33 0 -34 -1 -34 -40 0 -22 -4
-40 -10 -40 -5 0 -10 -18 -10 -40 0 -22 -4 -40 -10 -40 -6 0 -10 -33 -10 -80
0 -79 0 -80 25 -80 16 0 25 -6 25 -15 0 -11 11 -15 40 -15 29 0 40 4 40 15 0
9 9 15 25 15 23 0 25 4 25 40 0 29 4 40 15 40 11 0 15 11 15 39 0 33 -4 40
-22 43 l-23 3 23 20 c35 31 28 66 -22 113 -25 23 -48 38 -51 32z"/>
<path d="M9090 2120 c0 -36 -2 -40 -25 -40 -16 0 -25 -6 -25 -15 0 -11 11 -15
40 -15 28 0 40 4 40 14 0 9 12 16 33 18 l32 3 -37 38 c-21 20 -42 37 -48 37
-5 0 -10 -18 -10 -40z"/>
<path d="M9440 2120 c0 -33 -3 -40 -20 -40 -23 0 -26 -10 -8 -28 18 -18 28
-15 28 8 0 11 7 20 15 20 11 0 15 11 15 40 0 29 -4 40 -15 40 -11 0 -15 -11
-15 -40z"/>
<path d="M14000 2095 c0 -11 -11 -15 -40 -15 l-40 0 0 -80 c0 -64 -3 -80 -15
-80 -11 0 -15 -11 -15 -40 l0 -40 -99 0 -98 0 -47 -46 c-42 -42 -46 -51 -46
-94 l0 -48 47 -4 c36 -3 51 1 62 14 17 19 51 24 51 8 0 -7 6 -7 19 0 11 5 29
10 40 10 15 0 20 8 23 33 l3 32 32 -32 c35 -37 43 -40 43 -18 0 11 11 15 40
15 29 0 40 -4 40 -15 0 -8 -7 -15 -15 -15 -11 0 -15 -11 -15 -40 0 -28 4 -40
14 -40 8 0 34 -11 57 -25 49 -27 119 -34 119 -11 0 7 7 19 15 26 9 7 15 29 15
51 0 35 3 39 25 39 17 0 25 6 25 18 0 21 42 62 64 62 13 0 16 11 16 55 l0 55
-40 0 c-36 0 -40 3 -40 25 0 23 -4 25 -40 25 l-40 0 0 40 0 40 -40 0 -40 0 0
40 0 40 40 0 c29 0 40 4 40 15 0 12 -16 15 -80 15 -64 0 -80 -3 -80 -15z"/>
<path d="M9345 2090 c-3 -5 -1 -10 4 -10 6 0 11 5 11 10 0 6 -2 10 -4 10 -3 0
-8 -4 -11 -10z"/>
<path d="M400 2069 c0 -5 5 -7 10 -4 6 3 10 8 10 11 0 2 -4 4 -10 4 -5 0 -10
-5 -10 -11z"/>
<path d="M25600 2035 l0 -45 43 1 c23 1 34 3 25 6 -13 3 -18 15 -18 44 0 35
-3 39 -25 39 -23 0 -25 -4 -25 -45z"/>
<path d="M28080 2040 c0 -36 3 -40 25 -40 23 0 25 -4 25 -40 0 -29 4 -40 15
-40 11 0 15 11 15 40 0 33 3 40 20 40 11 0 20 4 20 10 0 5 -9 15 -20 22 -11 7
-20 21 -20 30 0 14 -8 18 -40 18 l-40 0 0 -40z"/>
<path d="M10388 2003 c-13 -3 -18 -15 -18 -43 0 -22 -5 -40 -12 -43 -8 -2 -1
-10 15 -17 17 -9 27 -21 27 -35 0 -21 6 -23 76 -30 41 -4 78 -4 81 -1 4 3 -1
6 -10 6 -13 0 -17 9 -17 40 0 36 -2 40 -25 40 -20 0 -25 5 -25 25 0 23 -4 25
-40 25 -57 0 -55 27 3 33 l42 4 -40 0 c-22 0 -48 -1 -57 -4z"/>
<path d="M29760 1989 c0 -5 5 -7 10 -4 6 3 10 8 10 11 0 2 -4 4 -10 4 -5 0
-10 -5 -10 -11z"/>
<path d="M26000 1909 c0 -5 5 -7 10 -4 6 3 10 8 10 11 0 2 -4 4 -10 4 -5 0
-10 -5 -10 -11z"/>
<path d="M20026 1800 c-20 -22 -40 -40 -46 -40 -5 0 -10 -18 -10 -40 l0 -40
84 0 c62 0 87 -4 96 -15 7 -9 29 -15 50 -15 29 0 39 -5 42 -17 3 -15 8 -13 33
12 25 25 27 30 13 33 -14 3 -18 13 -18 43 l0 39 -95 0 -95 0 0 40 c0 22 -4 40
-9 40 -5 0 -25 -18 -45 -40z"/>
<path d="M8065 1770 c-3 -5 -1 -10 4 -10 6 0 11 5 11 10 0 6 -2 10 -4 10 -3 0
-8 -4 -11 -10z"/>
<path d="M9200 1745 c0 -11 11 -15 40 -15 29 0 40 4 40 15 0 11 -11 15 -40 15
-29 0 -40 -4 -40 -15z"/>
<path d="M14530 1640 c0 -29 4 -40 15 -40 11 0 15 11 15 40 0 29 -4 40 -15 40
-11 0 -15 -11 -15 -40z"/>
<path d="M26240 1615 c0 -11 -11 -15 -40 -15 -36 0 -40 -2 -40 -25 0 -22 4
-25 40 -25 36 0 40 3 40 25 0 16 6 25 15 25 11 0 15 -11 15 -40 l0 -40 65 0
c51 0 65 -3 65 -15 0 -11 11 -15 41 -15 33 0 40 3 37 17 -5 25 -77 63 -120 63
-27 0 -38 4 -38 15 0 8 5 15 11 15 8 0 8 5 -1 15 -7 9 -29 15 -51 15 -28 0
-39 -4 -39 -15z"/>
<path d="M19746 1612 c-4 -7 -2 -12 3 -12 6 0 11 -18 11 -40 l0 -40 -40 0 -40
0 0 -40 0 -40 40 0 40 0 0 40 0 40 40 0 40 0 0 40 c0 40 0 40 -39 40 -22 0
-41 5 -43 12 -3 9 -6 9 -12 0z"/>
<path d="M15360 1505 l0 -95 120 0 c73 0 120 -4 120 -10 0 -5 18 -10 40 -10
l40 0 0 70 0 70 -35 0 c-20 0 -53 9 -75 20 -22 11 -59 20 -85 20 -33 0 -45 4
-45 15 0 11 -11 15 -40 15 l-40 0 0 -95z"/>
<path d="M21250 1560 c0 -29 4 -40 15 -40 11 0 15 11 15 40 0 29 -4 40 -15 40
-11 0 -15 -11 -15 -40z"/>
<path d="M14788 1523 c-15 -4 -18 -17 -18 -84 0 -62 3 -79 14 -79 11 0 15 20
18 85 2 47 3 85 3 84 0 -1 -8 -3 -17 -6z"/>
<path d="M10800 1480 l0 -40 65 0 65 0 0 -40 0 -40 55 0 55 0 0 -40 0 -40 40
0 40 0 0 40 c0 29 4 40 15 40 11 0 15 11 15 40 l0 40 -95 0 -95 0 0 40 0 40
-80 0 -80 0 0 -40z"/>
<path d="M20080 1455 c0 -11 11 -15 39 -15 22 0 41 -5 43 -12 3 -9 6 -9 12 0
4 7 2 12 -3 12 -6 0 -11 7 -11 15 0 11 -11 15 -40 15 -29 0 -40 -4 -40 -15z"/>
<path d="M6720 1450 c0 -5 5 -10 11 -10 5 0 7 5 4 10 -3 6 -8 10 -11 10 -2 0
-4 -4 -4 -10z"/>
<path d="M8160 1412 c0 -15 -5 -33 -12 -40 -9 -9 -9 -12 0 -12 7 0 12 -16 12
-40 l0 -40 40 0 c32 0 40 4 40 18 0 10 8 24 18 33 13 11 17 26 14 62 l-4 47
-54 0 c-52 0 -54 -1 -54 -28z"/>
<path d="M12160 1400 l0 -40 65 0 65 0 0 40 0 40 -65 0 -65 0 0 -40z"/>
<path d="M22480 1401 c0 -22 5 -41 12 -43 9 -3 9 -6 0 -12 -7 -4 -12 -2 -12 3
0 6 -18 11 -40 11 -40 0 -40 0 -39 -37 1 -31 8 -44 40 -72 29 -24 39 -29 39
-17 0 12 10 16 40 16 22 0 40 -4 40 -10 0 -5 18 -10 40 -10 l40 0 0 90 0 90
-40 0 c-29 0 -40 4 -40 15 0 11 -11 15 -40 15 -40 0 -40 0 -40 -39z"/>
<path d="M11879 1389 c-26 -27 -34 -31 -74 -27 -38 3 -45 0 -45 -14 0 -14 9
-18 40 -18 22 0 40 -4 40 -10 0 -5 18 -10 40 -10 36 0 40 3 40 25 0 18 5 25
20 25 27 0 25 12 -6 39 l-25 22 -30 -32z"/>
<path d="M14366 1378 c-9 -12 -16 -28 -16 -35 0 -9 -17 -13 -55 -13 -52 0 -55
-1 -55 -25 0 -14 -4 -25 -9 -25 -5 0 -4 -11 2 -25 10 -20 19 -25 49 -25 26 0
38 -5 41 -17 3 -10 5 1 6 25 1 35 4 42 21 42 11 0 20 7 20 15 0 8 7 15 15 15
8 0 15 9 15 19 0 16 8 21 48 24 l47 3 -47 2 c-41 2 -48 5 -48 22 0 26 -15 25
-34 -2z"/>
<path d="M10720 1360 c0 -28 2 -30 40 -30 38 0 40 2 40 30 0 28 -2 30 -40 30
-38 0 -40 -2 -40 -30z"/>
<path d="M11565 1375 l-30 -13 33 -1 c22 -1 32 4 32 14 0 8 -1 15 -2 15 -2 -1
-16 -7 -33 -15z"/>
<path d="M21280 1370 c0 -17 7 -20 40 -20 33 0 40 3 40 20 0 17 -7 20 -40 20
-33 0 -40 -3 -40 -20z"/>
<path d="M12480 1370 c0 -5 5 -10 11 -10 5 0 7 5 4 10 -3 6 -8 10 -11 10 -2 0
-4 -4 -4 -10z"/>
<path d="M12785 1370 c-3 -5 -1 -10 4 -10 6 0 11 5 11 10 0 6 -2 10 -4 10 -3
0 -8 -4 -11 -10z"/>
<path d="M14923 1362 c-41 -3 -41 -4 -45 -45 l-3 -42 42 3 c37 4 42 1 45 -20
l3 -23 20 23 c11 12 27 22 37 22 14 0 18 8 18 39 0 38 -1 39 -37 42 -21 2 -57
3 -80 1z"/>
<path d="M7680 1349 c0 -5 5 -7 10 -4 6 3 10 8 10 11 0 2 -4 4 -10 4 -5 0 -10
-5 -10 -11z"/>
<path d="M10463 1349 c26 -15 20 -37 -12 -44 -43 -9 -103 -63 -96 -86 5 -14 1
-19 -14 -19 -28 0 -27 -7 12 -43 l32 -32 -32 -3 c-18 -2 -33 -6 -33 -10 0 -3
14 -21 32 -39 l32 -33 -32 0 c-31 0 -32 -2 -32 -40 l0 -40 40 0 40 0 0 40 0
40 40 0 c31 0 40 4 40 18 0 14 2 15 10 2 6 -10 6 -16 0 -18 -12 -4 -13 -42 -1
-42 32 0 71 117 71 213 0 75 -1 79 -35 112 -19 20 -44 35 -57 35 -20 -1 -21
-2 -5 -11z"/>
<path d="M11440 1345 c0 -11 11 -15 40 -15 22 0 40 -4 40 -10 0 -5 18 -10 40
-10 22 0 40 5 40 10 0 6 -18 10 -40 10 -29 0 -40 4 -40 15 0 11 -11 15 -40 15
-29 0 -40 -4 -40 -15z"/>
<path d="M11650 1320 c0 -29 4 -40 15 -40 11 0 15 11 15 40 0 29 -4 40 -15 40
-11 0 -15 -11 -15 -40z"/>
<path d="M19671 1318 c1 -24 3 -35 6 -25 6 23 83 25 83 2 0 -11 11 -15 40 -15
l40 0 0 40 0 40 -85 0 -85 0 1 -42z"/>
<path d="M19920 1349 c0 -5 5 -7 10 -4 6 3 10 8 10 11 0 2 -4 4 -10 4 -5 0
-10 -5 -10 -11z"/>
<path d="M6000 1280 c0 -28 -2 -30 -39 -30 -28 0 -45 -7 -62 -25 -13 -13 -32
-25 -41 -25 -12 0 -18 -8 -18 -25 0 -22 -4 -25 -40 -25 -29 0 -40 -4 -40 -15
0 -11 -13 -15 -55 -15 -63 0 -105 -16 -105 -40 0 -17 38 -40 65 -40 8 0 15 -4
15 -8 0 -5 18 -17 40 -27 22 -10 40 -21 40 -25 0 -4 21 -28 46 -54 l47 -46 73
0 c64 0 74 2 74 18 0 9 9 23 21 30 21 13 18 27 -4 27 -7 0 -13 19 -15 43 l-3
42 40 0 c26 0 41 -5 41 -12 1 -19 40 34 40 53 0 19 25 43 37 36 4 -3 6 31 3
76 l-5 81 -35 3 c-19 2 -40 11 -46 19 -6 8 -25 14 -43 14 -28 0 -31 -3 -31
-30z"/>
<path d="M7426 1295 c-8 -8 -19 -15 -25 -15 -6 0 -11 -18 -11 -39 0 -33 4 -40
23 -43 18 -2 23 -10 25 -40 3 -37 4 -38 43 -38 39 0 39 0 39 -40 0 -29 4 -40
15 -40 11 0 15 11 15 40 0 36 3 40 25 40 24 0 25 2 25 68 0 40 5 73 12 80 9 9
0 12 -40 12 -40 0 -52 4 -52 15 0 11 -11 15 -39 15 -22 0 -46 -7 -55 -15z"/>
<path d="M11200 1295 c0 -11 11 -15 40 -15 29 0 40 4 40 15 0 11 -11 15 -40
15 -29 0 -40 -4 -40 -15z"/>
<path d="M7025 1290 c-3 -5 -1 -10 4 -10 6 0 11 5 11 10 0 6 -2 10 -4 10 -3 0
-8 -4 -11 -10z"/>
<path d="M6200 1265 c0 -8 9 -15 20 -15 11 0 20 7 20 15 0 8 -9 15 -20 15 -11
0 -20 -7 -20 -15z"/>
<path d="M11985 1270 c3 -5 8 -10 11 -10 2 0 4 5 4 10 0 6 -5 10 -11 10 -5 0
-7 -4 -4 -10z"/>
<path d="M27410 1260 c-6 -11 -19 -20 -29 -20 -19 0 -31 -25 -24 -47 5 -14 79
-18 85 -5 3 7 62 42 71 42 3 0 8 -8 10 -17 3 -10 5 2 5 27 0 25 -2 37 -5 28
-5 -22 -13 -22 -39 -3 -27 21 -61 18 -74 -5z"/>
<path d="M28640 1240 c0 -5 -18 -10 -39 -10 -25 0 -41 -5 -45 -15 -4 -12 4
-15 42 -15 51 0 90 19 78 38 -9 15 -36 16 -36 2z"/>
<path d="M6480 1146 l0 -54 48 -5 c37 -3 51 0 64 14 9 11 23 19 32 19 10 0 16
9 16 25 0 23 -4 25 -40 25 -29 0 -40 4 -40 15 0 11 -11 15 -40 15 l-40 0 0
-54z"/>
<path d="M7985 1190 c3 -5 8 -10 11 -10 2 0 4 5 4 10 0 6 -5 10 -11 10 -5 0
-7 -4 -4 -10z"/>
<path d="M14287 1158 c-20 -20 -22 -30 -17 -82 4 -48 10 -62 31 -78 25 -19 27
-19 62 -2 21 10 37 25 37 35 0 9 7 22 15 29 8 7 15 23 15 36 0 15 -6 24 -15
24 -8 0 -15 6 -15 13 0 13 -59 47 -81 47 -5 0 -20 -10 -32 -22z"/>
<path d="M19391 1161 c-6 -10 -8 -30 -5 -45 6 -37 37 -106 46 -106 5 0 8 -7 8
-15 0 -20 16 -19 24 0 8 22 -3 118 -14 129 -6 6 -10 20 -10 33 0 29 -35 32
-49 4z"/>
<path d="M26640 1130 c0 -5 5 -10 11 -10 5 0 7 5 4 10 -3 6 -8 10 -11 10 -2 0
-4 -4 -4 -10z"/>
<path d="M12400 1065 c0 -23 2 -25 21 -15 23 13 21 33 -4 38 -12 3 -17 -4 -17
-23z"/>
<path d="M16078 1053 c-8 -32 3 -43 43 -43 35 0 39 -3 39 -25 0 -16 6 -25 15
-25 11 0 15 11 15 40 0 29 -4 40 -15 40 -8 0 -15 7 -15 15 0 23 -76 21 -82 -2z"/>
<path d="M28978 1033 c12 -2 32 -2 45 0 12 2 2 4 -23 4 -25 0 -35 -2 -22 -4z"/>
<path d="M9265 950 c3 -5 8 -10 11 -10 2 0 4 5 4 10 0 6 -5 10 -11 10 -5 0 -7
-4 -4 -10z"/>
<path d="M24800 940 c0 -23 10 -26 28 -8 18 18 15 28 -8 28 -13 0 -20 -7 -20
-20z"/>
<path d="M28171 922 c-36 -19 -59 -38 -53 -40 7 -2 12 -23 12 -47 0 -51 0 -51
113 -61 70 -6 77 -8 77 -28 1 -28 57 -56 115 -56 33 0 45 4 45 15 0 11 -11 15
-40 15 -29 0 -40 4 -40 15 0 11 11 15 40 15 29 0 40 -4 40 -15 0 -10 10 -15
28 -15 26 -1 26 -1 7 -16 -20 -15 -20 -15 -1 -30 11 -8 26 -14 33 -14 7 0 13
-4 13 -10 0 -5 18 -10 40 -10 22 0 40 -4 40 -10 0 -5 18 -10 39 -10 22 0 41
-5 43 -11 2 -5 29 -12 61 -15 31 -2 68 -9 82 -14 18 -7 33 -7 47 1 11 6 28 9
38 6 12 -3 29 6 46 24 l28 29 -32 33 c-18 18 -32 44 -32 57 -1 22 -2 23 -11 8
-5 -10 -15 -18 -22 -18 -12 0 -47 84 -47 114 0 12 -6 15 -25 10 -14 -3 -25 -2
-25 3 0 17 -34 49 -67 62 -41 17 -123 7 -123 -15 0 -8 -6 -14 -13 -14 -8 0
-22 -18 -32 -40 -17 -39 -20 -40 -67 -40 l-48 0 0 40 c0 33 -4 40 -19 40 -10
0 -21 7 -25 15 -3 8 -21 23 -41 32 -19 9 -35 20 -35 25 0 4 -28 8 -62 7 -53 0
-73 -6 -127 -37z m505 -187 c11 -8 14 -15 7 -15 -8 0 -13 -15 -13 -40 0 -29
-4 -40 -15 -40 -12 0 -15 13 -15 55 0 58 5 64 36 40z"/>
<path d="M24369 841 c-19 -15 -22 -26 -20 -70 2 -40 -1 -51 -14 -51 -11 0 -15
-11 -15 -40 l0 -40 80 0 80 0 0 80 c0 73 2 80 20 80 11 0 20 4 20 9 0 14 -28
33 -39 26 -6 -3 -24 1 -40 10 -38 19 -44 19 -72 -4z"/>
<path d="M15040 820 c0 -13 -7 -20 -20 -20 -23 0 -26 -10 -8 -28 18 -18 28
-15 28 8 0 13 7 20 20 20 23 0 26 10 8 28 -18 18 -28 15 -28 -8z"/>
<path d="M30213 806 c-18 -8 -23 -19 -23 -48 0 -27 -4 -38 -15 -38 -11 0 -15
-12 -15 -47 0 -37 6 -53 27 -75 22 -23 27 -36 24 -73 -2 -35 1 -45 13 -45 14
0 16 22 16 170 0 94 -1 169 -2 169 -2 -1 -13 -6 -25 -13z"/>
<path d="M30142 728 c-14 -14 -16 -88 -3 -88 7 0 22 88 16 97 -1 2 -7 -3 -13
-9z"/>
<path d="M29600 610 c0 -5 5 -10 11 -10 5 0 7 5 4 10 -3 6 -8 10 -11 10 -2 0
-4 -4 -4 -10z"/>
<path d="M29187 563 c-15 -4 -17 -14 -16 -55 2 -45 -1 -54 -24 -72 -22 -18
-27 -30 -27 -64 0 -36 5 -47 36 -74 31 -27 43 -31 80 -29 35 2 44 -1 44 -13 0
-12 10 -16 40 -16 l40 0 0 40 c0 36 3 40 25 40 23 0 25 4 25 40 0 29 4 40 15
40 8 0 15 7 15 15 0 11 11 15 39 15 54 0 71 20 71 81 0 47 -1 49 -29 49 -24 0
-30 -5 -34 -29 -4 -18 -14 -32 -27 -36 -11 -3 -20 -12 -20 -19 0 -25 -65 -76
-98 -76 -31 0 -32 2 -32 40 l0 40 -56 0 -56 0 4 45 c2 25 3 44 3 44 0 -1 -8
-3 -18 -6z m94 -206 c4 -38 2 -43 -13 -39 -13 3 -18 15 -18 43 0 57 27 53 31
-4z"/>
<path d="M16400 545 c0 -11 11 -15 40 -15 29 0 40 4 40 15 0 11 -11 15 -40 15
-29 0 -40 -4 -40 -15z"/>
<path d="M29882 512 l-43 -45 29 -31 c16 -17 32 -39 35 -48 3 -10 18 -20 32
-24 14 -3 25 -12 25 -19 0 -6 9 -20 20 -30 11 -10 20 -24 20 -32 0 -9 13 -13
40 -13 29 0 40 -4 40 -15 0 -8 -7 -15 -15 -15 -11 0 -15 -12 -15 -45 0 -44
-26 -115 -42 -115 -4 0 -8 -18 -8 -40 l0 -40 106 0 c90 0 109 3 120 18 10 13
13 68 14 225 l0 207 -40 0 c-36 0 -40 -3 -40 -24 0 -21 -6 -24 -40 -28 l-40
-4 0 43 c0 39 -2 43 -25 43 -22 0 -25 4 -25 40 l0 40 -52 -1 c-49 -2 -56 -5
-96 -47z m218 -196 c0 -3 -4 -8 -10 -11 -5 -3 -10 -1 -10 4 0 6 5 11 10 11 6
0 10 -2 10 -4z"/>
<path d="M16560 512 c0 -22 -5 -32 -15 -32 -11 0 -15 -11 -15 -40 0 -29 4 -40
15 -40 11 0 15 11 15 39 0 37 2 40 31 43 l31 3 -31 29 -31 30 0 -32z"/>
<path d="M24327 474 c-4 -4 -7 -16 -7 -26 0 -16 -9 -18 -80 -18 -64 0 -80 -3
-80 -15 0 -13 -41 -21 -86 -16 -6 1 -19 -8 -29 -19 -11 -12 -13 -20 -6 -20 7
0 1 -15 -13 -33 -26 -34 -35 -87 -16 -87 6 0 10 -16 10 -35 0 -64 40 -88 109
-64 30 11 31 12 31 73 0 50 4 63 20 74 26 16 26 32 -1 32 -17 0 -20 5 -17 38
l3 37 78 3 77 3 0 -41 c0 -32 4 -40 18 -40 10 0 26 -10 37 -22 17 -20 20 -21
23 -5 3 13 13 17 43 17 l40 0 -3 83 -3 82 -70 3 c-39 1 -74 0 -78 -4z"/>
<path d="M24770 440 c0 -22 -4 -40 -10 -40 -5 0 -10 -17 -10 -39 0 -35 3 -39
28 -42 59 -8 72 -1 72 42 0 35 -3 39 -25 39 -22 0 -25 4 -25 40 0 29 -4 40
-15 40 -11 0 -15 -11 -15 -40z"/>
<path d="M25040 445 c0 -11 -11 -15 -40 -15 -29 0 -40 -4 -40 -15 0 -12 14
-15 70 -15 67 0 70 1 60 20 -15 28 -50 46 -50 25z"/>
<path d="M22785 410 c-3 -5 -1 -10 4 -10 6 0 11 5 11 10 0 6 -2 10 -4 10 -3 0
-8 -4 -11 -10z"/>
<path d="M29440 380 c0 -13 5 -17 14 -14 24 9 28 34 6 34 -13 0 -20 -7 -20
-20z"/>
<path d="M15985 310 c3 -5 12 -10 20 -10 8 0 17 5 20 10 4 6 -5 10 -20 10 -15
0 -24 -4 -20 -10z"/>
<path d="M16066 261 c-4 -7 -5 -15 -2 -18 9 -9 19 4 14 18 -4 11 -6 11 -12 0z"/>
<path d="M17436 255 c-3 -8 -1 -15 4 -15 6 0 10 7 10 15 0 8 -2 15 -4 15 -2 0
-6 -7 -10 -15z"/>
<path d="M29200 230 c0 -5 4 -10 9 -10 6 0 13 5 16 10 3 6 -1 10 -9 10 -9 0
-16 -4 -16 -10z"/>
<path d="M29276 202 c-3 -9 -9 -23 -12 -29 -4 -9 6 -13 36 -13 37 0 40 2 30
20 -16 31 -46 43 -54 22z"/>
<path d="M29358 120 c3 -26 9 -40 18 -40 10 0 14 12 14 40 0 32 -4 40 -18 40
-14 0 -17 -7 -14 -40z"/>
<path d="M29405 30 l-29 -30 64 0 64 0 -29 30 c-16 17 -32 30 -35 30 -3 0 -19
-13 -35 -30z"/>
<path d="M25013 22 c-7 -7 -13 -15 -13 -18 0 -2 27 -4 60 -4 45 0 60 4 60 14
0 20 -88 26 -107 8z"/>
<path d="M29698 3 c12 -2 32 -2 45 0 12 2 2 4 -23 4 -25 0 -35 -2 -22 -4z"/>
</g>
</svg>
