<?xml version="1.0" standalone="no"?>
<!DOCTYPE svg PUBLIC "-//W3C//DTD SVG 20010904//EN"
 "http://www.w3.org/TR/2001/REC-SVG-20010904/DTD/svg10.dtd">
<svg version="1.0" xmlns="http://www.w3.org/2000/svg"
 width="1080.000000pt" height="1812.000000pt" viewBox="0 0 1080.000000 1812.000000"
 preserveAspectRatio="xMidYMid meet">

<g transform="translate(0.000000,1812.000000) scale(0.100000,-0.100000)"
fill="#000000" stroke="none">
<path d="M0 16720 l0 -1400 5400 0 5400 0 0 1400 0 1400 -5400 0 -5400 0 0
-1400z"/>
<path d="M379 12548 c-4 -18 -2 -25 7 -21 6 2 15 0 19 -6 8 -14 42 -14 51 0 9
15 -16 30 -43 26 -14 -3 -23 2 -26 12 -2 10 -5 6 -8 -11z m58 -24 c-3 -3 -12
-4 -19 -1 -8 3 -5 6 6 6 11 1 17 -2 13 -5z"/>
<path d="M320 12520 c0 -5 7 -7 15 -4 8 4 15 8 15 10 0 2 -7 4 -15 4 -8 0 -15
-4 -15 -10z"/>
<path d="M8247 12143 c-10 -9 -9 -23 2 -23 5 0 11 7 15 15 5 15 -5 20 -17 8z"/>
<path d="M8232 12090 c-7 -11 -12 -26 -12 -34 0 -7 -7 -19 -15 -26 -8 -7 -15
-22 -15 -34 0 -11 -7 -30 -15 -40 -8 -11 -15 -28 -15 -38 0 -10 -4 -18 -10
-18 -5 0 -10 -8 -10 -19 0 -24 -12 -33 -83 -61 -53 -21 -91 -47 -50 -34 17 5
17 5 1 -6 -10 -6 -18 -18 -18 -25 0 -8 -7 -15 -15 -15 -8 0 -15 -4 -15 -9 0
-5 -11 -11 -25 -14 -35 -6 -27 14 13 33 38 18 41 30 8 30 -31 0 -86 -20 -86
-31 0 -5 -7 -9 -15 -9 -13 0 -19 -11 -16 -32 0 -3 -13 -10 -30 -13 -20 -5 -27
-11 -21 -17 6 -6 23 -4 48 6 55 20 104 28 104 15 0 -6 9 -8 20 -4 11 3 20 2
20 -4 0 -5 -21 -13 -47 -16 -27 -3 -68 -11 -93 -16 -25 -6 -54 -11 -65 -12
-11 -1 -28 -9 -37 -17 -21 -17 -100 -42 -92 -29 6 10 -7 12 -30 3 -9 -3 -14
-10 -11 -15 7 -10 -43 -44 -52 -35 -3 3 -1 6 5 6 7 0 12 6 12 14 0 26 -136
-50 -165 -92 -14 -20 -25 -42 -25 -49 0 -7 -4 -13 -9 -13 -6 0 -22 -11 -37
-25 -15 -14 -33 -25 -41 -25 -8 0 -12 -4 -9 -8 4 -7 -31 -54 -62 -84 -35 -34
-54 -48 -62 -48 -5 0 -10 -4 -10 -10 0 -5 -6 -10 -14 -10 -22 0 -76 -49 -76
-69 0 -9 -8 -26 -17 -37 -24 -27 -42 -55 -49 -76 -4 -10 -10 -18 -15 -18 -11
0 -44 -62 -41 -77 3 -15 -18 -57 -25 -50 -2 3 1 15 7 27 7 13 8 20 2 16 -18
-11 -41 -64 -48 -111 -3 -26 -10 -42 -16 -39 -6 4 -8 -1 -4 -13 6 -19 -35
-111 -56 -124 -6 -4 -10 -20 -10 -35 0 -16 -6 -36 -13 -44 -7 -8 -16 -37 -20
-65 -10 -62 -11 -66 -24 -124 -6 -25 -13 -55 -15 -66 -1 -11 -15 -46 -30 -78
-14 -32 -26 -61 -26 -66 0 -4 -7 -21 -15 -37 -14 -29 -35 -334 -22 -334 3 0
21 29 40 64 37 67 66 106 79 106 25 0 -8 -109 -41 -139 -27 -23 -50 -92 -41
-117 10 -27 62 -64 88 -64 21 0 24 13 34 135 2 22 7 29 21 27 12 -2 17 4 17
23 0 14 5 25 10 25 6 0 10 9 10 21 0 29 70 228 112 319 35 75 122 200 139 200
5 0 12 12 15 28 4 15 22 44 40 66 18 21 40 53 49 72 9 19 20 34 24 34 4 0 21
20 36 45 16 24 30 43 32 41 2 -2 -13 -43 -33 -92 -87 -209 -109 -307 -82 -357
15 -28 22 -35 148 -118 58 -38 114 -76 124 -84 11 -8 86 -42 167 -77 133 -55
148 -64 147 -85 -2 -13 -11 -26 -23 -29 -11 -3 -29 -17 -41 -29 -19 -23 -21
-23 -55 -7 -18 9 -38 22 -44 28 -12 14 -53 25 -59 15 -3 -4 1 -19 9 -34 13
-25 12 -27 -7 -27 -16 0 -18 -3 -9 -14 9 -11 9 -16 0 -21 -8 -6 -7 -10 2 -16
9 -6 10 -9 2 -9 -6 0 -26 -12 -44 -27 -33 -28 -59 -38 -59 -22 0 5 -10 9 -22
9 -16 0 -19 -3 -10 -8 7 -5 10 -16 6 -25 -4 -13 -1 -17 15 -17 12 0 21 -5 21
-11 0 -8 -13 -9 -39 -5 -30 5 -40 2 -45 -10 -8 -20 1 -35 18 -28 7 3 25 0 40
-6 15 -5 32 -7 38 -4 6 4 27 8 47 10 89 6 152 22 188 47 22 15 44 27 50 27 5
0 22 -34 36 -74 20 -59 23 -83 17 -112 -5 -20 -6 -42 -4 -49 3 -7 -2 -15 -10
-18 -9 -4 -16 -1 -16 6 0 8 -3 8 -9 -2 -6 -9 -19 -12 -40 -8 -30 6 -44 -6 -18
-16 9 -4 8 -8 -3 -16 -10 -7 -19 -6 -31 5 -14 13 -19 12 -41 -6 -14 -10 -28
-17 -31 -14 -3 3 -21 -5 -39 -18 -28 -21 -38 -24 -68 -16 -45 13 -70 13 -94 3
-14 -6 -17 -5 -12 3 12 19 -2 14 -95 -35 -66 -34 -91 -53 -98 -73 -5 -15 -23
-40 -40 -56 -18 -17 -33 -40 -34 -52 0 -12 -7 -24 -14 -26 -7 -3 -13 -13 -13
-21 0 -9 4 -13 10 -10 6 3 7 -1 4 -9 -4 -11 0 -16 11 -16 9 0 24 -7 33 -16 14
-15 17 -15 27 0 7 9 17 16 23 16 6 0 12 5 14 12 2 6 19 13 36 14 18 1 38 6 45
12 7 5 31 12 54 16 23 3 58 15 77 27 31 18 46 20 118 15 46 -3 101 -6 123 -7
22 0 58 -5 80 -11 l40 -10 -40 -13 c-21 -8 -43 -11 -48 -8 -5 3 -7 -3 -5 -12
1 -10 20 -27 41 -38 64 -33 44 -49 -29 -23 -22 7 -69 12 -109 11 -69 -2 -70
-3 -102 -44 -27 -34 -31 -46 -23 -62 8 -15 17 -18 37 -13 18 5 24 4 19 -5 -4
-6 0 -18 8 -27 9 -8 16 -24 16 -34 0 -13 11 -22 33 -29 18 -5 24 -10 13 -10
-11 -1 -16 -4 -13 -8 4 -3 2 -12 -4 -20 -9 -10 -6 -12 19 -7 17 4 32 1 36 -5
4 -6 16 -11 27 -11 10 0 19 -4 19 -8 0 -4 10 -8 21 -9 32 -3 70 -43 64 -67 -3
-12 -2 -15 1 -8 7 15 24 16 24 2 0 -6 -8 -13 -17 -17 -10 -3 -26 -14 -36 -25
-23 -23 -56 -26 -37 -3 7 9 10 18 6 22 -3 3 -6 1 -6 -5 0 -7 -7 -12 -15 -12
-8 0 -29 -9 -47 -20 -40 -24 -70 -27 -62 -5 4 10 0 15 -15 15 -12 0 -21 -4
-21 -10 0 -5 -6 -10 -14 -10 -7 0 -19 -7 -26 -15 -14 -17 -30 -20 -30 -5 0 6
8 10 18 11 12 0 13 2 3 6 -8 3 -20 -2 -27 -12 -13 -17 -15 -18 -33 -1 -12 11
-20 13 -23 6 -2 -6 -13 -12 -26 -13 -13 -1 -21 -6 -18 -14 4 -9 -1 -10 -22 -2
-18 7 -28 7 -30 0 -4 -13 -54 -3 -64 13 -5 8 -8 7 -8 -1 0 -7 -5 -13 -11 -13
-5 0 -7 5 -4 10 3 6 1 10 -4 10 -6 0 -11 -6 -11 -14 0 -8 -5 -18 -12 -22 -8
-5 -9 0 -6 14 4 12 2 22 -3 22 -5 0 -9 -4 -9 -9 0 -5 -10 -11 -22 -14 -13 -2
-31 -8 -40 -12 -13 -5 -18 -3 -18 9 0 9 7 16 15 16 27 0 16 18 -16 25 -21 5
-27 10 -19 15 10 6 9 9 -1 13 -8 3 -4 6 9 6 28 1 19 21 -9 21 -10 0 -19 7 -19
15 0 10 -9 15 -27 14 -24 -2 -25 -2 -5 -6 13 -3 22 -11 21 -21 0 -11 -3 -12
-6 -4 -2 6 -13 12 -24 12 -23 0 -41 39 -27 58 6 6 6 12 1 12 -5 0 -17 -14 -27
-31 -17 -29 -31 -31 -31 -6 0 7 -9 11 -19 9 -12 -2 -16 1 -10 9 5 8 2 11 -8 7
-8 -4 -20 2 -26 13 -7 10 -19 19 -27 19 -17 0 -35 30 -35 60 0 12 -4 18 -11
15 -6 -4 -17 1 -24 11 -10 13 -14 15 -15 5 0 -7 -6 -11 -15 -7 -17 6 -21 -9
-5 -19 8 -5 7 -12 -2 -23 -11 -13 -10 -15 5 -9 21 8 22 1 2 -19 -16 -16 -9
-48 8 -37 7 4 8 0 3 -12 -4 -10 -2 -21 4 -25 14 -8 22 -128 9 -135 -15 -10
-10 -25 7 -25 13 0 14 -3 5 -14 -10 -11 -8 -17 6 -25 17 -10 17 -10 0 -11 -14
0 -16 -4 -8 -19 6 -10 8 -35 4 -55 -3 -22 -2 -36 5 -36 5 0 15 -13 21 -30 5
-16 15 -30 22 -30 7 0 9 -9 5 -24 -3 -14 -2 -27 3 -31 5 -3 9 -14 8 -25 -1
-15 -6 -18 -27 -13 -14 3 -33 10 -43 15 -35 18 -27 1 8 -18 19 -10 35 -21 35
-25 0 -13 -14 -18 -26 -8 -9 7 -12 6 -10 -6 1 -9 8 -20 15 -25 10 -6 11 -8 1
-12 -7 -2 -12 -16 -12 -31 0 -17 -5 -26 -12 -24 -6 3 -10 10 -8 17 2 8 -4 11
-17 7 -11 -3 -28 3 -40 14 -44 41 -42 14 4 -51 28 -39 33 -55 26 -68 -6 -10
-11 -12 -11 -4 0 15 -31 15 -80 1 -34 -10 -37 -14 -35 -43 2 -17 4 -31 5 -31
1 0 3 -11 4 -24 2 -18 -4 -25 -25 -33 -25 -8 -27 -13 -18 -30 6 -11 7 -27 3
-36 -4 -9 -6 -24 -5 -32 2 -13 1 -13 -8 0 -5 8 -13 11 -17 7 -4 -3 -1 -13 5
-21 10 -11 8 -17 -6 -25 -16 -9 -16 -12 -3 -20 11 -8 12 -13 3 -22 -6 -6 -9
-18 -6 -25 3 -8 1 -14 -5 -14 -6 0 -9 -16 -8 -35 2 -25 -1 -35 -11 -35 -9 0
-13 -6 -10 -15 4 -8 2 -17 -3 -20 -6 -4 -7 -13 -1 -24 7 -11 4 -28 -7 -51 -12
-24 -13 -35 -4 -38 8 -2 7 -10 -4 -27 -9 -13 -13 -29 -9 -35 3 -5 1 -10 -5
-10 -6 0 -9 -4 -6 -9 3 -5 0 -35 -7 -67 l-13 -58 40 -31 c39 -30 43 -31 74
-18 38 16 200 16 317 2 112 -15 463 -14 514 0 45 13 91 8 91 -9 0 -6 -4 -10
-10 -10 -5 0 -10 4 -10 9 0 5 -9 7 -20 4 -16 -4 -18 -8 -9 -19 17 -20 3 -30
-17 -13 -16 13 -17 11 -11 -21 3 -19 3 -29 0 -22 -2 6 -9 9 -14 6 -6 -3 -17 0
-25 7 -13 10 -17 10 -24 0 -4 -8 -17 -11 -31 -7 -13 3 -18 3 -11 0 17 -8 15
-24 -3 -24 -11 0 -14 -7 -9 -25 9 -38 -20 -32 -44 9 -36 60 -59 69 -205 75
-73 3 -205 5 -294 6 -89 0 -155 3 -145 7 13 5 11 7 -9 7 -14 1 -29 -3 -35 -8
-5 -5 -29 -11 -54 -13 -44 -3 -45 -2 -48 30 -3 32 -15 41 -27 22 -3 -5 -12
-10 -20 -10 -15 0 -108 -59 -113 -72 -2 -5 -7 -6 -11 -4 -4 3 -38 -20 -77 -49
-61 -48 -69 -52 -72 -34 -3 15 -8 19 -20 14 -9 -4 -30 -9 -46 -12 -41 -7 -24
13 19 21 19 4 35 10 35 14 -1 23 -39 127 -46 125 -5 -1 -17 -5 -26 -8 -10 -4
-18 -3 -18 2 0 5 12 14 28 20 l27 11 -30 1 c-30 2 -30 2 -7 15 21 11 22 14 7
26 -9 7 -14 19 -11 26 3 7 1 16 -3 19 -5 3 -7 13 -5 23 3 9 -4 27 -15 39 -12
12 -21 26 -21 31 0 6 -11 17 -24 25 -13 9 -31 24 -41 33 -17 17 -17 18 1 25
15 6 16 8 3 8 -9 1 -24 19 -34 41 -10 22 -24 40 -32 40 -7 0 -13 10 -13 22 0
21 0 21 14 2 14 -18 15 -18 13 4 -1 12 -5 22 -9 22 -4 0 -8 9 -8 20 0 13 -9
22 -25 26 -14 3 -25 12 -25 18 0 19 -60 96 -76 96 -7 0 -20 13 -29 29 -19 37
-35 48 -27 19 3 -14 2 -19 -6 -14 -7 4 -12 15 -12 25 0 10 -9 26 -20 36 -20
19 -60 93 -60 113 0 7 -9 12 -20 12 -11 0 -20 -4 -20 -9 0 -5 -9 -12 -19 -16
-11 -3 -64 -45 -118 -92 -54 -47 -108 -92 -119 -100 -27 -18 -123 -53 -144
-53 -12 0 -16 -9 -14 -30 1 -16 -2 -30 -6 -30 -13 0 -18 -48 -7 -59 8 -8 6
-11 -6 -11 -19 0 -23 -25 -5 -36 7 -5 5 -11 -7 -21 -18 -13 -18 -13 1 -29 13
-11 15 -17 6 -20 -6 -3 -10 -10 -6 -15 3 -5 12 -2 20 6 24 24 47 19 42 -9 -4
-21 0 -25 38 -33 24 -6 41 -6 38 -2 -3 5 -1 9 5 9 5 0 15 -8 20 -17 6 -11 11
-13 11 -5 0 8 8 6 22 -8 20 -18 32 -24 50 -22 3 1 8 -5 11 -12 4 -10 -1 -12
-16 -9 -22 5 -22 5 -2 -10 23 -19 60 -23 49 -5 -5 7 -3 8 5 3 7 -4 11 -16 8
-26 -7 -26 10 -24 18 1 4 11 11 18 16 14 5 -3 7 -10 4 -15 -4 -5 -1 -9 4 -9 6
0 11 7 11 15 0 8 6 12 14 9 8 -3 17 -1 21 5 8 14 25 14 25 0 0 -5 -4 -7 -10
-4 -5 3 -10 1 -10 -6 0 -8 13 -10 40 -6 22 3 40 2 40 -3 0 -11 -26 -20 -56
-20 -13 0 -24 -4 -24 -9 0 -5 16 -5 37 -1 33 8 39 6 59 -17 21 -25 22 -28 6
-40 -16 -11 -16 -12 1 -13 10 0 16 -4 12 -9 -3 -6 3 -15 12 -21 15 -8 13 -9
-12 -5 -16 3 -24 2 -17 -1 6 -3 12 -10 12 -16 0 -5 11 -24 26 -43 18 -23 22
-35 13 -40 -8 -6 -7 -10 4 -16 9 -5 13 -17 10 -28 -3 -10 0 -22 6 -25 6 -4 11
-12 11 -17 0 -6 -4 -7 -10 -4 -5 3 -10 2 -10 -4 0 -15 18 -23 22 -9 3 9 15 7
42 -6 26 -12 35 -21 26 -26 -9 -6 -8 -14 5 -34 20 -30 30 -33 39 -11 6 17 36
21 36 5 0 -5 5 -10 10 -10 6 0 10 6 10 13 0 7 11 24 25 39 14 15 25 31 25 36
0 6 19 10 43 10 23 -1 52 3 64 7 18 6 21 4 17 -12 -5 -16 -14 -19 -59 -18 -30
1 -52 -2 -49 -6 3 -5 32 -9 64 -9 49 0 61 3 70 20 6 12 21 20 35 20 14 0 25 6
26 13 1 6 4 -2 9 -19 11 -49 12 -181 1 -217 -5 -18 -17 -61 -26 -97 -9 -36
-23 -85 -31 -110 -9 -25 -18 -56 -21 -69 -9 -38 -101 -207 -160 -294 -29 -44
-53 -81 -53 -83 0 -5 -63 -108 -70 -114 -3 -3 -23 -34 -44 -70 -22 -36 -43
-66 -48 -68 -4 -2 -8 -8 -8 -14 0 -10 -54 -91 -77 -116 -7 -7 -13 -20 -13 -27
0 -7 -11 -27 -25 -43 -14 -17 -25 -34 -25 -40 0 -6 -3 -12 -8 -14 -10 -4 -85
-118 -80 -122 1 -2 69 -25 150 -51 126 -41 150 -46 164 -34 15 12 14 14 -3 20
-16 7 -15 8 5 8 24 1 28 11 12 27 -7 7 3 9 28 6 36 -3 36 -2 17 13 -19 16 -19
17 15 10 32 -6 34 -6 16 8 -19 14 -19 15 2 21 12 4 27 4 34 0 7 -5 9 -2 6 8
-4 8 -2 21 3 29 7 12 9 12 9 -1 1 -9 5 -6 10 8 5 12 25 30 44 39 32 15 34 18
18 30 -16 14 -16 14 0 9 11 -3 19 2 23 15 5 15 12 18 28 14 20 -6 20 -5 -3 14
-14 11 -21 23 -17 27 4 4 7 2 7 -4 0 -7 5 -12 11 -12 5 0 7 5 3 11 -7 11 -4
11 58 -4 7 -2 10 -2 6 0 -4 3 -3 15 2 28 7 19 6 22 -9 18 -10 -2 -23 2 -30 11
-11 12 -9 14 11 12 13 -2 36 -8 51 -15 16 -6 34 -11 42 -11 8 0 17 -4 20 -10
3 -5 10 -10 16 -10 14 0 4 63 -11 68 -9 3 -11 -1 -7 -11 3 -9 2 -19 -3 -22
-12 -7 -54 14 -46 23 4 3 12 0 18 -6 17 -17 25 -15 23 8 -1 12 -18 32 -38 46
-51 34 -47 41 6 9 54 -34 128 -67 135 -60 3 2 -3 8 -13 11 -9 4 -31 20 -48 35
-17 16 -35 29 -39 29 -5 0 -8 4 -8 10 0 5 20 -2 45 -16 25 -13 45 -22 45 -19
0 3 9 1 20 -5 11 -6 20 -8 20 -6 0 3 -12 12 -26 19 -17 9 -23 17 -15 21 6 4
11 3 11 -2 0 -5 9 -12 20 -15 24 -6 27 8 4 17 -9 4 -14 9 -11 12 3 3 16 0 29
-6 22 -11 22 -11 -2 10 -21 18 -21 21 -5 15 11 -4 29 -9 40 -12 18 -4 18 -3 3
9 -9 7 -25 19 -35 26 -10 7 -12 10 -5 7 17 -9 62 -16 62 -11 0 2 -15 14 -32
26 -35 23 -30 23 15 0 16 -7 26 -19 23 -27 -3 -7 5 -19 17 -28 30 -21 44 -19
24 3 -25 28 -20 37 9 18 14 -10 29 -16 35 -14 5 2 -20 21 -56 43 -36 22 -65
43 -65 48 0 5 12 0 28 -11 42 -29 92 -52 92 -41 0 5 7 9 15 9 18 0 16 28 -3
49 -17 17 -12 22 16 14 12 -3 22 -11 22 -17 0 -12 43 -16 55 -4 8 8 -25 48
-40 48 -15 0 -36 38 -25 45 5 3 12 0 17 -7 4 -7 23 -22 42 -32 30 -17 34 -17
28 -3 -8 21 -3 21 26 3 12 -8 33 -17 47 -21 24 -7 24 -6 6 7 -23 18 -9 30 38
33 48 3 190 26 196 32 3 3 -8 4 -25 2 -45 -4 -155 12 -155 22 0 5 15 6 33 3
17 -3 56 -8 85 -11 44 -4 52 -2 52 12 0 13 6 16 25 11 14 -4 25 -2 25 4 0 5 5
10 11 10 5 0 7 -4 4 -10 -3 -5 -1 -10 5 -10 7 0 9 8 5 19 -4 14 0 20 19 23 36
7 79 -14 81 -39 1 -19 -1 -20 -18 -12 -10 6 -21 8 -24 5 -3 -3 7 -10 23 -16
20 -8 30 -8 32 -1 2 7 10 8 22 1 13 -7 21 -7 25 0 8 13 45 -6 45 -23 0 -7 10
-17 23 -22 12 -6 21 -18 21 -28 -2 -19 7 -22 22 -8 5 5 29 4 57 -4 26 -6 47
-9 47 -6 0 11 -15 28 -35 39 -11 6 -14 12 -7 12 6 0 12 6 12 13 0 9 10 12 28
11 79 -9 142 -10 142 -2 0 4 -24 9 -52 10 -51 1 -51 2 -10 5 29 3 40 8 35 16
-5 9 -3 9 8 0 11 -9 20 -8 39 2 19 11 21 14 8 15 -10 0 -18 5 -18 11 0 5 4 8
9 4 5 -3 12 -1 16 5 9 14 26 13 22 -2 -1 -6 7 -13 18 -15 11 -1 14 0 7 3 -17
8 -5 24 13 18 8 -4 13 -10 10 -14 -3 -5 0 -12 6 -16 7 -4 9 -3 6 3 -10 16 20
24 49 13 29 -11 54 -3 33 11 -9 6 -2 9 22 9 38 0 99 -25 99 -41 0 -12 -17 -12
-25 1 -3 6 -14 10 -23 9 -12 0 -11 -3 6 -9 12 -5 25 -16 28 -25 4 -8 12 -15
19 -15 7 0 16 -7 19 -16 3 -8 2 -12 -4 -9 -6 3 -10 1 -10 -5 0 -7 -7 -10 -15
-6 -13 5 -14 2 -4 -17 12 -22 12 -22 -10 -3 -22 20 -30 9 -8 -13 10 -10 7 -11
-16 -6 -22 6 -26 4 -22 -8 5 -11 -1 -14 -26 -11 l-32 4 19 -22 c11 -13 13 -18
4 -12 -18 11 -60 13 -60 2 0 -4 8 -12 19 -17 10 -6 22 -18 25 -28 6 -16 6 -16
-12 0 -24 22 -36 22 -28 0 6 -15 4 -15 -14 2 -22 19 -28 8 -7 -14 6 -8 -1 -5
-18 5 -26 17 -28 17 -23 2 5 -13 3 -15 -10 -11 -13 5 -12 1 6 -21 29 -37 28
-55 0 -29 -30 26 -68 36 -68 17 0 -8 5 -14 10 -14 6 0 10 -5 10 -10 0 -6 -11
-8 -25 -4 -15 4 -25 2 -25 -5 0 -6 7 -11 15 -11 8 0 15 -3 15 -8 0 -4 11 -20
25 -35 36 -38 18 -34 -24 6 l-34 32 20 -30 c12 -16 30 -39 42 -49 24 -22 27
-33 7 -33 -8 0 -12 5 -10 12 6 16 -53 58 -59 42 -3 -6 -6 -2 -6 10 -1 16 -6
21 -16 17 -12 -5 -13 -10 -4 -20 6 -7 8 -18 5 -23 -4 -5 2 -15 11 -21 16 -10
16 -11 -2 -5 -11 4 -29 10 -40 12 l-20 5 20 -17 c19 -15 19 -16 1 -11 -15 5
-17 4 -7 -8 9 -11 9 -15 -1 -19 -10 -4 -8 -10 6 -21 11 -9 22 -13 25 -10 3 3
-1 10 -9 15 -13 9 -13 10 0 6 8 -2 15 -12 15 -23 0 -10 4 -26 9 -34 9 -13 8
-13 -10 0 -10 7 -24 20 -30 26 -6 7 -22 15 -35 17 -21 4 -25 1 -24 -19 0 -12
6 -29 14 -36 11 -11 12 -9 1 12 -12 23 -11 24 5 9 14 -14 15 -21 5 -39 -10
-18 -9 -24 7 -36 10 -7 13 -14 7 -14 -16 0 -37 27 -30 39 4 5 2 12 -3 15 -13
8 -20 -31 -8 -43 8 -8 8 -11 -1 -11 -7 0 -12 -5 -12 -11 0 -8 4 -8 14 0 10 9
16 9 21 1 4 -6 4 -14 1 -17 -3 -4 4 -11 15 -17 12 -6 29 -22 37 -36 l16 -25
-30 26 c-49 42 -101 78 -106 73 -3 -3 19 -29 50 -60 30 -30 53 -57 50 -59 -2
-3 -28 18 -56 47 -39 39 -52 47 -52 33 0 -10 10 -29 22 -42 12 -13 18 -26 15
-30 -4 -3 -14 2 -21 13 -12 15 -17 17 -27 7 -8 -8 -9 -13 -2 -13 12 0 25 -39
17 -52 -3 -5 -18 1 -34 12 -36 26 -40 25 -40 -4 0 -15 7 -27 19 -31 11 -3 25
-13 32 -23 11 -14 11 -15 -1 -4 -23 20 -35 14 -15 -8 23 -26 8 -26 -25 0 -41
32 -43 23 -4 -17 19 -21 52 -56 72 -77 l37 -39 -35 23 -35 23 30 -34 c17 -18
33 -35 38 -37 4 -2 7 -8 7 -14 0 -11 -23 5 -100 72 -31 26 -47 35 -39 22 8
-12 18 -22 22 -22 5 0 7 -6 4 -14 -3 -7 0 -19 6 -25 8 -8 8 -11 0 -11 -16 0
-34 25 -25 36 4 5 3 6 -2 2 -4 -4 -19 -2 -33 3 -24 9 -23 6 11 -33 20 -24 46
-52 56 -63 27 -28 26 -41 -1 -14 -11 11 -27 18 -35 15 -9 -3 -12 -1 -9 4 4 6
-1 17 -9 26 -9 8 -16 21 -16 29 0 7 -6 15 -14 18 -16 6 -14 -39 3 -56 19 -19
12 -27 -15 -17 l-25 10 19 -27 c34 -48 84 -93 101 -93 11 0 12 3 4 8 -7 4 -9
13 -4 20 5 9 19 3 49 -19 l42 -31 0 26 c0 14 -5 26 -11 26 -5 0 -7 -4 -4 -10
3 -6 -1 -7 -10 -4 -9 4 -13 9 -10 12 3 3 -3 14 -12 25 -17 20 -17 20 2 12 11
-4 31 -10 45 -12 23 -5 23 -4 -9 24 -27 23 -32 33 -24 47 9 16 10 16 24 0 12
-16 12 -17 -3 -11 -23 8 -23 -2 0 -19 19 -15 62 -19 62 -6 0 4 -5 13 -12 20
-19 19 -2 25 25 7 24 -16 24 -15 21 16 -3 26 -1 30 13 25 16 -6 16 -6 0 12
-21 23 -22 43 -2 36 20 -8 19 5 -1 27 -15 16 -14 17 8 12 23 -5 23 -5 3 10
-12 10 -15 16 -7 17 7 0 10 5 6 12 -4 7 -3 8 5 4 6 -4 9 -11 6 -15 -5 -8 45
-35 52 -28 8 8 -10 37 -22 37 -8 0 -17 5 -20 11 -5 7 5 8 31 3 l38 -7 -18 27
c-17 27 -17 28 2 22 26 -9 38 10 21 32 -11 14 -11 15 1 5 8 -7 23 -13 35 -13
18 1 18 1 3 11 -23 13 -23 29 -1 29 14 0 14 2 -2 20 -20 22 -16 24 40 21 l30
-2 -30 20 c-16 12 -34 21 -38 21 -4 0 -18 9 -30 21 -18 17 -12 16 29 -7 47
-26 52 -27 68 -12 15 15 15 17 -4 23 -19 6 -29 26 -12 24 19 -3 56 3 45 8 -7
2 -13 9 -13 14 0 4 7 6 15 3 10 -4 15 0 15 11 0 11 -5 15 -15 12 -8 -4 -17 -2
-20 4 -4 5 -3 9 2 8 4 -1 17 -1 28 0 19 1 18 3 -5 21 l-25 20 35 -6 c29 -6 33
-4 23 7 -19 19 -16 28 12 39 16 6 23 14 19 25 -4 9 0 15 9 15 9 0 24 11 35 25
11 14 25 25 31 25 12 0 15 16 4 23 -5 2 -2 2 4 1 7 -2 26 8 42 21 16 14 36 25
46 25 9 0 13 5 10 10 -3 6 -1 10 6 10 8 0 9 4 1 13 -9 11 -3 12 36 7 26 -4 60
-12 76 -19 16 -6 31 -10 33 -7 3 2 -24 15 -59 27 -39 15 -56 25 -44 27 23 5
181 -55 197 -75 18 -21 3 -27 -23 -9 -30 22 -43 20 -21 -2 22 -23 92 -56 101
-47 3 3 -4 8 -16 12 -35 9 -26 26 9 18 24 -6 30 -4 24 5 -5 9 -4 11 4 6 6 -4
9 -11 6 -16 -3 -4 11 -11 30 -14 20 -4 33 -11 30 -15 -3 -5 2 -11 10 -15 8 -3
15 0 15 6 0 7 5 6 15 -2 8 -7 15 -9 15 -5 0 4 7 1 17 -6 38 -32 112 3 113 54
0 10 11 22 25 27 14 5 25 16 25 25 0 8 7 15 15 15 8 0 15 7 15 15 0 8 4 15 8
15 10 0 33 -61 26 -71 -3 -5 0 -9 5 -9 6 0 11 -5 11 -11 0 -6 -9 -9 -20 -6
-18 5 -20 2 -14 -16 4 -12 7 -29 7 -37 0 -18 16 -40 29 -40 5 0 2 7 -7 16 -20
20 -11 32 10 14 14 -12 20 -7 16 14 -1 5 5 4 13 -3 9 -7 14 -16 12 -20 -4 -6
27 -11 79 -11 16 0 33 -6 37 -13 6 -9 12 -8 22 6 7 9 21 17 30 17 10 0 14 5
11 10 -4 6 14 10 47 10 47 0 54 -2 54 -20 0 -16 -7 -20 -33 -20 -38 0 -42 -12
-10 -35 l22 -16 -27 7 c-16 3 -36 3 -45 -1 -16 -6 -15 -8 7 -27 16 -12 19 -18
8 -14 -10 3 -21 -2 -26 -11 -6 -10 -17 -14 -31 -10 -13 3 -19 1 -14 -6 4 -6
-2 -8 -18 -4 -20 5 -21 4 -9 -6 8 -7 14 -22 12 -35 -2 -16 -7 -20 -15 -14 -7
5 -21 12 -31 16 -19 7 -19 6 -1 -14 10 -11 14 -20 9 -20 -5 0 -3 -4 5 -9 10
-7 7 -9 -12 -8 -14 1 -23 5 -20 10 2 4 -3 7 -11 7 -21 0 -31 -21 -15 -31 8 -5
22 -6 33 -3 12 4 16 2 11 -5 -4 -7 -1 -20 7 -29 12 -15 11 -15 -12 1 -14 9
-32 20 -40 23 -8 3 -32 14 -53 25 -21 11 -41 18 -45 15 -6 -7 -11 -4 61 -40
63 -31 72 -54 35 -81 -15 -10 -19 -18 -12 -23 12 -8 15 -42 3 -42 -4 0 -10 6
-12 13 -4 8 -12 4 -25 -12 -14 -17 -25 -22 -40 -16 -34 10 -26 -2 8 -14 17 -5
28 -6 25 -1 -3 5 -1 11 4 14 5 3 11 -3 14 -13 3 -12 -1 -22 -10 -25 -12 -5
-13 -9 -3 -21 10 -12 9 -15 -4 -15 -9 0 -16 -7 -16 -15 0 -10 -10 -15 -32 -15
-29 0 -30 -1 -13 -13 12 -10 14 -16 7 -21 -7 -4 -12 -16 -12 -27 0 -11 -7 -19
-17 -20 -11 0 -13 -3 -5 -6 6 -2 9 -10 6 -15 -4 -6 -2 -8 3 -5 6 4 32 -2 57
-14 26 -11 52 -18 59 -15 7 2 4 5 -5 5 -10 1 -18 8 -18 16 0 7 -7 18 -16 23
-11 6 -13 11 -5 16 6 4 11 3 11 -2 0 -12 63 0 67 13 1 6 -13 20 -33 33 -20 13
-34 26 -31 29 3 3 16 -2 29 -11 12 -9 34 -15 48 -15 17 1 19 3 8 6 -20 5 -22
12 -9 32 6 9 11 10 15 2 4 -6 2 -11 -5 -11 -7 0 -9 -3 -6 -6 4 -4 13 -2 20 5
8 6 22 9 31 5 9 -3 16 -1 16 5 0 6 -13 14 -30 17 -42 9 -37 21 6 16 24 -3 35
-1 30 6 -4 7 9 12 36 14 l43 3 -32 15 c-36 16 -45 35 -13 27 23 -6 26 3 8 22
-11 10 -7 11 17 5 25 -5 28 -4 18 7 -22 22 -15 38 15 36 17 -1 26 3 24 11 -1
6 7 12 18 12 11 0 20 5 20 11 0 5 5 7 10 4 6 -3 10 1 10 9 0 9 6 16 13 17 6 0
3 4 -8 9 -19 8 -19 9 2 9 12 1 25 6 28 11 3 6 11 10 16 10 6 0 7 -5 3 -11 -4
-7 -1 -10 7 -7 8 3 16 13 17 23 3 10 0 15 -7 11 -6 -4 -11 -1 -11 7 0 18 24
29 45 21 8 -4 15 -1 15 5 0 6 -7 11 -17 11 -9 0 -13 3 -9 7 4 4 15 8 24 8 9 0
21 10 28 23 6 12 20 33 31 45 10 12 28 39 38 60 11 20 24 37 28 37 5 0 6 8 3
17 -4 9 -2 20 5 23 6 4 20 32 30 61 10 30 22 53 27 52 5 -1 7 9 4 23 -3 20 0
26 17 31 16 4 19 8 10 19 -8 10 -7 20 4 41 42 82 52 99 64 108 16 12 8 45 -10
45 -7 0 2 8 19 18 48 27 78 51 72 57 -3 3 -16 8 -28 10 -32 6 -34 11 -16 36
12 18 13 26 3 37 -10 13 -8 14 11 8 14 -5 22 -3 22 4 0 6 -4 9 -8 6 -13 -8
-35 11 -28 23 4 6 13 8 19 4 7 -4 6 0 -2 10 -7 9 -28 19 -47 23 -19 3 -31 11
-27 16 4 7 -7 8 -31 4 -23 -4 -36 -3 -36 4 0 6 -10 14 -22 19 l-22 8 24 14
c63 36 313 -2 386 -58 19 -14 34 -21 34 -15 0 15 -47 45 -94 61 -77 26 -222
57 -266 56 -25 -1 -48 4 -52 9 -5 7 -8 7 -8 -1 0 -7 -7 -13 -15 -13 -14 0 -14
2 0 23 16 25 11 39 -11 30 -17 -6 -19 8 -3 24 15 15 3 33 -23 33 -17 0 -18 2
-8 15 12 14 7 20 -14 16 -4 -1 -14 6 -21 15 -7 11 -20 15 -33 12 -12 -3 -23
-1 -25 5 -1 5 -25 11 -51 13 -26 1 -53 7 -59 12 -7 6 -29 10 -49 10 -41 0 -41
-2 -3 -53 12 -16 24 -51 27 -76 5 -41 3 -46 -13 -42 -12 3 -15 11 -11 21 5 15
4 15 -12 0 -10 -10 -14 -23 -10 -30 4 -7 -2 -5 -13 5 -11 9 -24 17 -30 17 -6
0 -13 3 -15 8 -4 10 -113 43 -129 39 -8 -2 -11 -2 -6 0 4 3 5 9 1 14 -3 5 7
14 22 21 l27 13 -24 6 c-24 7 -24 7 -1 8 13 1 22 7 22 16 0 9 -6 15 -12 14
-16 -3 -48 11 -48 20 0 4 17 6 38 5 32 -1 33 -1 5 3 -22 3 -33 10 -34 21 0 11
-3 12 -6 5 -6 -15 -29 -17 -38 -3 -7 11 16 50 30 50 6 0 26 -13 45 -30 34 -29
70 -39 70 -21 0 23 -127 131 -154 131 -9 0 -15 5 -13 12 1 6 -7 13 -18 15 -11
1 -14 0 -7 -3 6 -3 12 -10 12 -15 0 -12 -61 -11 -80 1 -12 8 -11 10 7 10 40 0
33 17 -10 25 -23 4 -36 9 -29 12 6 3 12 17 11 31 0 15 -3 21 -6 15 -2 -7 -11
-13 -18 -13 -8 0 -12 -8 -10 -20 2 -11 0 -20 -4 -20 -13 0 -22 44 -10 48 6 3
6 9 -1 18 -9 10 -6 15 14 20 31 7 35 24 6 24 -13 0 -20 7 -20 20 0 11 -6 20
-14 20 -21 0 -30 18 -17 34 13 15 5 26 -20 26 -10 0 -21 9 -24 21 -10 29 -24
11 -27 -34 -3 -46 -22 -43 -26 4 -2 19 -8 40 -14 46 -7 9 -7 18 2 28 11 13 10
14 -4 9 -21 -8 -21 14 0 45 11 15 13 26 6 33 -6 6 -15 2 -26 -13 -13 -19 -16
-20 -16 -6 0 9 -3 17 -8 17 -10 0 -8 -73 3 -90 5 -9 4 -11 -3 -6 -7 4 -12 1
-12 -9 0 -9 -5 -13 -11 -9 -6 3 -8 17 -5 30 4 15 2 24 -5 24 -8 0 -10 12 -6
35 3 19 2 35 -4 35 -5 0 -9 -8 -9 -18 0 -10 -7 -27 -16 -38 -14 -18 -15 -17
-11 14 2 17 0 32 -5 32 -4 0 -8 -18 -8 -40 0 -26 4 -38 13 -36 6 1 9 1 5 -1
-4 -3 -9 -3 -11 -1 -9 8 -35 -31 -42 -62 -7 -32 -8 -33 -21 -15 -14 19 -20 44
-7 32 8 -8 34 47 39 80 1 13 -2 25 -7 28 -5 4 -9 -9 -9 -28 0 -38 -6 -48 -26
-40 -17 6 -20 94 -4 123 6 11 6 36 1 64 -7 36 -6 46 5 46 8 0 14 5 14 10 0 6
6 10 13 9 32 -4 37 1 31 28 -7 26 -7 27 10 10 23 -22 24 -22 20 9 -2 22 1 25
18 21 17 -5 19 -2 14 19 -4 14 -2 24 4 24 5 0 10 9 10 20 0 13 7 20 20 20 11
0 20 7 20 15 0 8 5 15 10 15 6 0 10 12 10 26 0 14 4 23 9 20 15 -9 31 19 24
42 -3 13 -18 29 -34 37 -26 14 -28 13 -34 -5 -4 -11 -11 -20 -17 -20 -7 0 -7
4 0 13 6 6 13 29 17 50 4 20 10 37 14 37 12 0 42 71 35 82 -5 7 -2 8 6 3 10
-6 12 0 7 28 -3 21 -2 37 4 37 5 0 9 -10 10 -22 0 -15 2 -18 6 -8 3 8 12 23
21 33 14 15 13 17 -1 17 -9 0 -27 -4 -41 -10 -21 -8 -26 -7 -26 6 0 10 6 14
15 10 8 -3 15 -2 15 3 0 5 9 11 20 14 13 3 18 10 14 21 -8 20 5 20 30 1 23
-17 36 -19 36 -5 0 5 -4 9 -9 7 -10 -2 -11 2 -11 31 0 13 2 14 9 3 11 -17 32
-5 24 14 -4 11 2 15 21 15 30 0 46 27 25 42 -10 7 -8 8 9 5 15 -4 25 0 29 9 3
8 11 14 19 14 8 0 14 7 14 15 0 8 5 15 11 15 6 0 9 6 6 13 -3 8 15 30 44 53
27 21 49 44 49 50 0 7 7 14 15 18 8 3 14 9 13 13 -4 16 27 53 44 53 20 0 23
11 8 26 -16 16 -3 38 33 59 18 10 36 23 40 29 5 6 5 0 2 -14 -6 -22 -6 -23 8
-10 9 8 17 27 19 42 4 28 18 51 18 30 0 -7 5 -12 10 -12 7 0 7 6 0 20 -8 16
-4 26 22 56 l33 37 -39 -6 c-30 -5 -36 -3 -28 5 16 16 15 48 0 49 -7 0 -4 4 8
9 18 7 47 71 49 110 1 8 6 14 12 13 5 -1 16 17 23 40 6 23 19 49 27 59 8 9 16
32 18 50 5 62 17 118 23 118 4 0 8 19 9 43 2 23 7 43 13 45 5 2 10 8 10 13 0
6 -6 7 -12 3 -10 -5 -10 -4 -1 6 11 12 37 5 29 -8 -8 -14 20 -28 44 -21 24 7
24 7 3 8 -28 1 -31 21 -4 21 11 0 23 5 26 10 3 6 23 10 43 10 21 0 54 9 75 20
39 21 43 20 28 -8 -6 -9 -18 -37 -28 -62 -20 -52 -130 -266 -237 -465 -12 -22
-23 -52 -24 -67 -3 -47 1 -42 68 81 15 27 33 47 45 49 11 2 31 19 45 39 14 20
52 64 85 97 68 68 115 127 115 144 0 13 43 81 52 82 3 0 4 -10 0 -22 -3 -14
-2 -19 6 -14 7 4 12 12 12 18 0 16 32 78 40 78 5 0 6 -10 4 -22 -4 -18 -1 -17
13 7 44 74 59 95 73 100 8 3 20 15 26 27 65 127 83 172 94 223 7 33 23 94 37
135 21 66 23 91 21 198 -2 75 1 123 7 126 6 2 5 8 -2 16 -10 11 -7 18 13 37
18 16 23 29 19 43 -4 11 -2 20 4 20 6 0 10 -3 10 -7 -1 -5 -1 -12 0 -18 1 -12
41 65 41 81 0 6 7 17 15 24 18 15 20 50 3 50 -6 0 -8 -3 -5 -7 4 -3 2 -12 -4
-20 -10 -11 -14 -10 -26 7 -8 11 -11 25 -8 30 3 6 1 10 -4 10 -6 0 -11 5 -11
10 0 6 11 8 25 4 29 -7 32 3 8 23 -16 13 -16 13 7 7 22 -5 23 -5 8 7 -17 14
-15 59 2 59 5 0 8 45 7 100 0 55 -4 100 -8 100 -4 0 -8 65 -8 144 -1 134 -4
152 -38 267 -19 68 -38 138 -41 154 -2 17 -10 37 -17 45 -7 8 -16 29 -20 47
-3 18 -24 50 -46 73 -21 22 -39 47 -39 55 0 8 -9 19 -20 25 -11 6 -20 17 -20
25 0 8 -5 15 -12 15 -6 0 -8 3 -5 6 3 4 -5 15 -18 26 -14 11 -46 50 -72 86
-58 84 -67 93 -60 65 3 -13 1 -23 -4 -23 -5 0 -9 4 -9 10 0 5 -14 25 -31 44
-17 20 -28 40 -24 46 4 6 -10 18 -32 28 -21 9 -54 29 -73 44 -54 41 -208 110
-231 103 -13 -5 -19 -2 -19 10 0 11 -8 16 -22 15 -30 -3 -68 10 -68 22 0 5 -4
7 -9 4 -4 -3 -23 -1 -42 5 -42 12 -185 20 -219 11 l-25 -6 25 -8 25 -8 -25 4
c-14 2 -34 7 -44 11 -13 6 -17 5 -13 -2 5 -8 -6 -10 -30 -7 -21 2 -78 6 -128
9 -49 3 -119 8 -155 10 -76 5 -101 0 -93 -21 3 -7 1 -14 -5 -14 -6 0 -19 -3
-29 -6 -16 -5 -16 -4 2 12 18 15 18 16 2 10 -10 -3 -23 -6 -28 -6 -6 0 -7 -4
-4 -10 3 -6 -1 -7 -9 -4 -14 5 -14 9 1 37 21 40 83 200 80 203 -2 2 -8 -6 -15
-16z m61 -207 c-7 -2 -19 -2 -25 0 -7 3 -2 5 12 5 14 0 19 -2 13 -5z m542 -33
c8 -13 -5 -13 -25 0 -13 8 -13 10 2 10 9 0 20 -4 23 -10z m-525 -75 c11 -13 8
-15 -21 -15 -32 1 -33 1 -15 15 24 18 21 18 36 0z m-440 -55 c0 -5 -7 -10 -16
-10 -8 0 -12 5 -9 10 3 6 10 10 16 10 5 0 9 -4 9 -10z m207 4 c-3 -3 -12 -4
-19 -1 -8 3 -5 6 6 6 11 1 17 -2 13 -5z m2 -30 c2 -2 -10 -4 -27 -4 -18 0 -32
5 -32 10 0 9 47 4 59 -6z m-16 -21 c-7 -2 -21 -2 -30 0 -10 3 -4 5 12 5 17 0
24 -2 18 -5z m-578 -163 c-28 -12 -47 -12 -40 0 3 6 18 10 33 9 24 0 25 -1 7
-9z m180 -40 c-3 -5 -11 -10 -16 -10 -6 0 -7 5 -4 10 3 6 11 10 16 10 6 0 7
-4 4 -10z m-115 -49 c0 -5 -10 -11 -23 -15 -13 -3 -36 -17 -51 -31 -15 -14
-34 -25 -42 -25 -7 0 -14 -4 -14 -10 0 -5 -9 -10 -20 -10 -32 0 -23 14 21 33
23 10 58 29 78 43 38 26 51 30 51 15z m-215 -91 c4 -6 -1 -7 -11 -3 -11 4 -15
3 -10 -5 4 -7 -7 -18 -26 -27 l-33 -16 24 21 c13 11 20 20 17 20 -4 0 -4 5 -1
10 8 13 32 13 40 0z m30 -29 c-3 -6 -11 -11 -17 -11 -6 0 -6 6 2 15 14 17 26
13 15 -4z m875 -49 c0 -4 26 -7 59 -7 32 0 65 -5 72 -11 8 -7 40 -19 72 -28
48 -14 180 -76 196 -92 2 -2 -2 -11 -9 -19 -11 -13 -10 -18 6 -30 18 -13 18
-14 -8 -24 -16 -6 -28 -15 -28 -21 0 -14 73 -6 78 9 5 14 42 15 42 1 0 -5 10
-9 21 -7 12 1 24 -4 26 -10 3 -9 -7 -13 -31 -13 -20 0 -36 -4 -36 -9 0 -12
-30 -22 -43 -14 -7 4 -3 9 9 14 14 6 9 8 -18 8 -29 1 -36 -2 -32 -14 3 -8 14
-17 25 -20 10 -4 19 -13 19 -21 0 -8 6 -14 14 -14 34 0 23 -20 -21 -41 -28
-12 -42 -23 -34 -26 7 -3 17 1 22 8 5 8 9 9 9 3 0 -6 19 -14 42 -17 24 -3 44
-10 46 -16 2 -6 18 -8 35 -6 26 4 28 3 7 -3 l-24 -8 24 -18 c18 -13 21 -20 12
-23 -15 -6 30 -33 54 -33 8 0 14 -4 14 -10 0 -5 7 -7 14 -4 10 4 20 -6 31 -31
15 -37 14 -38 -11 -61 -14 -14 -30 -22 -35 -18 -6 3 -39 6 -75 5 -60 0 -66 2
-76 25 -7 14 -25 32 -40 40 -21 11 -28 22 -28 45 0 27 -2 30 -22 22 -40 -14
-208 -9 -218 6 -5 10 -19 12 -44 8 -21 -3 -36 -2 -36 4 0 6 -5 7 -12 3 -10 -7
-86 -13 -162 -13 -15 0 -36 4 -46 9 -13 7 -20 6 -23 -3 -4 -7 -6 -6 -6 4 -1
14 -7 16 -36 9 -23 -5 -36 -4 -39 4 -3 8 -7 8 -13 0 -8 -11 -107 -11 -155 0
-14 3 -38 2 -53 -4 -15 -6 -24 -6 -20 -1 10 17 -12 22 -42 10 -15 -7 -43 -11
-60 -10 -48 4 -61 -9 -27 -25 l29 -13 -30 6 c-48 10 -264 83 -225 76 61 -11
69 -6 159 84 48 48 114 112 147 140 32 29 66 59 74 67 8 8 33 22 55 31 22 9
52 23 67 30 15 7 36 11 47 8 12 -3 21 -1 21 5 0 6 14 13 30 17 17 4 30 13 30
21 0 8 5 14 11 14 5 0 7 -4 4 -10 -8 -13 19 -12 85 5 63 15 110 19 110 7z
m447 -88 c-3 -3 -12 -4 -19 -1 -8 3 -5 6 6 6 11 1 17 -2 13 -5z m-1332 -324
c3 -6 -1 -7 -10 -4 -17 7 -65 -31 -65 -52 0 -6 -15 -25 -32 -41 -18 -15 -49
-49 -68 -73 -19 -25 -42 -51 -51 -57 -10 -7 -25 -33 -35 -58 -9 -25 -23 -45
-32 -45 -12 0 -11 5 3 28 27 40 194 264 218 290 21 23 61 30 72 12z m160 -110
c3 -5 -2 -10 -13 -10 -10 0 -19 -7 -19 -15 0 -8 6 -15 13 -15 12 0 28 -29 21
-37 -3 -2 -14 -5 -26 -8 -31 -6 -41 -14 -35 -29 6 -16 -33 -66 -52 -66 -7 0
-20 -10 -28 -22 -11 -16 -16 -18 -17 -8 0 8 -7 1 -15 -17 -7 -17 -18 -34 -24
-38 -17 -10 -11 -61 10 -87 10 -14 17 -28 13 -31 -13 -14 22 -36 65 -42 111
-13 192 -41 192 -65 0 -5 -18 -8 -41 -7 -29 1 -44 -3 -52 -15 -11 -17 13 -45
79 -93 59 -43 84 -67 84 -85 0 -13 11 -19 49 -24 51 -7 67 -18 73 -51 4 -27
17 -35 55 -35 61 0 112 32 113 71 0 16 75 59 104 59 9 0 24 6 32 13 8 6 20 17
28 22 7 6 39 35 70 65 32 30 54 46 48 34 -17 -33 -183 -187 -251 -232 -82 -54
-128 -61 -223 -32 -172 52 -443 194 -530 278 -47 45 -48 66 -9 187 51 161 130
306 181 332 30 15 96 17 105 3z m206 -291 c21 -21 15 -29 -26 -29 -17 0 -36
-5 -41 -10 -14 -14 -116 -18 -120 -5 -5 15 117 71 145 66 13 -2 32 -12 42 -22z
m729 -99 c8 -5 11 -10 5 -10 -5 0 -17 5 -25 10 -8 5 -10 10 -5 10 6 0 17 -5
25 -10z m80 -40 c8 -5 11 -10 5 -10 -5 0 -17 5 -25 10 -8 5 -10 10 -5 10 6 0
17 -5 25 -10z m50 -20 c8 -5 11 -10 5 -10 -5 0 -17 5 -25 10 -8 5 -10 10 -5
10 6 0 17 -5 25 -10z m-1797 -55 c6 -15 -8 -30 -21 -22 -4 3 -7 -8 -7 -25 0
-20 -7 -35 -22 -45 -23 -15 -23 -15 -23 24 0 21 7 49 16 61 17 25 49 29 57 7z
m1587 -15 c-13 -8 -12 -10 3 -10 24 0 29 -2 50 -19 26 -23 21 -31 -15 -20 -18
5 -52 9 -75 9 -50 0 -54 9 -15 32 29 19 80 26 52 8z m-1550 -4 c0 -3 -4 -8
-10 -11 -5 -3 -10 -1 -10 4 0 6 5 11 10 11 6 0 10 -2 10 -4z m1997 -2 c-3 -3
-12 -4 -19 -1 -8 3 -5 6 6 6 11 1 17 -2 13 -5z m1033 -24 c0 -5 -4 -10 -10
-10 -5 0 -10 5 -10 10 0 6 5 10 10 10 6 0 10 -4 10 -10z m-1105 -40 c-3 -5
-13 -10 -21 -10 -8 0 -12 5 -9 10 3 6 13 10 21 10 8 0 12 -4 9 -10z m-402 -22
c48 -27 67 -51 67 -84 0 -18 -4 -35 -9 -38 -4 -3 -11 -19 -14 -36 -9 -40 -176
-200 -211 -200 -9 0 -16 -4 -16 -10 0 -14 -58 -12 -62 2 -9 27 -246 1 -267
-29 -7 -10 -58 -43 -66 -43 -10 0 -5 30 12 66 17 34 17 37 0 49 -23 17 -21 25
7 25 17 0 26 7 30 25 5 18 15 26 44 31 20 4 56 15 79 25 34 14 41 15 36 3 -11
-28 11 -13 106 78 147 139 204 169 264 136z m270 -189 c4 -15 0 -19 -18 -19
-29 0 -41 16 -25 35 14 17 36 10 43 -16z m-1837 -57 c-12 -11 -17 7 -9 34 l8
29 3 -28 c2 -16 1 -31 -2 -35z m2678 -66 c22 -34 21 -41 -11 -75 -26 -27 -28
-28 -62 -14 -65 25 -111 48 -111 54 0 12 25 27 60 36 20 5 35 16 35 24 0 38
58 22 89 -25z m221 -223 c-19 -38 -44 -79 -55 -93 l-20 -25 9 32 c5 18 22 48
37 68 15 19 24 38 21 42 -5 4 30 42 41 43 2 0 -13 -30 -33 -67z m-82 -138 c-3
-9 -8 -14 -10 -11 -3 3 -2 9 2 15 9 16 15 13 8 -4z m-223 -85 c-5 -19 -30 -53
-55 -77 -49 -46 -43 -45 -145 -21 -50 11 -152 50 -146 55 1 2 23 -4 47 -13 24
-8 56 -17 72 -19 15 -2 32 -7 39 -11 6 -4 9 -1 6 7 -8 20 10 49 30 49 11 0 13
-3 5 -8 -6 -4 12 -7 42 -7 29 0 53 2 52 5 -3 15 16 50 28 50 7 0 16 7 19 16
11 30 16 9 6 -26z m-1830 -364 c0 -3 -4 -8 -10 -11 -5 -3 -10 -1 -10 4 0 6 5
11 10 11 6 0 10 -2 10 -4z m1660 -180 c0 -2 -7 -9 -15 -16 -13 -11 -14 -10 -9
4 5 14 24 23 24 12z m-288 -218 c20 5 20 4 3 -21 -20 -32 -35 -27 -34 11 0 15
3 22 5 16 3 -7 14 -9 26 -6z m-32 -68 c0 -11 -7 -20 -15 -20 -13 0 -13 3 -3
20 7 11 14 20 15 20 2 0 3 -9 3 -20z m-98 -142 c-7 -7 -12 -8 -12 -2 0 14 12
26 19 19 2 -3 -1 -11 -7 -17z m-3577 -958 c-3 -5 -1 -10 6 -10 7 0 10 -3 6 -6
-9 -9 -28 6 -22 17 4 5 8 9 11 9 3 0 2 -4 -1 -10z m90 -10 c8 -13 -5 -13 -25
0 -13 8 -13 10 2 10 9 0 20 -4 23 -10z m95 -30 c18 -12 2 -12 -25 0 -13 6 -15
9 -5 9 8 0 22 -4 30 -9z m2747 -36 c-3 -3 -12 -4 -19 -1 -8 3 -5 6 6 6 11 1
17 -2 13 -5z m-54 -55 c-8 -29 -13 -23 -13 14 0 22 3 28 9 18 5 -7 6 -22 4
-32z m-2453 -24 c0 -12 -29 -3 -34 10 -4 13 -2 14 14 5 11 -6 20 -13 20 -15z
m2310 -40 c0 -25 -5 -45 -11 -45 -5 0 -8 4 -4 9 3 5 1 13 -5 16 -6 4 -9 3 -8
-2 2 -4 -1 -10 -6 -13 -5 -3 -11 5 -12 18 -3 14 1 22 11 22 8 0 15 9 15 20 0
11 5 20 10 20 6 0 10 -20 10 -45z m173 0 c-3 -9 -8 -14 -10 -11 -3 3 -2 9 2
15 9 16 15 13 8 -4z m-177 -80 c-4 -25 -14 -27 -25 -7 -6 11 -8 22 -5 25 10
10 32 -4 30 -18z m-439 9 c-3 -3 -12 -4 -19 -1 -8 3 -5 6 6 6 11 1 17 -2 13
-5z m-1417 -46 c0 -4 -9 -8 -20 -8 -11 0 -20 4 -20 9 0 6 9 9 20 8 11 -1 20
-5 20 -9z m2042 5 c-10 -4 -8 -8 5 -18 14 -11 15 -16 6 -26 -6 -6 -9 -18 -5
-27 4 -12 1 -14 -12 -9 -10 4 -22 7 -28 7 -6 0 -1 9 12 20 22 19 22 20 2 20
-15 0 -19 5 -15 20 3 12 13 20 27 19 11 0 15 -3 8 -6z m-194 -54 c1 -23 -1
-39 -3 -37 -8 8 -13 88 -6 83 5 -2 9 -23 9 -46z m382 31 c0 -5 -5 -10 -11 -10
-6 0 -9 -7 -5 -15 3 -9 0 -15 -9 -15 -18 0 -20 36 -2 43 20 9 27 8 27 -3z
m-2215 -50 c-4 -6 -11 -5 -19 2 -9 9 -10 16 -2 24 8 9 13 9 19 -2 4 -8 5 -19
2 -24z m2243 15 c-3 -3 -9 2 -12 12 -6 14 -5 15 5 6 7 -7 10 -15 7 -18z m-99
-35 c-1 -10 -2 -11 -6 -2 -2 6 -11 12 -19 12 -12 0 -12 4 -2 20 12 18 13 19
20 2 3 -9 7 -24 7 -32z m-2239 30 c0 -5 -4 -10 -9 -10 -6 0 -13 5 -16 10 -3 6
1 10 9 10 9 0 16 -4 16 -10z m-10 -31 c0 -5 -7 -6 -16 -2 -10 4 -17 -2 -21
-16 -4 -14 -11 -20 -20 -17 -8 3 -17 6 -19 6 -3 0 3 10 13 23 12 16 24 22 40
19 13 -2 23 -8 23 -13z m2407 -21 c-3 -8 -6 -5 -6 6 -1 11 2 17 5 13 3 -3 4
-12 1 -19z m-293 -45 c-7 -15 -8 -14 -12 10 -2 15 -8 25 -13 22 -5 -4 -9 2 -9
12 0 16 2 15 21 -4 16 -15 19 -27 13 -40z m30 32 c-4 -8 -8 -15 -10 -15 -2 0
-4 7 -4 15 0 8 4 15 10 15 5 0 7 -7 4 -15z m-157 -17 c-3 -8 -6 -5 -6 6 -1 11
2 17 5 13 3 -3 4 -12 1 -19z m301 -30 c14 -16 20 -28 14 -28 -7 0 -12 6 -12
13 -1 6 -10 1 -20 -12 -15 -18 -20 -19 -20 -7 0 9 4 16 10 16 16 0 -1 30 -19
31 -10 0 -11 2 -3 6 6 2 12 12 13 21 0 14 2 14 6 2 3 -8 17 -27 31 -42z m92
42 c0 -5 -2 -10 -4 -10 -3 0 -8 5 -11 10 -3 6 -1 10 4 10 6 0 11 -4 11 -10z
m-1070 -15 c7 -8 9 -15 5 -15 -4 0 -2 -6 4 -13 6 -8 7 -18 3 -22 -4 -5 1 -5
11 -2 11 4 16 3 12 -3 -3 -6 -1 -10 5 -10 6 0 9 -4 5 -10 -12 -20 -54 20 -69
68 -8 25 5 29 24 7z m910 5 c0 -5 -6 -10 -14 -10 -8 0 -18 5 -21 10 -3 6 3 10
14 10 12 0 21 -4 21 -10z m-2450 -4 c0 -11 -19 -15 -25 -6 -3 5 1 10 9 10 9 0
16 -2 16 -4z m2401 -21 c5 4 9 -3 9 -14 0 -11 -5 -23 -12 -27 -7 -4 -8 -3 -4
4 4 7 2 12 -3 12 -6 0 -10 12 -10 28 1 17 3 20 6 9 2 -9 9 -15 14 -12z m174
15 c3 -5 1 -10 -4 -10 -6 0 -11 5 -11 10 0 6 2 10 4 10 3 0 8 -4 11 -10z
m-1491 -22 c59 -1 66 -3 50 -15 -17 -12 -16 -13 4 -13 12 0 22 -5 22 -11 0 -5
5 -7 12 -3 7 5 9 2 5 -9 -4 -10 0 -17 11 -20 11 -3 9 -5 -7 -6 -14 0 -33 6
-43 16 -20 18 -25 4 -6 -15 9 -9 8 -12 -4 -12 -9 0 -22 -2 -30 -3 -7 -2 -10
-2 -5 0 12 8 -3 22 -17 17 -8 -3 -17 -1 -21 5 -3 6 -11 11 -17 11 -6 0 -5 -7
3 -17 13 -17 13 -17 -13 0 -37 23 -45 21 -22 -5 19 -21 19 -21 -1 -14 -11 4
-35 10 -54 12 -30 4 -33 2 -28 -16 3 -11 1 -20 -4 -20 -5 0 -9 5 -9 11 0 13
-72 8 -81 -5 -10 -14 -39 1 -39 20 0 10 5 14 15 10 8 -3 15 -1 15 3 0 5 -6 11
-12 14 -9 3 -5 11 10 25 24 21 116 47 133 36 5 -3 9 0 9 6 0 7 10 9 28 6 15
-4 58 -7 96 -8z m229 -4 c20 -4 37 -11 37 -16 0 -6 -11 -7 -27 -3 -16 4 -57
11 -93 15 l-65 7 55 1 c30 1 72 -1 93 -4z m1051 -20 c3 -8 2 -12 -4 -9 -6 3
-10 10 -10 16 0 14 7 11 14 -7z m240 0 c3 -8 2 -12 -4 -9 -6 3 -10 10 -10 16
0 14 7 11 14 -7z m-2504 2 c0 -11 -19 -15 -25 -6 -3 5 1 10 9 10 9 0 16 -2 16
-4z m1352 -5 c-12 -7 -62 -4 -62 5 0 2 17 4 38 4 23 0 32 -3 24 -9z m-155 -12
c17 -15 16 -26 -3 -33 -10 -4 -25 1 -34 9 -12 11 -19 12 -22 5 -2 -7 -10 -5
-20 7 -16 17 -14 18 24 20 23 2 47 -2 55 -8z m93 -9 c27 -21 27 -21 -7 -25
-13 -1 -23 2 -23 7 0 5 -4 7 -9 4 -5 -3 -15 2 -22 11 -12 15 -12 16 4 10 9 -3
17 -2 17 3 0 15 12 12 40 -10z m1062 -20 c4 0 8 -10 8 -22 -1 -21 -2 -22 -14
-5 -7 9 -21 17 -30 17 -9 0 -16 5 -16 11 0 5 5 7 10 4 6 -3 10 4 11 17 l0 23
11 -22 c6 -13 15 -23 20 -23z m18 20 c0 -5 -2 -10 -4 -10 -3 0 -8 5 -11 10 -3
6 -1 10 4 10 6 0 11 -4 11 -10z m-80 -4 c0 -3 -4 -8 -10 -11 -5 -3 -10 -1 -10
4 0 6 5 11 10 11 6 0 10 -2 10 -4z m138 -14 c6 -18 -15 -14 -22 4 -4 10 -1 14
6 12 6 -2 14 -10 16 -16z m-38 -23 c0 -6 -4 -7 -10 -4 -5 3 -10 11 -10 16 0 6
5 7 10 4 6 -3 10 -11 10 -16z m-890 1 c0 -5 -2 -10 -4 -10 -3 0 -8 5 -11 10
-3 6 -1 10 4 10 6 0 11 -4 11 -10z m8 -45 c-3 -3 -9 2 -12 12 -6 14 -5 15 5 6
7 -7 10 -15 7 -18z m832 5 c0 -11 -4 -20 -10 -20 -5 0 -10 9 -10 20 0 11 5 20
10 20 6 0 10 -9 10 -20z m57 -14 c-9 -11 -14 -10 -26 1 -12 13 -12 16 0 23 20
13 42 -8 26 -24z m297 8 c5 -12 2 -15 -10 -10 -8 3 -25 6 -37 7 -20 1 -20 2 3
9 36 12 37 12 44 -6z m-550 -9 c3 -8 1 -15 -4 -15 -6 0 -10 7 -10 15 0 8 2 15
4 15 2 0 6 -7 10 -15z m676 5 c0 -5 -7 -10 -16 -10 -8 0 -12 5 -9 10 3 6 10
10 16 10 5 0 9 -4 9 -10z m-1303 -32 c-3 -8 -6 -5 -6 6 -1 11 2 17 5 13 3 -3
4 -12 1 -19z m57 -28 l7 -25 -15 25 c-9 14 -15 32 -15 40 0 13 1 13 8 0 5 -8
12 -26 15 -40z m1173 24 c-3 -3 -12 -4 -19 -1 -8 3 -5 6 6 6 11 1 17 -2 13 -5z
m79 -8 c19 -20 18 -25 -6 -23 -12 1 -20 8 -20 19 0 22 7 23 26 4z m-1278 -31
c-3 -3 -9 2 -12 12 -6 14 -5 15 5 6 7 -7 10 -15 7 -18z m1139 19 c-3 -3 -12
-4 -19 -1 -8 3 -5 6 6 6 11 1 17 -2 13 -5z m6 -41 c-7 -2 -19 -2 -25 0 -7 3
-2 5 12 5 14 0 19 -2 13 -5z m-1093 -34 c0 -4 -4 -11 -10 -14 -5 -3 -10 -1
-10 5 0 6 -5 8 -12 4 -6 -4 -8 -3 -5 3 7 11 37 13 37 2z m610 7 c0 -2 -7 -7
-16 -10 -8 -3 -12 -2 -9 4 6 10 25 14 25 6z m40 -57 c0 -6 -4 -7 -10 -4 -5 3
-10 11 -10 16 0 6 5 7 10 4 6 -3 10 -11 10 -16z m-20 -14 c14 -19 14 -19 -2
-6 -10 7 -18 18 -18 24 0 6 1 8 3 6 1 -2 9 -13 17 -24z m-399 -47 c11 -21 11
-22 -4 -9 -10 7 -17 17 -17 22 0 15 9 10 21 -13z m-81 -28 c12 -8 12 -10 1
-10 -11 0 -10 -5 4 -20 10 -11 15 -23 12 -27 -4 -3 -7 -1 -7 5 0 7 -9 12 -21
12 -11 0 -28 8 -37 17 -16 16 -16 16 1 10 11 -4 17 -2 17 8 0 17 9 19 30 5z
m-79 -42 c10 -13 18 -26 19 -30 0 -11 78 -88 89 -88 6 0 11 -4 11 -10 0 -5 5
-10 11 -10 5 0 24 -14 42 -31 22 -21 28 -33 19 -36 -10 -4 -9 -9 4 -24 9 -10
13 -19 9 -19 -15 0 -175 174 -205 223 -31 50 -31 62 1 25z m1239 12 c0 -5 6
-10 14 -10 8 0 18 -4 21 -10 4 -7 -3 -7 -20 0 -35 13 -38 13 -31 -5 8 -22 -12
-18 -24 5 -12 22 -42 28 -34 6 7 -18 -33 -28 -58 -15 -25 14 -14 27 17 21 15
-2 25 0 25 7 0 6 19 11 45 11 25 0 45 -4 45 -10z m85 -30 c3 -5 -3 -10 -15
-10 -12 0 -18 5 -15 10 3 6 10 10 15 10 5 0 12 -4 15 -10z m-230 -10 c16 -7
12 -9 -18 -9 -23 -1 -36 3 -32 9 7 12 23 12 50 0z m191 -16 c19 -15 19 -15 -1
-6 -11 5 -27 12 -35 15 -13 5 -13 6 1 6 8 1 24 -6 35 -15z m-1186 -24 c0 -5
-8 -10 -17 -10 -15 0 -16 2 -3 10 19 12 20 12 20 0z m180 6 c0 -3 -4 -8 -10
-11 -5 -3 -10 -1 -10 4 0 6 5 11 10 11 6 0 10 -2 10 -4z m980 -6 c0 -5 -4 -10
-9 -10 -6 0 -13 5 -16 10 -3 6 1 10 9 10 9 0 16 -4 16 -10z m75 0 c3 -6 -1 -7
-9 -4 -18 7 -21 14 -7 14 6 0 13 -4 16 -10z m-705 -10 c0 -5 -2 -10 -4 -10 -3
0 -8 5 -11 10 -3 6 -1 10 4 10 6 0 11 -4 11 -10z m670 0 c0 -5 -4 -10 -9 -10
-6 0 -13 5 -16 10 -3 6 1 10 9 10 9 0 16 -4 16 -10z m-2470 -32 c0 -4 0 -10
-1 -13 0 -3 11 -20 25 -36 15 -17 26 -37 26 -44 0 -7 15 -26 33 -41 21 -18 27
-29 19 -32 -9 -2 0 -17 25 -41 21 -20 34 -33 29 -28 -6 4 -17 7 -25 7 -11 0
-10 -3 4 -14 10 -7 20 -23 22 -35 3 -21 2 -21 -25 -4 -15 10 -41 32 -59 50
-18 17 -40 36 -50 42 -15 9 -16 12 -4 20 12 8 12 12 2 25 -9 11 -10 16 -2 16
20 0 11 15 -25 40 -19 14 -41 30 -47 36 -7 5 -21 14 -32 18 -13 5 -15 10 -8
13 7 2 26 -5 42 -16 16 -12 32 -21 35 -21 11 0 -6 54 -23 73 -15 18 -14 18 12
6 15 -7 27 -16 27 -21z m1324 16 c3 -8 2 -12 -4 -9 -6 3 -10 10 -10 16 0 14 7
11 14 -7z m-34 -4 c0 -5 -2 -10 -4 -10 -3 0 -8 5 -11 10 -3 6 -1 10 4 10 6 0
11 -4 11 -10z m-1405 -10 c3 -5 1 -10 -4 -10 -6 0 -11 5 -11 10 0 6 2 10 4 10
3 0 8 -4 11 -10z m2635 -6 c0 -14 -3 -14 -15 -4 -8 7 -15 14 -15 16 0 2 7 4
15 4 8 0 15 -7 15 -16z m-400 -3 c0 -18 -18 -21 -30 -6 -10 13 -9 15 9 15 11
0 21 -4 21 -9z m793 -8 c-7 -2 -19 -2 -25 0 -7 3 -2 5 12 5 14 0 19 -2 13 -5z
m-423 -17 c0 -2 3 -11 6 -20 3 -9 1 -16 -5 -16 -6 0 -11 6 -11 14 0 8 -8 17
-17 19 -14 4 -12 5 5 6 12 0 22 -1 22 -3z m-2606 -52 c5 -14 4 -15 -9 -4 -17
14 -19 20 -6 20 5 0 12 -7 15 -16z m1503 -16 c-3 -8 -6 -5 -6 6 -1 11 2 17 5
13 3 -3 4 -12 1 -19z m583 2 c0 -5 -2 -10 -4 -10 -3 0 -8 5 -11 10 -3 6 -1 10
4 10 6 0 11 -4 11 -10z m-1985 -50 c3 -5 1 -10 -4 -10 -6 0 -11 5 -11 10 0 6
2 10 4 10 3 0 8 -4 11 -10z m-50 -18 c-3 -3 -11 0 -18 7 -9 10 -8 11 6 5 10
-3 15 -9 12 -12z m67 -38 c54 -38 40 -41 -18 -5 -26 17 -42 31 -34 31 8 0 31
-12 52 -26z m768 -38 c0 -4 -10 -2 -22 6 -13 8 -43 20 -67 27 -31 9 -40 15
-31 21 15 9 119 -38 120 -54z m880 48 c0 -2 -7 -4 -15 -4 -8 0 -15 4 -15 10 0
5 7 7 15 4 8 -4 15 -8 15 -10z m40 6 c0 -5 -2 -10 -4 -10 -3 0 -8 5 -11 10 -3
6 -1 10 4 10 6 0 11 -4 11 -10z m1368 -16 c1 -1 -6 -4 -18 -7 -15 -4 -20 0
-20 15 0 18 2 19 18 7 9 -7 18 -14 20 -15z m-2876 9 c-6 -3 -9 -9 -6 -15 4 -6
-2 -5 -15 1 -27 15 -27 16 7 17 15 1 21 -1 14 -3z m333 -3 c-11 -5 -27 -9 -35
-9 -9 0 -8 4 5 9 11 5 27 9 35 9 9 0 8 -4 -5 -9z m62 4 c-3 -3 -12 -4 -19 -1
-8 3 -5 6 6 6 11 1 17 -2 13 -5z m249 -31 c-7 -7 -26 7 -26 19 0 6 6 6 15 -2
9 -7 13 -15 11 -17z m-860 -10 c-6 -6 -36 9 -36 18 0 5 9 4 20 -3 10 -7 18
-14 16 -15z m724 6 c11 -7 5 -9 -20 -7 -43 2 -52 6 -44 19 6 10 37 4 64 -12z
m840 11 c8 -5 11 -10 5 -10 -5 0 -3 -5 5 -10 13 -8 12 -10 -2 -10 -10 0 -18 5
-18 10 0 6 -7 10 -15 10 -8 0 -15 5 -15 10 0 13 20 13 40 0z m-1609 -27 c13
-16 12 -17 -3 -4 -10 7 -18 15 -18 17 0 8 8 3 21 -13z m1567 11 c31 -9 28 -21
-8 -26 -24 -4 -30 -1 -30 14 0 20 4 21 38 12z m-1473 -42 c-6 -7 -35 18 -35
31 0 5 9 2 20 -8 11 -10 18 -20 15 -23z m442 32 c-3 -3 -12 -4 -19 -1 -8 3 -5
6 6 6 11 1 17 -2 13 -5z m-372 -16 c7 -7 25 -22 40 -32 45 -34 69 -56 57 -56
-6 0 -27 14 -45 30 -19 17 -38 30 -41 30 -4 0 -16 9 -28 20 -13 11 -16 20 -9
20 7 0 18 -6 26 -12z m665 2 c8 -5 11 -12 8 -15 -4 -4 -17 0 -30 9 -24 17 -5
23 22 6z m-450 -9 c0 -6 -4 -12 -8 -15 -5 -3 -9 1 -9 9 0 8 4 15 9 15 4 0 8
-4 8 -9z m531 -8 c13 -15 12 -15 -8 -4 -24 12 -29 21 -14 21 5 0 15 -7 22 -17z
m88 1 c2 -2 2 -7 -2 -10 -3 -3 -16 2 -29 11 l-23 17 25 -7 c14 -4 27 -9 29
-11z m-452 -16 c-3 -8 -6 -5 -6 6 -1 11 2 17 5 13 3 -3 4 -12 1 -19z m993 6
c0 -2 -7 -4 -15 -4 -8 0 -15 4 -15 10 0 5 7 7 15 4 8 -4 15 -8 15 -10z m-1260
-19 c14 -19 14 -19 -2 -6 -10 7 -18 18 -18 24 0 6 1 8 3 6 1 -2 9 -13 17 -24z
m530 15 c0 -5 -7 -7 -15 -4 -8 4 -15 8 -15 10 0 2 7 4 15 4 8 0 15 -4 15 -10z
m160 -20 c8 -5 12 -11 10 -14 -3 -2 -14 2 -24 10 -22 15 -10 19 14 4z m100 0
c0 -5 -4 -10 -9 -10 -6 0 -13 5 -16 10 -3 6 1 10 9 10 9 0 16 -4 16 -10z m465
0 c8 -13 -5 -13 -25 0 -13 8 -13 10 2 10 9 0 20 -4 23 -10z m40 -8 c-3 -3 -11
0 -18 7 -9 10 -8 11 6 5 10 -3 15 -9 12 -12z m-1405 -2 c0 -5 -2 -10 -4 -10
-3 0 -8 5 -11 10 -3 6 -1 10 4 10 6 0 11 -4 11 -10z m258 -12 c-6 -18 -30 -21
-51 -6 -15 12 -13 13 19 16 25 1 34 -2 32 -10z m2031 2 c-10 -7 -49 -2 -49 5
0 2 14 3 31 3 17 -1 25 -4 18 -8z m-2099 -19 c0 -12 -20 -25 -27 -18 -7 7 6
27 18 27 5 0 9 -4 9 -9z m620 -11 c0 -5 -2 -10 -4 -10 -3 0 -8 5 -11 10 -3 6
-1 10 4 10 6 0 11 -4 11 -10z m35 -28 c-3 -3 -11 0 -18 7 -9 10 -8 11 6 5 10
-3 15 -9 12 -12z m-870 -2 c3 -5 2 -10 -4 -10 -5 0 -13 5 -16 10 -3 6 -2 10 4
10 5 0 13 -4 16 -10z m2254 -29 c6 -1 -32 -30 -40 -31 -4 0 -9 9 -12 19 -5 19
0 20 52 12z m-2449 -21 c0 -5 -2 -10 -4 -10 -3 0 -8 5 -11 10 -3 6 -1 10 4 10
6 0 11 -4 11 -10z m31 -27 c13 -16 12 -17 -3 -4 -10 7 -18 15 -18 17 0 8 8 3
21 -13z m1893 2 c3 -8 1 -15 -3 -15 -5 0 -11 7 -15 15 -3 8 -1 15 3 15 5 0 11
-7 15 -15z m36 -15 c0 -11 -2 -20 -4 -20 -2 0 -6 9 -9 20 -3 11 -1 20 4 20 5
0 9 -9 9 -20z m249 11 c10 -7 11 -13 2 -27 -10 -18 -10 -18 -11 3 0 12 -8 24
-17 26 -13 3 -14 5 -3 6 8 0 21 -3 29 -8z m-392 -7 c-3 -3 -12 -4 -19 -1 -8 3
-5 6 6 6 11 1 17 -2 13 -5z m599 -19 c22 -17 15 -19 -20 -6 -17 7 -26 7 -28
-1 -5 -14 -38 -3 -38 12 0 15 63 12 86 -5z m-528 -7 c9 -9 12 -9 12 0 0 7 5
12 10 12 6 0 10 -7 10 -16 0 -10 6 -14 15 -11 8 4 17 1 21 -4 3 -6 15 -9 25
-6 11 3 16 1 13 -4 -3 -6 0 -17 8 -26 11 -14 10 -15 -9 -9 -28 9 -51 -2 -32
-15 8 -5 10 -9 4 -9 -5 0 -16 4 -24 9 -12 8 -12 12 -2 24 9 12 9 17 0 23 -7 4
-15 2 -17 -4 -2 -7 -8 -12 -13 -12 -15 0 -99 40 -99 46 0 4 6 4 13 1 6 -2 23
-7 37 -11 l25 -7 -25 15 c-23 14 -23 15 -4 16 11 0 25 -5 32 -12z m160 -3 c2
-2 0 -5 -5 -8 -4 -3 -21 1 -38 8 l-30 14 35 -6 c19 -3 36 -7 38 -8z m722 5 c0
-5 -2 -10 -4 -10 -3 0 -8 5 -11 10 -3 6 -1 10 4 10 6 0 11 -4 11 -10z m-2865
-20 c3 -6 -1 -7 -9 -4 -18 7 -21 14 -7 14 6 0 13 -4 16 -10z m2495 0 c0 -5 -4
-10 -10 -10 -5 0 -10 5 -10 10 0 6 5 10 10 10 6 0 10 -4 10 -10z m-2393 -6
c-3 -3 -12 -4 -19 -1 -8 3 -5 6 6 6 11 1 17 -2 13 -5z m2768 -14 c4 -6 -8 -10
-29 -10 -20 0 -36 5 -36 10 0 6 13 10 29 10 17 0 33 -4 36 -10z m-637 -27
c-19 -5 -20 -43 -2 -43 7 0 14 -5 16 -10 2 -6 20 -11 41 -12 41 -1 51 -22 16
-33 -22 -7 -79 12 -79 26 0 5 -9 9 -20 9 -21 0 -29 29 -7 31 10 0 10 2 0 6
-29 11 -5 31 37 31 11 0 10 -2 -2 -5z m43 -13 c-13 -11 -17 -20 -10 -20 7 0
10 -3 6 -6 -3 -4 -14 -3 -24 0 -16 7 -15 9 7 26 33 26 52 25 21 0z m554 10 c3
-5 1 -10 -4 -10 -6 0 -11 5 -11 10 0 6 2 10 4 10 3 0 8 -4 11 -10z m-661 -16
c18 -7 10 -34 -10 -34 -8 0 -14 4 -14 8 0 5 -10 14 -22 20 -23 11 -23 11 4 11
14 1 33 -2 42 -5z m696 -3 c0 -5 -6 -12 -12 -14 -10 -4 -9 -8 2 -16 17 -12 5
-14 -65 -11 -49 2 -40 -11 11 -16 21 -2 41 -7 46 -12 8 -8 -102 -4 -110 3 -2
2 -1 13 3 24 5 16 15 21 44 21 22 0 44 6 51 15 14 17 30 20 30 6z m-1476 -17
c5 -14 4 -15 -9 -4 -17 14 -19 20 -6 20 5 0 12 -7 15 -16z m1211 -84 c3 -5 1
-10 -4 -10 -6 0 -11 5 -11 10 0 6 2 10 4 10 3 0 8 -4 11 -10z m435 -10 c0 -5
-5 -10 -11 -10 -5 0 -7 5 -4 10 3 6 8 10 11 10 2 0 4 -4 4 -10z m-1720 -31 c0
-6 -4 -7 -10 -4 -5 3 -10 11 -10 16 0 6 5 7 10 4 6 -3 10 -11 10 -16z m100
-14 c11 -13 10 -14 -4 -9 -9 3 -16 10 -16 15 0 13 6 11 20 -6z m-56 -83 c-5
-4 -12 -11 -15 -15 -3 -5 -9 -2 -12 5 -3 9 3 14 15 15 11 1 16 -1 12 -5z m3
-44 c-3 -8 -6 -5 -6 6 -1 11 2 17 5 13 3 -3 4 -12 1 -19z m-16 -45 c13 -16 12
-17 -3 -4 -10 7 -18 15 -18 17 0 8 8 3 21 -13z m62 -33 c8 0 8 -3 0 -11 -9 -9
-16 -7 -30 7 -17 17 -17 18 0 11 10 -4 24 -7 30 -7z m-9 -59 c-2 -3 -12 3 -22
13 -16 17 -16 18 5 5 12 -7 20 -15 17 -18z m-176 -16 c-3 -3 -9 2 -12 12 -6
14 -5 15 5 6 7 -7 10 -15 7 -18z m87 -23 c-7 -8 -35 13 -35 26 0 13 3 12 19
-4 10 -10 17 -20 16 -22z m80 -12 c3 -6 -1 -7 -9 -4 -18 7 -21 14 -7 14 6 0
13 -4 16 -10z m-141 -49 c-3 -3 -10 2 -15 11 -5 10 -16 15 -23 12 -8 -3 -17 0
-22 7 -4 8 -3 10 4 5 7 -4 12 -2 12 5 0 7 11 2 25 -11 14 -13 22 -26 19 -29z
m-59 -11 c27 -30 12 -34 -15 -5 -13 14 -19 25 -13 25 5 0 18 -9 28 -20z m55
-50 c0 -5 -7 -7 -15 -4 -8 4 -12 10 -9 15 6 11 24 2 24 -11z m-100 -104 c-7
-7 -14 -6 -22 3 -11 10 -9 11 7 5 18 -7 19 -6 5 12 -14 18 -14 18 3 5 12 -10
15 -17 7 -25z m-80 -56 c0 -5 -4 -10 -9 -10 -6 0 -13 5 -16 10 -3 6 1 10 9 10
9 0 16 -4 16 -10z"/>
<path d="M6828 6923 c7 -3 16 -2 19 1 4 3 -2 6 -13 5 -11 0 -14 -3 -6 -6z"/>
<path d="M6400 6211 c0 -5 5 -13 10 -16 6 -3 10 -2 10 4 0 5 -4 13 -10 16 -5
3 -10 2 -10 -4z"/>
<path d="M230 11800 c0 -5 5 -10 11 -10 5 0 7 5 4 10 -3 6 -8 10 -11 10 -2 0
-4 -4 -4 -10z"/>
<path d="M95 11747 c-4 -10 -5 -21 -1 -24 10 -10 18 4 13 24 -4 17 -4 17 -12
0z"/>
<path d="M180 11729 c0 -6 -9 -8 -22 -3 -20 6 -21 5 -6 -10 24 -24 58 -21 51
4 -6 21 -23 28 -23 9z"/>
<path d="M220 11700 c0 -5 5 -10 10 -10 6 0 10 5 10 10 0 6 -4 10 -10 10 -5 0
-10 -4 -10 -10z"/>
<path d="M110 11498 c0 -5 5 -8 10 -8 6 0 10 -7 10 -15 0 -8 5 -15 11 -15 6 0
9 7 5 15 -3 8 -1 15 4 15 6 0 10 3 10 8 0 4 -11 7 -25 7 -14 0 -25 -3 -25 -7z"/>
<path d="M90 11470 c0 -5 5 -10 11 -10 5 0 7 5 4 10 -3 6 -8 10 -11 10 -2 0
-4 -4 -4 -10z"/>
<path d="M155 11450 c-3 -5 1 -10 9 -10 9 0 16 5 16 10 0 6 -4 10 -9 10 -6 0
-13 -4 -16 -10z"/>
<path d="M120 11431 c0 -6 -11 -11 -25 -11 -18 0 -28 -7 -35 -25 -5 -14 -21
-30 -35 -37 -24 -11 -26 -15 -23 -77 l3 -65 40 -12 c48 -14 59 -10 42 17 -10
16 -9 22 3 29 45 28 46 30 28 44 -16 12 -15 15 13 35 28 21 29 24 13 35 -9 7
-14 18 -10 24 4 7 2 12 -5 12 -9 0 -9 3 0 14 8 10 9 16 1 21 -5 3 -10 1 -10
-4z"/>
<path d="M0 11411 c0 -5 9 -7 20 -4 26 7 26 13 0 13 -11 0 -20 -4 -20 -9z"/>
<path d="M310 11351 c0 -5 5 -13 10 -16 6 -3 10 -2 10 4 0 5 -4 13 -10 16 -5
3 -10 2 -10 -4z"/>
<path d="M291 11238 c0 -13 4 -32 9 -43 7 -15 9 -10 8 23 -1 23 -6 42 -10 42
-4 0 -8 -10 -7 -22z"/>
<path d="M1 10943 l1 -248 28 85 c16 47 29 96 30 110 0 14 7 42 14 62 14 39
10 101 -5 77 -6 -10 -10 -10 -23 0 -22 18 -20 34 3 28 12 -3 22 1 26 12 6 14
8 14 14 -3 7 -19 8 -19 13 2 5 16 2 22 -10 22 -12 1 -10 5 7 14 l24 14 -24 6
c-53 16 -79 29 -79 42 0 8 6 11 17 7 11 -4 14 -3 9 5 -4 7 -16 12 -27 12 -18
0 -19 -9 -18 -247z"/>
<path d="M7156 10441 c-16 -17 -13 -51 4 -51 6 0 30 52 30 66 0 10 -19 2 -34
-15z"/>
<path d="M295 10311 c-7 -22 0 -41 14 -41 5 0 6 12 4 28 -4 22 -2 24 7 12 9
-12 11 -12 8 -1 -7 23 -26 24 -33 2z"/>
<path d="M278 10233 c-19 -5 -25 -33 -8 -33 6 0 10 5 10 10 0 6 7 10 15 10 8
0 15 5 15 10 0 10 -3 11 -32 3z"/>
<path d="M192 10208 c-14 -14 -16 -48 -3 -48 8 0 23 51 17 57 -1 2 -8 -3 -14
-9z"/>
<path d="M164 10113 c-10 -42 -23 -53 -63 -53 -20 0 -42 -5 -49 -12 -9 -9 -12
-8 -12 7 0 18 -1 18 -20 0 -15 -14 -20 -29 -18 -54 3 -31 7 -35 50 -48 26 -7
50 -17 53 -22 11 -19 -8 -41 -35 -41 -28 0 -55 -21 -43 -33 3 -4 -1 -7 -10 -7
-14 0 -17 -12 -17 -76 0 -74 1 -76 22 -70 13 3 30 6 39 6 10 0 19 11 22 28 5
26 22 89 66 247 22 81 35 155 27 155 -3 0 -9 -12 -12 -27z"/>
<path d="M185 9927 c-4 -10 -5 -21 -1 -24 10 -10 18 4 13 24 -4 17 -4 17 -12
0z"/>
<path d="M160 9870 c0 -5 7 -7 15 -4 8 4 15 8 15 10 0 2 -7 4 -15 4 -8 0 -15
-4 -15 -10z"/>
<path d="M2490 9840 c0 -5 -7 -7 -15 -4 -10 4 -15 0 -15 -15 0 -12 3 -20 8
-20 21 4 24 -3 6 -17 -14 -11 -16 -17 -6 -21 10 -4 10 -8 1 -19 -17 -20 6 -18
26 3 11 11 15 26 11 44 -3 16 -1 29 6 31 6 2 8 10 4 16 -9 14 -26 16 -26 2z"/>
<path d="M271 9791 c-12 -8 -7 -30 27 -133 55 -167 71 -232 86 -363 2 -16 9
-43 15 -58 15 -39 14 -47 -8 -47 -23 0 -47 -25 -31 -35 5 -3 10 -1 10 4 0 6 7
11 15 11 12 0 14 -7 9 -26 -5 -20 -4 -25 5 -20 9 6 11 -6 7 -51 -3 -32 -8 -89
-11 -126 -3 -38 -7 -72 -10 -77 -3 -5 -1 -11 5 -15 6 -4 8 -10 5 -15 -3 -5 -8
-26 -11 -47 -2 -20 -11 -45 -20 -54 -9 -10 -13 -23 -9 -28 3 -6 0 -14 -8 -17
-21 -8 -17 -35 5 -28 10 3 18 1 18 -5 0 -5 -12 -11 -27 -13 -16 -2 -27 -7 -26
-13 1 -5 -4 -17 -10 -25 -7 -7 11 -1 38 14 80 45 141 65 254 87 161 30 155 28
141 44 -10 12 -9 15 8 15 12 0 24 -4 27 -10 3 -5 21 -10 38 -9 20 0 26 3 17 7
-8 4 -15 18 -15 32 0 20 5 25 22 23 35 -4 33 21 -4 68 -26 33 -34 52 -33 79 3
56 1 60 -27 71 l-28 11 30 24 c17 13 24 24 17 24 -9 0 -11 7 -7 20 5 16 2 20
-15 20 -12 0 -18 5 -15 10 3 6 15 10 26 10 30 0 35 29 11 74 -34 63 -29 113
11 107 4 0 7 2 7 5 0 9 -28 34 -38 34 -5 0 -12 9 -15 20 -3 11 -12 20 -21 20
-9 0 -16 5 -16 10 0 6 5 10 10 10 6 0 10 5 10 10 0 6 -6 10 -13 10 -6 0 -18
13 -24 28 -7 15 -27 42 -45 59 -130 124 -135 128 -165 124 -7 -1 -13 4 -13 12
0 8 -11 19 -25 25 -14 6 -25 16 -25 22 0 5 -5 10 -10 10 -6 0 -21 9 -33 21
-34 32 -95 53 -116 40z"/>
<path d="M2051 9704 c0 -11 3 -14 6 -6 3 7 2 16 -1 19 -3 4 -6 -2 -5 -13z"/>
<path d="M7320 9650 c8 -5 24 -10 34 -10 26 0 18 6 -19 14 -22 5 -26 4 -15 -4z"/>
<path d="M7250 9599 c-32 -6 -33 -7 -12 -14 18 -6 20 -10 10 -16 -10 -7 -9 -9
4 -9 26 0 48 11 58 31 11 20 6 20 -60 8z"/>
<path d="M2 9540 c0 -14 2 -19 5 -12 2 6 2 18 0 25 -3 6 -5 1 -5 -13z"/>
<path d="M7148 9507 c-7 -8 -20 -16 -28 -20 -13 -5 -13 -6 0 -6 8 -1 29 8 45
19 20 13 25 20 13 20 -9 0 -23 -6 -30 -13z"/>
<path d="M6336 9034 c-93 -234 -167 -427 -164 -429 2 -3 17 28 32 68 16 39 38
97 51 127 13 30 35 84 48 120 14 36 66 168 116 294 51 126 90 233 89 237 -2 4
-79 -184 -172 -417z"/>
<path d="M6672 9403 c-6 -3 -9 -10 -5 -15 4 -7 -1 -9 -14 -6 -18 5 -19 2 -12
-36 4 -22 5 -44 3 -48 -2 -4 0 -9 6 -13 5 -3 10 -22 10 -41 0 -19 5 -34 10
-34 6 0 10 3 11 8 3 37 10 81 16 102 17 65 9 94 -25 83z"/>
<path d="M5520 9390 c0 -5 7 -10 16 -10 8 0 12 5 9 10 -3 6 -10 10 -16 10 -5
0 -9 -4 -9 -10z"/>
<path d="M5461 9334 c0 -11 3 -14 6 -6 3 7 2 16 -1 19 -3 4 -6 -2 -5 -13z"/>
<path d="M7388 9343 c7 -3 16 -2 19 1 4 3 -2 6 -13 5 -11 0 -14 -3 -6 -6z"/>
<path d="M5758 9316 c-13 -10 -15 -15 -6 -24 9 -9 9 -12 0 -12 -7 0 -12 -4
-12 -10 0 -5 6 -10 14 -10 8 0 16 14 19 33 6 39 6 38 -15 23z"/>
<path d="M4327 9313 c-9 -2 -15 -9 -11 -14 3 -5 10 -6 16 -3 6 4 8 -1 3 -15
-4 -12 -2 -21 4 -21 6 0 11 5 11 10 0 18 35 11 59 -12 26 -23 130 -41 117 -19
-4 6 -11 9 -16 6 -5 -3 -13 3 -19 12 -6 10 -11 14 -11 9 0 -6 -6 -1 -14 10
-13 16 -18 17 -36 6 -23 -14 -40 -8 -40 15 0 9 -6 13 -15 9 -8 -3 -15 -1 -15
4 0 10 -3 11 -33 3z"/>
<path d="M4554 9308 c-4 -5 -4 -10 -3 -12 25 -16 59 -36 64 -36 3 0 5 11 5 24
0 19 -6 25 -30 28 -17 3 -33 1 -36 -4z"/>
<path d="M4260 9305 c0 -2 15 -12 33 -20 l32 -16 -24 21 c-22 19 -41 26 -41
15z"/>
<path d="M1402 9263 c-15 -3 -34 -22 -50 -49 -30 -49 -16 -47 -147 -25 -75 14
-175 14 -175 1 0 -14 83 -60 109 -60 18 0 21 -4 16 -20 -5 -16 -2 -20 16 -18
15 2 24 -3 27 -14 2 -12 -5 -17 -30 -20 l-33 -3 24 -14 c15 -8 26 -9 30 -3 3
5 21 8 40 7 l34 -3 -29 24 -29 23 37 1 c36 0 36 0 36 -42 -1 -64 1 -68 18 -68
19 0 13 -25 -7 -26 -8 0 -24 3 -36 8 -17 5 -26 2 -38 -15 -15 -21 -14 -22 16
-30 36 -9 31 -21 -9 -22 -21 0 -28 -5 -30 -25 -2 -14 -9 -31 -15 -38 -22 -28
8 -34 128 -27 l116 7 6 29 c3 16 9 29 13 29 13 0 30 -27 22 -35 -4 -4 3 -5 16
-2 12 3 28 -1 36 -8 7 -8 31 -17 52 -20 34 -6 37 -5 23 6 -9 8 -29 32 -44 54
-16 22 -41 54 -56 70 -15 17 -29 39 -32 50 -4 18 -5 18 -6 -2 -1 -15 -7 -23
-19 -23 -26 0 -62 28 -62 49 0 10 -9 21 -20 24 -22 6 -28 27 -7 27 6 0 25 -7
41 -15 16 -9 31 -14 33 -11 5 4 -42 42 -60 49 -19 7 0 20 30 21 16 1 27 4 26
9 -2 4 -3 18 -3 32 0 14 -5 25 -11 25 -6 0 -16 6 -24 13 -11 11 -11 19 -2 37
15 29 37 38 37 15 0 -22 24 -45 47 -45 11 0 28 -6 38 -14 17 -12 18 -15 3 -30
-9 -9 -24 -13 -32 -10 -22 9 -20 -9 4 -31 11 -10 17 -21 15 -25 -3 -5 5 -6 17
-2 14 3 19 1 14 -6 -15 -24 35 -54 112 -68 8 -1 22 -10 31 -18 10 -9 24 -16
32 -16 10 0 11 -2 2 -8 -9 -6 -9 -13 0 -32 9 -18 24 -27 57 -33 98 -17 91 -11
84 -75 -4 -31 -10 -61 -14 -67 -4 -5 -10 -28 -14 -50 -16 -105 -18 -133 -8
-139 15 -9 30 44 38 128 4 41 10 80 14 86 11 18 38 5 57 -29 10 -16 31 -35 48
-44 76 -37 85 -43 85 -59 0 -9 -4 -20 -10 -23 -6 -4 -5 -14 3 -28 18 -32 29
-42 65 -56 18 -8 49 -26 68 -42 20 -15 44 -31 55 -34 13 -4 19 -16 20 -38 l1
-32 10 28 c12 35 30 30 42 -10 9 -34 110 -138 166 -172 64 -38 110 -26 110 30
0 16 -7 19 -53 19 -51 0 -54 2 -87 45 -19 25 -37 45 -41 45 -12 0 -79 74 -79
88 0 7 5 21 12 32 16 25 10 29 -48 34 -27 2 -62 9 -79 16 -16 7 -35 12 -41 12
-6 -1 -21 9 -34 24 -18 18 -20 23 -7 18 13 -5 16 -2 11 10 -4 11 -13 15 -25
11 -15 -5 -19 -1 -19 20 0 14 -7 28 -15 31 -17 7 -20 40 -5 49 8 5 8 11 1 19
-7 9 -7 16 2 26 10 10 4 12 -32 7 -63 -8 -71 -2 -71 53 0 44 -3 50 -32 64 -17
9 -39 16 -49 16 -23 0 -40 30 -32 58 4 18 1 22 -16 22 -40 0 -112 22 -108 34
5 14 126 25 131 11 3 -5 5 -2 5 7 1 9 8 24 18 33 20 21 4 34 -33 27 -26 -5
-33 -22 -9 -22 9 0 12 -6 9 -15 -9 -24 -44 -19 -44 6 0 16 -5 20 -20 16 -28
-7 -46 18 -29 40 13 15 12 15 -8 4 -17 -9 -23 -9 -23 0 0 7 -9 9 -22 6 -14 -4
-29 0 -40 10 -10 9 -21 13 -25 10 -3 -4 -1 -7 5 -7 7 0 12 -6 12 -13 0 -17
-42 -15 -48 1 -2 7 -16 13 -30 13 -24 2 -24 2 -4 6 30 6 28 23 -3 23 -14 0
-25 -4 -25 -10 0 -5 -5 -10 -11 -10 -5 0 -7 4 -4 10 3 5 -11 17 -32 26 -21 9
-32 18 -25 21 21 8 14 40 -10 47 -13 3 -25 5 -28 5 -3 -1 -16 -4 -28 -6z m118
-158 c0 -8 -4 -15 -10 -15 -5 0 -10 7 -10 15 0 8 5 15 10 15 6 0 10 -7 10 -15z
m167 -14 c10 -16 9 -20 -6 -24 -14 -3 -18 1 -18 19 0 29 8 31 24 5z m-91 -22
c10 -17 -12 -32 -35 -24 -34 11 -25 26 21 34 4 0 10 -4 14 -10z m189 -9 c3 -5
-3 -10 -14 -10 -12 0 -21 5 -21 10 0 6 6 10 14 10 8 0 18 -4 21 -10z m120
-180 c3 -5 1 -10 -4 -10 -6 0 -11 5 -11 10 0 6 2 10 4 10 3 0 8 -4 11 -10z
m-492 -20 c4 -15 0 -20 -13 -20 -22 0 -34 15 -25 30 10 17 32 11 38 -10z
m1127 -590 c0 -5 -2 -10 -4 -10 -3 0 -8 5 -11 10 -3 6 -1 10 4 10 6 0 11 -4
11 -10z"/>
<path d="M5860 9225 c0 -9 34 -45 43 -45 12 0 -11 37 -28 44 -8 3 -15 3 -15 1z"/>
<path d="M5650 9210 c0 -13 20 -13 40 0 12 8 9 10 -12 10 -16 0 -28 -4 -28
-10z"/>
<path d="M5950 9211 c0 -5 -8 -12 -17 -14 -14 -4 -13 -5 3 -6 12 0 24 6 28 14
3 8 1 15 -4 15 -6 0 -10 -4 -10 -9z"/>
<path d="M1455 9170 c3 -5 8 -10 11 -10 2 0 4 5 4 10 0 6 -5 10 -11 10 -5 0
-7 -4 -4 -10z"/>
<path d="M5570 9165 c0 -8 5 -15 10 -15 6 0 10 7 10 15 0 8 -4 15 -10 15 -5 0
-10 -7 -10 -15z"/>
<path d="M4468 9163 c6 -2 18 -2 25 0 6 3 1 5 -13 5 -14 0 -19 -2 -12 -5z"/>
<path d="M4528 9153 c7 -3 16 -2 19 1 4 3 -2 6 -13 5 -11 0 -14 -3 -6 -6z"/>
<path d="M5393 9141 c-4 -9 -8 -19 -10 -23 -2 -5 3 -8 11 -8 9 0 16 7 16 15 0
11 7 14 25 9 14 -3 25 -2 25 4 0 5 -14 12 -31 14 -22 4 -32 0 -36 -11z"/>
<path d="M4363 9125 c5 -16 37 -18 37 -3 0 8 -9 14 -20 14 -11 0 -19 -5 -17
-11z"/>
<path d="M5920 9131 c0 -6 5 -13 10 -16 6 -3 10 1 10 9 0 9 -4 16 -10 16 -5 0
-10 -4 -10 -9z"/>
<path d="M4816 9110 c-17 -6 -18 -7 -3 -13 9 -3 19 -2 23 4 9 15 2 18 -20 9z"/>
<path d="M3935 9090 c3 -5 14 -10 23 -10 15 0 15 2 2 10 -20 13 -33 13 -25 0z"/>
<path d="M4715 9091 c-3 -6 3 -9 14 -8 11 0 17 5 15 9 -7 11 -22 10 -29 -1z"/>
<path d="M5109 9071 c11 -7 11 -9 0 -14 -8 -3 1 -6 20 -6 29 -1 32 1 21 14 -7
8 -22 15 -34 15 -16 0 -18 -3 -7 -9z"/>
<path d="M3930 9062 c0 -5 7 -16 16 -23 14 -12 16 -11 13 5 -4 20 -29 35 -29
18z"/>
<path d="M4692 9063 c1 -7 -4 -23 -20 -65 -6 -15 -10 -15 -37 -2 -16 8 -23 12
-15 10 16 -4 57 20 49 29 -7 6 -79 -6 -79 -14 0 -24 32 -42 89 -52 51 -8 66
-7 72 3 7 10 9 10 9 1 0 -7 8 -13 18 -13 26 0 17 57 -12 72 -11 6 -25 17 -29
24 -8 14 -48 20 -45 7z m42 -39 c4 -10 2 -13 -7 -8 -7 5 -7 1 2 -10 16 -19 3
-40 -17 -27 -10 6 -10 14 -3 34 12 31 17 33 25 11z"/>
<path d="M1875 9026 c-19 -35 -19 -38 -2 -47 12 -7 15 -17 11 -37 -3 -15 -2
-22 3 -16 4 6 23 15 40 19 38 8 49 21 34 39 -7 8 -10 20 -9 27 2 9 -6 13 -24
11 -21 -3 -27 1 -30 19 -3 20 -5 19 -23 -15z"/>
<path d="M4007 9039 c-4 -16 -3 -18 9 -8 16 13 19 29 5 29 -5 0 -11 -9 -14
-21z"/>
<path d="M4108 9042 c9 -11 21 -17 26 -14 5 3 1 11 -9 19 -27 19 -38 16 -17
-5z"/>
<path d="M5182 9034 c10 -10 20 -15 24 -12 3 4 -5 12 -18 18 -22 12 -22 12 -6
-6z"/>
<path d="M3148 9030 c-1 -8 -2 -31 -2 -50 -1 -19 -6 -35 -13 -35 -21 0 -26
-14 -10 -29 13 -14 17 -11 31 25 12 30 14 45 6 54 -8 10 -7 14 2 18 10 4 11 7
1 18 -11 11 -13 11 -15 -1z"/>
<path d="M7205 9019 c-4 -6 -5 -12 -2 -15 7 -7 37 7 37 17 0 13 -27 11 -35 -2z"/>
<path d="M4885 8984 c-10 -19 -15 -37 -11 -41 4 -4 9 3 13 15 3 12 13 22 22
22 20 0 24 27 6 34 -6 2 -20 -11 -30 -30z"/>
<path d="M4950 9001 c0 -5 8 -12 18 -14 12 -3 11 -5 -6 -6 -27 -1 -20 -21 7
-21 23 0 34 37 14 44 -21 9 -33 7 -33 -3z"/>
<path d="M3200 8979 c-16 -28 -21 -79 -10 -79 20 0 9 -19 -12 -22 -18 -2 -24
-11 -26 -37 -4 -38 15 -63 91 -117 38 -28 49 -31 53 -19 4 8 14 15 24 15 13 0
19 11 24 43 4 23 13 55 21 70 18 36 5 74 -30 83 -14 3 -25 10 -25 14 0 8 -85
70 -95 70 -2 0 -9 -9 -15 -21z"/>
<path d="M7107 8980 c-3 -12 -15 -24 -26 -27 -25 -6 -35 -32 -16 -39 23 -9 45
3 45 25 0 10 9 21 20 24 11 3 20 10 20 17 0 6 -5 8 -11 4 -6 -3 -15 -1 -19 6
-5 8 -9 5 -13 -10z"/>
<path d="M7174 8991 c4 -5 2 -11 -4 -13 -14 -5 -1 -46 17 -53 24 -9 28 3 9 23
-9 11 -14 26 -10 36 3 9 1 16 -6 16 -6 0 -9 -4 -6 -9z"/>
<path d="M3000 8966 c-8 -10 -8 -21 -2 -32 8 -14 10 -11 14 15 5 36 5 36 -12
17z"/>
<path d="M7010 8971 c0 -6 5 -13 10 -16 6 -3 10 1 10 9 0 9 -4 16 -10 16 -5 0
-10 -4 -10 -9z"/>
<path d="M3075 8960 c4 -6 11 -8 16 -5 14 9 11 15 -7 15 -8 0 -12 -5 -9 -10z"/>
<path d="M3026 8925 c-16 -25 -16 -26 16 -55 30 -28 65 -46 73 -38 2 1 6 15
10 29 5 20 1 33 -17 51 -36 39 -62 43 -82 13z"/>
<path d="M7130 8940 c0 -5 7 -10 16 -10 9 0 14 -6 11 -12 -2 -7 -12 -12 -21
-12 -11 1 -16 -6 -15 -25 1 -17 3 -20 6 -8 3 11 14 17 34 17 35 0 37 15 7 41
-26 21 -38 24 -38 9z"/>
<path d="M5160 8933 c0 -4 14 -16 31 -26 25 -14 30 -22 26 -42 -2 -14 0 -28 5
-31 14 -9 48 26 48 50 0 17 2 18 9 6 6 -8 7 -18 5 -22 -3 -4 1 -8 9 -8 8 0 17
7 21 15 3 9 0 15 -9 15 -8 0 -12 6 -9 14 6 16 -8 22 -83 31 -29 4 -53 3 -53
-2z"/>
<path d="M5370 8864 c11 -48 17 -52 30 -20 16 42 12 56 -14 56 -22 0 -23 -2
-16 -36z"/>
<path d="M316 8854 c-4 -14 -5 -28 -3 -31 3 -2 8 8 11 23 4 14 5 28 3 31 -3 2
-8 -8 -11 -23z"/>
<path d="M1977 8860 c6 -23 19 -26 26 -6 3 8 -1 17 -9 20 -22 9 -23 8 -17 -14z"/>
<path d="M2253 8868 c3 -18 39 -43 59 -41 10 0 25 1 33 2 19 1 19 18 1 37 -11
11 -16 11 -20 1 -5 -9 -7 -9 -12 1 -3 6 -19 12 -35 12 -18 0 -28 -5 -26 -12z"/>
<path d="M3397 8873 c-4 -3 -7 -11 -7 -17 0 -6 5 -5 12 2 6 6 9 14 7 17 -3 3
-9 2 -12 -2z"/>
<path d="M5707 8869 c7 -7 15 -10 18 -7 3 3 -2 9 -12 12 -14 6 -15 5 -6 -5z"/>
<path d="M5157 8863 c-14 -13 -6 -24 15 -21 27 4 36 28 11 28 -11 0 -23 -3
-26 -7z"/>
<path d="M7086 8861 c-4 -7 -5 -15 -2 -18 9 -9 19 4 14 18 -4 11 -6 11 -12 0z"/>
<path d="M3540 8827 c0 -19 50 -56 68 -50 7 3 19 -1 27 -7 8 -7 15 -10 15 -7
0 3 3 12 6 21 4 9 1 16 -6 16 -7 0 -18 6 -24 14 -6 8 -28 18 -48 21 -31 6 -38
4 -38 -8z"/>
<path d="M3705 8812 c-11 -10 -25 -27 -32 -39 -10 -18 -9 -20 5 -16 10 2 31
-1 47 -8 17 -7 32 -13 35 -13 13 -3 150 -112 150 -119 0 -5 -17 -7 -39 -5 -29
2 -38 0 -36 -11 3 -22 15 -23 91 -5 68 16 94 19 208 22 l60 2 -22 20 c-29 27
-28 32 4 20 14 -6 30 -8 35 -4 5 3 9 0 9 -5 0 -6 5 -11 11 -11 5 0 7 6 3 13
-4 6 1 5 12 -4 23 -19 54 -31 54 -21 0 4 20 8 45 9 27 1 44 -3 42 -9 -1 -6 4
-13 12 -16 10 -3 12 0 8 12 -7 18 17 23 28 6 3 -5 17 -10 30 -10 14 0 36 0 51
0 14 0 22 -4 19 -10 -3 -6 1 -10 10 -10 9 0 14 4 11 8 -3 5 5 7 17 6 12 -1 22
-3 22 -4 0 -1 13 -3 28 -4 42 -3 30 26 -13 30 -45 4 -62 8 -77 17 -7 5 -43 8
-80 7 -38 -1 -86 4 -108 11 -22 6 -53 10 -70 8 -65 -5 -125 -2 -250 15 -111
15 -134 21 -163 44 -18 15 -46 34 -62 43 -15 8 -35 23 -45 32 -20 21 -25 21
-50 -1z"/>
<path d="M5245 8810 c3 -5 11 -10 16 -10 6 0 7 5 4 10 -3 6 -11 10 -16 10 -6
0 -7 -4 -4 -10z"/>
<path d="M2090 8799 c0 -5 5 -7 10 -4 6 3 10 8 10 11 0 2 -4 4 -10 4 -5 0 -10
-5 -10 -11z"/>
<path d="M2395 8799 c-4 -6 -5 -12 -2 -15 2 -3 7 2 10 11 7 17 1 20 -8 4z"/>
<path d="M3921 8776 c10 -9 109 -14 104 -6 -4 6 -29 10 -57 10 -28 0 -49 -2
-47 -4z"/>
<path d="M4045 8770 c-4 -6 5 -10 20 -10 15 0 24 4 20 10 -3 6 -12 10 -20 10
-8 0 -17 -4 -20 -10z"/>
<path d="M5270 8760 c20 -13 43 -13 35 0 -3 6 -16 10 -28 10 -18 0 -19 -2 -7
-10z"/>
<path d="M5500 8755 c-11 -13 -11 -18 0 -28 10 -10 12 -9 7 4 -3 9 0 22 6 28
6 6 8 11 5 11 -3 0 -11 -7 -18 -15z"/>
<path d="M2410 8740 c0 -25 78 -100 96 -93 8 3 11 9 8 14 -3 5 -9 7 -14 4 -14
-9 -49 27 -61 62 -12 37 -29 44 -29 13z"/>
<path d="M5230 8752 c0 -13 27 -35 39 -30 5 1 -2 11 -15 21 -13 10 -24 14 -24
9z"/>
<path d="M193 8743 c-30 -4 -33 -7 -33 -39 0 -27 10 -47 40 -83 22 -26 40 -53
40 -60 0 -7 4 -10 9 -6 18 11 38 62 35 90 -2 17 3 33 13 40 13 10 13 15 2 33
-8 12 -21 22 -31 22 -9 0 -22 2 -30 3 -7 2 -28 2 -45 0z m77 -53 c0 -6 -9 -10
-20 -10 -13 0 -20 7 -20 20 0 18 3 19 20 10 11 -6 20 -15 20 -20z"/>
<path d="M5410 8705 c-7 -8 -20 -15 -28 -15 -13 0 -12 -3 4 -14 17 -13 21 -12
37 4 18 21 23 40 8 40 -5 0 -14 -7 -21 -15z"/>
<path d="M8984 8698 c-4 -13 -11 -26 -17 -29 -10 -7 -1 -29 12 -29 6 0 41 63
41 75 0 16 -30 1 -36 -17z"/>
<path d="M2287 8681 c7 -27 -31 -43 -65 -28 -25 12 -37 5 -29 -18 4 -10 20
-15 47 -15 22 0 40 -4 40 -10 0 -5 5 -10 11 -10 6 0 9 6 6 14 -3 7 1 24 10 35
8 12 13 23 12 24 -2 2 -12 8 -21 15 -14 11 -16 10 -11 -7z"/>
<path d="M3420 8680 c-26 -20 -35 -83 -18 -125 26 -65 93 -110 147 -99 26 5
31 14 57 91 15 46 32 86 36 89 15 10 8 -36 -17 -101 -25 -67 -22 -75 23 -51
15 7 53 26 85 40 31 15 57 29 57 32 0 11 -37 53 -42 48 -3 -3 -22 10 -42 29
-20 19 -39 31 -42 26 -3 -5 -10 -9 -16 -9 -7 0 -7 5 1 14 9 10 8 15 -4 20 -8
3 -15 0 -15 -6 0 -18 -50 -118 -59 -118 -5 0 -12 24 -15 53 -10 72 -24 89 -74
86 -22 -2 -50 -10 -62 -19z m147 -180 c-7 -17 -13 -26 -15 -21 -3 10 15 51 22
51 3 0 -1 -14 -7 -30z"/>
<path d="M3336 8674 c-11 -29 -6 -53 13 -64 29 -15 31 -13 31 29 0 26 -5 41
-16 45 -21 8 -21 8 -28 -10z"/>
<path d="M2148 8674 c-8 -7 3 -54 13 -54 12 0 12 47 0 54 -4 3 -10 3 -13 0z"/>
<path d="M5340 8671 c0 -5 7 -12 16 -15 14 -5 15 -4 4 9 -14 17 -20 19 -20 6z"/>
<path d="M5452 8667 c-16 -19 -7 -57 13 -57 8 0 21 9 29 21 9 14 19 18 28 13
9 -6 9 -3 -2 10 -8 11 -16 14 -18 7 -6 -17 -30 -13 -34 6 -3 15 -4 15 -16 0z"/>
<path d="M6070 8660 c0 -5 5 -10 11 -10 5 0 7 5 4 10 -3 6 -8 10 -11 10 -2 0
-4 -4 -4 -10z"/>
<path d="M6310 8628 c-36 -23 -69 -48 -73 -55 -4 -7 -14 -13 -22 -13 -7 0 -17
-9 -20 -20 -3 -11 -12 -20 -19 -20 -7 0 -21 -18 -31 -40 -10 -22 -24 -40 -32
-40 -8 0 -11 -5 -8 -10 3 -6 -1 -13 -9 -16 -9 -3 -16 -11 -16 -18 0 -6 -25
-31 -55 -56 -51 -43 -65 -60 -47 -60 4 0 32 23 61 51 29 28 56 48 59 45 3 -4
-21 -32 -53 -62 -50 -48 -57 -58 -43 -68 11 -8 13 -18 7 -34 -10 -26 -23 -30
-15 -4 3 9 2 23 -3 31 -7 11 -12 10 -28 -6 -11 -11 -30 -27 -42 -35 -17 -12
-21 -22 -16 -35 5 -10 9 -27 9 -37 1 -11 7 -21 14 -23 14 -5 14 -1 3 50 -8 32
-6 39 12 52 27 19 32 19 34 -2 1 -10 5 -30 9 -45 4 -18 2 -28 -5 -28 -6 0 -11
5 -11 10 0 6 -4 10 -9 10 -5 0 -8 -15 -7 -34 1 -19 -2 -32 -6 -30 -4 2 -11 -3
-16 -11 -8 -15 -10 -15 -21 -1 -8 9 -11 25 -8 36 3 13 -1 21 -15 26 -16 5 -18
8 -7 15 7 4 10 11 6 15 -3 4 -14 1 -22 -6 -19 -16 -13 -55 13 -83 12 -13 13
-20 4 -29 -9 -9 -12 -8 -12 5 0 9 -4 17 -9 17 -10 0 -27 39 -23 53 4 15 -11 6
-65 -40 -51 -43 -54 -49 -48 -80 6 -32 -7 -46 -19 -20 -3 6 -3 1 0 -13 4 -14
11 -26 15 -28 5 -2 9 -10 9 -18 0 -8 -6 -11 -15 -8 -8 4 -15 1 -15 -5 0 -6 4
-11 9 -11 13 0 56 -70 70 -113 7 -21 19 -41 27 -44 8 -3 14 -11 14 -19 0 -8 3
-14 8 -14 4 0 14 -15 21 -32 8 -18 20 -38 25 -45 6 -7 31 -43 56 -82 28 -43
48 -65 52 -58 6 9 12 9 27 0 16 -10 20 -9 24 9 5 17 11 20 36 15 34 -7 43 1
60 62 8 26 19 45 31 48 12 3 20 18 24 44 4 22 11 48 16 57 40 75 102 210 114
249 19 64 65 163 76 163 11 0 82 181 127 323 19 60 37 115 40 123 3 8 0 14 -7
14 -7 0 -45 16 -86 35 -40 19 -77 35 -81 35 -5 0 -37 -19 -73 -42z m-425 -508
c3 -5 1 -10 -4 -10 -6 0 -11 5 -11 10 0 6 2 10 4 10 3 0 8 -4 11 -10z m-95
-60 c0 -5 -4 -10 -10 -10 -5 0 -10 5 -10 10 0 6 5 10 10 10 6 0 10 -4 10 -10z
m-13 -206 c-4 -4 -14 1 -22 12 -22 29 -18 41 7 17 12 -13 19 -26 15 -29z m23
-42 c0 -15 -2 -15 -10 -2 -13 20 -13 33 0 25 6 -3 10 -14 10 -23z"/>
<path d="M1448 8634 c-40 -14 -87 -20 -238 -29 -120 -7 -283 -24 -335 -35 -22
-5 -103 -12 -180 -15 -77 -3 -160 -10 -185 -16 -66 -13 -153 -41 -170 -55 -8
-6 -26 -15 -40 -19 -14 -4 -33 -16 -43 -26 -10 -11 -23 -19 -30 -19 -33 -2
-81 -124 -92 -235 -13 -131 -16 -153 -32 -200 -9 -27 -22 -59 -28 -70 -11 -18
-26 -65 -29 -90 -3 -22 -19 -61 -32 -76 -12 -13 -14 -59 -12 -239 l3 -223 729
-243 729 -243 61 34 c82 45 395 161 531 196 61 15 146 42 190 59 84 33 225 82
360 123 44 14 104 37 133 52 54 27 75 28 53 1 -9 -11 -8 -15 4 -20 8 -3 15
-11 15 -17 0 -8 -4 -8 -13 0 -10 8 -17 7 -25 -1 -9 -9 -12 -9 -12 0 0 7 -8 4
-19 -7 -10 -10 -24 -20 -32 -23 -8 -3 -10 -10 -4 -24 4 -10 9 -23 10 -29 0 -5
6 -9 13 -7 7 1 12 -2 12 -6 0 -4 -17 -9 -37 -11 -74 -5 -71 -3 -57 -31 20 -41
26 -70 15 -70 -5 0 -11 6 -14 13 -2 6 -2 2 0 -11 3 -19 0 -23 -19 -20 -23 3
-25 -3 -13 -33 4 -11 -2 -25 -16 -37 -17 -16 -20 -27 -14 -49 6 -27 6 -27 -15
-8 -18 16 -20 16 -14 2 4 -12 1 -17 -10 -17 -20 0 -21 -16 -1 -24 8 -3 15 -10
15 -15 0 -6 -7 -8 -16 -4 -12 4 -15 2 -12 -8 3 -8 -4 -22 -15 -31 -16 -15 -17
-20 -7 -33 7 -9 9 -22 5 -32 -5 -10 -7 -24 -6 -32 1 -7 -2 -10 -8 -6 -6 3 -11
2 -11 -4 0 -5 4 -13 10 -16 6 -4 5 -11 -3 -20 -8 -8 -16 -10 -23 -4 -8 6 -17
5 -26 -4 -20 -20 -54 -37 -62 -30 -3 3 -3 18 -1 32 3 14 2 20 -1 14 -9 -20
-21 -16 -54 18 -30 32 -32 31 -34 -5 -1 -11 -7 -21 -15 -24 -10 -3 -12 0 -8
12 4 9 2 16 -3 16 -16 0 -22 -21 -10 -35 7 -8 9 -15 6 -15 -4 0 -1 -10 5 -22
12 -23 12 -23 -10 -4 -11 11 -24 17 -27 13 -3 -3 3 -13 15 -23 11 -10 18 -21
15 -26 -6 -10 44 -32 110 -49 40 -10 50 -9 57 2 9 14 10 12 13 -13 0 -7 31
-24 69 -37 79 -27 84 -25 122 53 14 28 41 74 60 101 74 105 105 156 105 173 0
9 21 58 46 107 130 254 152 312 141 357 -4 14 0 26 11 35 11 8 13 15 6 20 -15
12 -13 55 3 49 16 -6 17 16 2 31 -6 6 -12 19 -13 29 -3 22 -26 31 -26 10 0 -9
-4 -16 -9 -16 -6 0 -6 12 -2 28 14 47 -6 76 -45 66 -12 -3 -25 -1 -28 5 -5 7
-15 6 -30 -4 -17 -11 -39 -14 -76 -11 -29 3 -55 7 -57 9 -11 12 14 38 52 56
48 23 66 41 38 41 -28 -1 -102 -37 -137 -68 -30 -26 -172 -69 -288 -87 -25 -4
-38 -11 -38 -21 0 -16 -44 -37 -120 -59 -40 -12 -180 -29 -220 -27 -8 0 -35 1
-60 3 -25 1 -53 -2 -63 -6 -14 -6 -16 -4 -10 11 5 13 3 15 -7 9 -21 -13 -90
-23 -96 -14 -2 4 -12 5 -21 2 -11 -5 -14 -3 -8 6 6 10 3 11 -13 2 -25 -13 -32
-14 -32 -3 0 5 17 16 38 25 92 40 199 78 240 88 45 10 61 22 86 69 27 49 28
68 7 75 -12 4 -18 12 -14 21 3 7 1 14 -4 14 -5 0 -9 10 -10 21 -3 30 -11 35
-32 22 -16 -10 -20 -9 -24 8 -4 13 -14 19 -35 19 -17 0 -33 6 -35 13 -4 10 -6
10 -6 0 -1 -8 -14 -13 -33 -12 -29 1 -30 2 -9 8 21 6 22 8 7 20 -17 14 -51 7
-41 -9 4 -6 -4 -9 -19 -8 -13 1 -24 7 -23 13 1 5 -11 10 -28 10 -16 0 -31 3
-32 8 -4 9 29 42 42 43 32 1 106 54 77 54 -6 0 7 26 28 57 28 43 37 65 35 90
-3 32 -37 87 -48 77 -5 -6 -47 49 -47 63 0 4 -18 19 -40 33 -59 36 -81 110
-33 110 26 0 115 -44 135 -66 9 -10 21 -39 28 -64 23 -94 41 -125 68 -115 6 2
12 0 12 -6 0 -6 5 -7 12 -3 7 5 9 2 5 -9 -4 -12 2 -17 26 -23 18 -4 26 -9 20
-11 -7 -3 -13 -12 -13 -21 0 -14 2 -14 9 -3 13 20 57 6 64 -20 3 -12 0 -22 -9
-26 -10 -4 -11 -10 -3 -24 8 -15 6 -19 -6 -19 -10 0 -13 5 -9 13 4 6 4 9 -1 5
-4 -4 -14 -1 -22 7 -12 13 -12 17 -1 28 7 8 20 11 28 9 13 -5 13 -3 1 12 -13
15 -15 15 -29 -5 -14 -21 -15 -20 -75 38 -73 70 -58 45 33 -53 36 -39 93 -101
127 -138 34 -37 67 -65 73 -61 6 4 -2 17 -20 32 -16 13 -30 31 -30 39 0 9 -4
12 -10 9 -5 -3 -10 1 -10 10 0 9 -4 14 -9 11 -10 -7 -24 52 -15 66 4 5 16 7
28 4 20 -5 20 -4 2 9 -10 7 -15 18 -12 24 4 5 2 12 -3 16 -13 7 -3 35 13 35 6
0 28 -11 49 -25 42 -29 45 -26 18 19 -11 17 -21 42 -23 56 -2 14 -6 30 -10 36
-8 12 -5 40 5 50 4 4 7 -2 7 -13 0 -25 27 -48 63 -52 47 -5 28 31 -25 44 -21
5 -28 16 -37 51 -10 38 -8 59 9 131 11 47 19 87 17 89 -4 4 -47 -119 -47 -136
0 -6 -7 -19 -16 -27 -13 -14 -17 -14 -24 -3 -5 8 -7 17 -4 21 6 11 -154 169
-171 169 -10 0 -13 5 -8 13 4 6 -5 4 -20 -6 -26 -17 -27 -17 -47 3 -11 11 -26
17 -33 14 -9 -3 -17 3 -20 16 -3 12 -10 19 -16 16 -13 -8 -27 19 -34 66 -3 21
-17 50 -31 65 -18 19 -24 34 -20 50 5 19 2 23 -17 24 -13 1 -42 2 -64 4 -22 1
-44 -1 -50 -4 -9 -5 -75 -3 -105 3 -8 2 -32 -3 -52 -10z m338 -249 c3 -35 -11
-54 -27 -38 -5 5 -4 24 3 46 13 43 21 41 24 -8z m288 -180 c3 -9 0 -15 -9 -15
-16 0 -27 14 -18 24 10 10 21 7 27 -9z m-1349 -89 c28 -3 66 -10 85 -15 19 -6
47 -13 63 -16 15 -3 27 -10 27 -16 0 -6 -10 -8 -22 -5 -13 3 -17 3 -10 0 35
-16 -8 -44 -77 -50 -44 -4 -180 -31 -211 -42 -39 -13 -97 -16 -147 -6 -28 5
-40 0 -85 -37 -58 -48 -103 -93 -118 -118 -8 -12 -9 -8 -4 14 4 17 12 39 19
50 6 11 20 42 30 68 26 69 92 131 166 154 32 10 59 22 59 27 0 8 108 4 225 -8z
m2241 -745 c0 -16 -3 -17 -14 -9 -12 10 -7 19 13 28 1 0 1 -9 1 -19z m-126
-71 c0 -5 -2 -10 -4 -10 -3 0 -8 5 -11 10 -3 6 -1 10 4 10 6 0 11 -4 11 -10z
m-260 -460 c0 -5 -2 -10 -4 -10 -3 0 -8 5 -11 10 -3 6 -1 10 4 10 6 0 11 -4
11 -10z m-126 -253 c13 -9 15 -18 8 -36 -6 -18 -10 -20 -19 -9 -15 19 -26 58
-16 58 5 0 17 -6 27 -13z m-46 -57 c-7 -10 -14 -18 -15 -16 -6 6 9 36 18 36 5
0 4 -9 -3 -20z"/>
<path d="M5385 8630 c3 -5 11 -10 16 -10 6 0 7 5 4 10 -3 6 -11 10 -16 10 -6
0 -7 -4 -4 -10z"/>
<path d="M2515 8619 c4 -6 28 -19 52 -30 43 -18 46 -19 59 -2 14 20 7 24 -74
37 -31 4 -41 3 -37 -5z"/>
<path d="M4676 8623 c-11 -12 8 -33 30 -33 13 0 34 -6 45 -12 17 -10 23 -10
26 0 3 6 9 12 15 12 6 0 8 -6 5 -12 -3 -8 5 -14 19 -14 13 -1 21 2 18 7 -3 5
7 9 23 9 22 0 25 -2 13 -10 -13 -8 -12 -10 3 -10 9 0 17 5 17 10 0 6 8 10 18
10 9 0 24 5 32 11 12 9 12 10 -4 5 -10 -4 -28 0 -40 7 -20 13 -210 30 -220 20z"/>
<path d="M9032 8600 c-7 -11 -11 -34 -11 -52 1 -20 3 -25 6 -13 2 11 9 33 15
48 13 33 7 44 -10 17z"/>
<path d="M6728 8593 c7 -3 16 -2 19 1 4 3 -2 6 -13 5 -11 0 -14 -3 -6 -6z"/>
<path d="M5020 8564 c0 -9 5 -14 12 -12 18 6 21 28 4 28 -9 0 -16 -7 -16 -16z"/>
<path d="M2346 8553 c-9 -22 -4 -25 51 -31 28 -3 55 -12 66 -23 10 -11 22 -19
26 -19 5 0 14 -14 21 -31 7 -17 23 -37 36 -45 12 -8 25 -26 28 -40 4 -16 19
-30 41 -40 62 -25 85 -15 85 37 0 22 -11 24 -29 7 -10 -11 -14 -10 -22 4 -5 9
-15 15 -22 12 -8 -3 -26 5 -41 17 -21 17 -26 27 -21 46 5 21 3 24 -13 19 -12
-4 -27 4 -48 26 -16 18 -36 33 -44 33 -8 0 -16 9 -18 20 -2 16 -11 20 -47 22
-31 1 -45 -3 -49 -14z"/>
<path d="M5440 8555 c0 -8 7 -15 16 -15 14 0 14 3 4 15 -7 8 -14 15 -16 15 -2
0 -4 -7 -4 -15z"/>
<path d="M5491 8534 c0 -11 3 -14 6 -6 3 7 2 16 -1 19 -3 4 -6 -2 -5 -13z"/>
<path d="M2530 8512 c12 -18 25 -31 28 -27 3 3 -7 18 -23 33 l-28 27 23 -33z"/>
<path d="M1810 8505 c0 -8 5 -15 10 -15 6 0 10 7 10 15 0 8 -4 15 -10 15 -5 0
-10 -7 -10 -15z"/>
<path d="M5532 8509 c2 -7 10 -15 17 -17 8 -3 12 1 9 9 -2 7 -10 15 -17 17 -8
3 -12 -1 -9 -9z"/>
<path d="M5594 8486 c-8 -21 3 -36 27 -36 11 0 17 -4 14 -10 -3 -5 -2 -10 4
-10 5 0 18 -3 28 -6 16 -5 16 -4 2 8 -9 7 -14 18 -12 25 2 6 -10 19 -27 28
-27 14 -31 14 -36 1z"/>
<path d="M8972 8488 c-16 -16 -15 -28 3 -28 8 0 15 9 15 20 0 23 -2 24 -18 8z"/>
<path d="M2711 8423 c29 -37 59 -61 103 -83 25 -12 46 -27 46 -34 0 -7 18 -20
40 -30 29 -12 49 -32 74 -74 36 -59 76 -86 117 -80 18 2 22 10 23 43 1 36 -2
40 -32 49 -26 7 -36 6 -43 -5 -13 -21 -59 32 -59 69 0 19 -11 39 -35 62 -40
39 -56 36 -24 -4 35 -45 11 -44 -32 2 -22 23 -46 42 -52 43 -7 1 -19 2 -27 3
-8 2 -22 3 -31 4 -9 1 -20 13 -23 27 -5 19 -13 25 -32 25 -24 0 -25 -2 -13
-17z"/>
<path d="M8840 8425 c-14 -8 -19 -14 -10 -14 8 0 24 6 34 14 25 19 9 19 -24 0z"/>
<path d="M3316 8407 c-18 -13 -19 -46 -2 -50 9 -2 29 53 22 60 -1 1 -10 -3
-20 -10z"/>
<path d="M3354 8406 c-3 -8 -4 -27 -2 -43 l4 -28 17 39 c21 47 21 46 2 46 -9
0 -18 -6 -21 -14z"/>
<path d="M5582 8254 c15 -15 30 -26 33 -23 2 3 -10 16 -28 29 l-32 23 27 -29z"/>
<path d="M5920 8250 c0 -5 -7 -10 -15 -10 -7 0 -19 -8 -24 -17 -6 -10 -11 -15
-11 -11 0 6 -45 -31 -102 -84 -10 -10 -22 -18 -26 -18 -5 0 -17 -10 -28 -23
-39 -44 -38 -52 1 -19 22 18 79 62 127 98 80 60 111 94 88 94 -6 0 -10 -4 -10
-10z"/>
<path d="M0 8092 c0 -148 11 -229 30 -217 10 6 45 110 59 178 7 31 18 57 24
57 8 0 7 3 -2 9 -11 7 -11 13 -1 32 7 13 9 21 5 17 -4 -4 -24 5 -44 21 -20 15
-42 26 -49 24 -7 -3 -10 1 -6 10 3 8 1 18 -5 22 -8 4 -11 -43 -11 -153z"/>
<path d="M2800 8246 c0 -3 14 -20 30 -38 35 -38 37 -48 10 -48 -38 0 -18 -71
34 -119 14 -14 26 -28 26 -33 0 -12 -35 -10 -65 4 -24 11 -29 9 -45 -11 -12
-17 -24 -22 -38 -19 -21 6 -47 -13 -35 -25 3 -4 17 -7 30 -7 15 0 23 -6 23
-17 1 -39 28 -57 90 -61 57 -4 81 8 44 22 -8 3 -13 10 -10 15 3 5 -1 11 -9 15
-19 7 -19 30 1 47 18 15 62 19 86 7 24 -12 50 30 46 74 -3 33 -4 33 -52 32
-42 0 -54 4 -73 25 -13 15 -23 39 -23 57 0 24 -8 38 -35 58 -19 15 -35 25 -35
22z"/>
<path d="M2735 8220 c-3 -5 -3 -10 2 -10 4 0 19 -3 33 -7 23 -6 24 -6 8 10
-19 19 -34 22 -43 7z"/>
<path d="M110 8210 c0 -5 5 -10 10 -10 6 0 10 5 10 10 0 6 -4 10 -10 10 -5 0
-10 -4 -10 -10z"/>
<path d="M3736 8197 c3 -10 9 -15 12 -12 3 3 0 11 -7 18 -10 9 -11 8 -5 -6z"/>
<path d="M3766 8197 c3 -10 9 -15 12 -12 3 3 0 11 -7 18 -10 9 -11 8 -5 -6z"/>
<path d="M3710 8180 c6 -11 12 -20 14 -20 2 0 2 9 -1 20 -3 11 -9 20 -15 20
-5 0 -4 -9 2 -20z"/>
<path d="M2581 8160 c-10 -18 -3 -42 10 -34 5 3 9 -8 9 -23 0 -27 4 -30 50
-39 28 -6 50 -10 50 -9 0 1 -20 24 -45 51 -24 27 -45 52 -45 57 0 16 26 5 57
-25 39 -37 45 -25 7 15 -28 30 -80 35 -93 7z"/>
<path d="M3684 8139 c-3 -6 1 -18 10 -27 9 -9 16 -11 16 -5 0 6 -6 14 -12 16
-10 4 -10 6 0 6 14 1 17 21 3 21 -6 0 -13 -5 -17 -11z"/>
<path d="M3640 8051 c0 -6 4 -13 10 -16 6 -3 7 1 4 9 -7 18 -14 21 -14 7z"/>
<path d="M3406 8010 c3 -14 10 -32 15 -40 7 -12 8 -12 9 3 0 10 5 15 10 12 13
-8 13 16 -1 35 -9 13 -10 12 -5 -2 3 -10 3 -18 -1 -18 -3 0 -12 8 -20 18 -13
15 -13 15 -7 -8z"/>
<path d="M3620 8010 c-9 -6 -10 -10 -3 -10 6 0 15 5 18 10 8 12 4 12 -15 0z"/>
<path d="M3666 8007 c3 -10 9 -15 12 -12 3 3 0 11 -7 18 -10 9 -11 8 -5 -6z"/>
<path d="M3630 7973 c0 -23 15 -39 23 -26 3 5 -1 17 -9 28 -14 18 -14 18 -14
-2z"/>
<path d="M3665 7970 c3 -5 8 -10 11 -10 2 0 4 5 4 10 0 6 -5 10 -11 10 -5 0
-7 -4 -4 -10z"/>
<path d="M2485 7931 c-15 -6 -12 -9 19 -14 21 -3 44 -14 50 -23 8 -11 30 -18
64 -20 68 -4 74 -8 66 -50 -5 -27 -2 -38 12 -50 18 -13 18 -15 2 -28 -24 -18
-23 -33 3 -41 21 -7 40 5 100 65 39 39 41 54 8 69 -16 7 -29 17 -29 22 0 18
-36 44 -65 47 -17 1 -45 7 -63 13 -25 8 -36 8 -48 -2 -11 -9 -20 -9 -40 0 -14
6 -30 9 -35 6 -5 -4 -9 -1 -9 4 0 12 -7 13 -35 2z m276 -118 c13 -16 12 -17
-3 -4 -10 7 -18 15 -18 17 0 8 8 3 21 -13z m-19 -65 c-9 -9 -12 -7 -12 12 0
19 3 21 12 12 9 -9 9 -15 0 -24z"/>
<path d="M3554 7918 c4 -16 2 -28 -4 -28 -5 0 -1 -15 10 -32 15 -25 27 -33 50
-34 17 -1 37 -10 45 -20 8 -11 15 -14 15 -7 0 6 -4 14 -9 18 -5 3 -7 20 -5 38
6 35 -16 75 -34 63 -20 -12 -13 -34 11 -39 14 -3 8 -5 -15 -6 -26 -1 -36 3
-33 12 3 6 -5 23 -16 37 l-21 25 6 -27z"/>
<path d="M2924 7914 c3 -8 6 -18 6 -20 0 -3 5 -2 10 1 15 9 12 22 -6 29 -12 5
-15 2 -10 -10z"/>
<path d="M3679 7912 c7 -13 6 -23 -1 -30 -9 -9 -5 -12 16 -12 l27 0 -21 30
c-24 33 -36 40 -21 12z"/>
<path d="M3374 7907 c7 -21 -13 -46 -31 -40 -7 3 -9 -4 -6 -18 5 -18 3 -20
-15 -14 -17 5 -21 3 -16 -9 4 -10 1 -16 -8 -16 -17 0 -38 -40 -38 -71 0 -13
-4 -18 -12 -13 -8 5 -9 0 -6 -14 4 -12 2 -25 -3 -28 -5 -3 -9 -14 -9 -25 0
-16 8 -11 33 23 18 24 36 50 40 58 4 8 16 29 27 45 11 17 24 39 29 51 5 11 16
27 24 36 13 12 13 17 -1 34 -13 17 -14 17 -8 1z"/>
<path d="M2240 7899 c0 -5 5 -7 10 -4 6 3 10 8 10 11 0 2 -4 4 -10 4 -5 0 -10
-5 -10 -11z"/>
<path d="M2475 7850 c-3 -5 1 -10 10 -10 9 0 13 5 10 10 -3 6 -8 10 -10 10 -2
0 -7 -4 -10 -10z"/>
<path d="M2500 7820 c0 -5 7 -10 15 -10 8 0 15 5 15 10 0 6 -7 10 -15 10 -8 0
-15 -4 -15 -10z"/>
<path d="M3535 7820 c-3 -5 -1 -10 4 -10 6 0 11 5 11 10 0 6 -2 10 -4 10 -3 0
-8 -4 -11 -10z"/>
<path d="M3600 7812 c0 -10 41 -45 46 -39 2 2 -7 13 -21 25 -14 12 -25 18 -25
14z"/>
<path d="M3471 7794 c0 -11 3 -14 6 -6 3 7 2 16 -1 19 -3 4 -6 -2 -5 -13z"/>
<path d="M3550 7796 c0 -2 7 -9 15 -16 9 -7 15 -8 15 -2 0 5 -7 12 -15 16 -8
3 -15 4 -15 2z"/>
<path d="M3490 7771 c0 -5 7 -12 16 -15 14 -5 15 -4 4 9 -14 17 -20 19 -20 6z"/>
<path d="M2205 7760 c-3 -5 -1 -10 4 -10 6 0 11 5 11 10 0 6 -2 10 -4 10 -3 0
-8 -4 -11 -10z"/>
<path d="M2577 7742 c-19 -20 -23 -37 -7 -27 13 8 13 2 -1 -28 -11 -25 -38
-27 -66 -4 -17 13 -46 -11 -38 -31 3 -9 0 -19 -7 -24 -9 -5 -10 -10 -2 -15 6
-5 13 -16 17 -25 6 -16 9 -16 59 1 99 35 136 53 142 68 7 17 -10 43 -28 43 -6
0 -17 14 -24 30 -16 35 -23 37 -45 12z"/>
<path d="M2220 7702 c0 -5 10 -17 23 -28 20 -19 94 -104 108 -127 4 -6 22 -7
45 -2 l39 8 -34 8 c-19 4 -42 16 -50 27 -9 11 -28 27 -43 36 -14 10 -37 33
-50 51 -22 33 -38 44 -38 27z"/>
<path d="M2420 7655 c0 -8 7 -15 15 -15 8 0 15 7 15 15 0 8 -7 15 -15 15 -8 0
-15 -7 -15 -15z"/>
<path d="M3203 7632 c-1 -9 -4 -28 -7 -42 -3 -14 -3 -18 0 -10 4 8 13 22 21
31 11 13 11 18 0 27 -10 8 -13 7 -14 -6z"/>
<path d="M3410 7584 c0 -2 9 -13 19 -23 19 -19 20 -19 18 -1 -1 15 -37 38 -37
24z"/>
<path d="M2990 7571 c0 -5 7 -11 14 -14 10 -4 13 -1 9 9 -6 15 -23 19 -23 5z"/>
<path d="M3161 7544 c0 -11 3 -14 6 -6 3 7 2 16 -1 19 -3 4 -6 -2 -5 -13z"/>
<path d="M5985 7460 c3 -5 8 -10 11 -10 2 0 4 5 4 10 0 6 -5 10 -11 10 -5 0
-7 -4 -4 -10z"/>
<path d="M5135 7430 c3 -5 8 -10 11 -10 2 0 4 5 4 10 0 6 -5 10 -11 10 -5 0
-7 -4 -4 -10z"/>
<path d="M8188 7373 c-19 -5 -25 -23 -8 -23 6 0 10 -11 10 -25 0 -14 6 -25 13
-25 8 0 20 -12 28 -26 l14 -26 6 23 c11 37 10 61 -1 54 -5 -3 -10 -3 -10 2 -1
18 -36 49 -52 46z"/>
<path d="M8350 7370 c0 -5 5 -10 11 -10 5 0 7 5 4 10 -3 6 -8 10 -11 10 -2 0
-4 -4 -4 -10z"/>
<path d="M5280 7356 c0 -2 7 -7 16 -10 8 -3 12 -2 9 4 -6 10 -25 14 -25 6z"/>
<path d="M8377 7343 c-4 -3 -7 -11 -7 -17 0 -6 5 -5 12 2 6 6 9 14 7 17 -3 3
-9 2 -12 -2z"/>
<path d="M8330 7306 c0 -8 5 -18 10 -21 6 -3 10 3 10 14 0 12 -4 21 -10 21 -5
0 -10 -6 -10 -14z"/>
<path d="M8386 7248 c9 -82 14 -86 14 -10 0 33 -5 64 -11 67 -7 5 -8 -13 -3
-57z"/>
<path d="M5355 7290 c-3 -6 1 -7 9 -4 18 7 21 14 7 14 -6 0 -13 -4 -16 -10z"/>
<path d="M8192 7270 c0 -14 2 -19 5 -12 2 6 2 18 0 25 -3 6 -5 1 -5 -13z"/>
<path d="M8310 7276 c0 -8 5 -18 10 -21 6 -3 10 1 10 9 0 8 -4 18 -10 21 -5 3
-10 -1 -10 -9z"/>
<path d="M8341 7254 c0 -11 3 -14 6 -6 3 7 2 16 -1 19 -3 4 -6 -2 -5 -13z"/>
<path d="M5620 6996 c0 -2 7 -6 15 -10 8 -3 15 -1 15 4 0 6 -7 10 -15 10 -8 0
-15 -2 -15 -4z"/>
<path d="M5954 6919 c-9 -14 70 -18 95 -4 25 13 23 13 -32 12 -32 -1 -60 -5
-63 -8z"/>
<path d="M6036 6885 c4 -9 0 -15 -9 -15 -8 0 -18 -7 -21 -16 -3 -8 -10 -12
-16 -9 -5 3 -10 2 -10 -4 0 -5 6 -12 13 -14 6 -3 0 -6 -14 -6 -54 -2 -140
-151 -100 -175 6 -4 11 -15 11 -25 0 -10 11 -24 25 -31 22 -12 29 -11 52 6 43
32 83 119 83 180 0 29 5 56 11 60 8 4 7 9 -2 15 -11 6 -11 9 1 13 42 13 44 14
23 15 -12 1 -25 6 -28 11 -10 16 -25 12 -19 -5z m-56 -143 c0 -15 -38 -44 -49
-37 -6 3 -11 0 -11 -7 0 -9 -3 -9 -10 2 -7 11 -4 17 10 22 11 4 20 12 20 18 0
5 9 10 20 10 11 0 20 -4 20 -8z"/>
<path d="M5645 6870 c3 -5 8 -10 11 -10 2 0 4 5 4 10 0 6 -5 10 -11 10 -5 0
-7 -4 -4 -10z"/>
<path d="M5970 6870 c0 -5 5 -10 10 -10 6 0 10 5 10 10 0 6 -4 10 -10 10 -5 0
-10 -4 -10 -10z"/>
<path d="M3126 6775 c-17 -25 -17 -27 -1 -22 9 4 23 7 30 7 7 0 16 7 19 16 5
14 4 15 -8 5 -11 -10 -15 -9 -18 5 -2 15 -7 13 -22 -11z"/>
<path d="M3430 6729 c0 -5 5 -7 10 -4 6 3 10 8 10 11 0 2 -4 4 -10 4 -5 0 -10
-5 -10 -11z"/>
<path d="M3068 6723 c7 -3 16 -2 19 1 4 3 -2 6 -13 5 -11 0 -14 -3 -6 -6z"/>
<path d="M3385 6680 c-3 -5 1 -10 10 -10 9 0 13 5 10 10 -3 6 -8 10 -10 10 -2
0 -7 -4 -10 -10z"/>
<path d="M3655 6680 c-3 -5 -1 -10 4 -10 6 0 11 5 11 10 0 6 -2 10 -4 10 -3 0
-8 -4 -11 -10z"/>
<path d="M2355 6650 c3 -5 8 -10 11 -10 2 0 4 5 4 10 0 6 -5 10 -11 10 -5 0
-7 -4 -4 -10z"/>
<path d="M8800 6646 c0 -8 4 -17 8 -20 4 -2 8 4 8 15 0 10 -4 19 -8 19 -4 0
-8 -6 -8 -14z"/>
<path d="M3638 6643 c7 -3 16 -2 19 1 4 3 -2 6 -13 5 -11 0 -14 -3 -6 -6z"/>
<path d="M3476 6613 c-6 -14 -5 -15 5 -6 7 7 10 15 7 18 -3 3 -9 -2 -12 -12z"/>
<path d="M3590 6604 c0 -8 32 -33 43 -34 5 0 5 4 2 10 -8 13 -45 33 -45 24z"/>
<path d="M3448 6592 c-2 -4 -16 -18 -33 -33 -41 -34 -45 -56 -6 -33 17 10 28
20 26 23 -3 2 6 12 21 21 20 14 22 19 10 23 -8 3 -16 3 -18 -1z"/>
<path d="M8765 6580 c-8 -13 25 -21 46 -10 10 6 19 12 19 14 0 7 -60 4 -65 -4z"/>
<path d="M3316 6563 c-6 -14 -5 -15 5 -6 7 7 10 15 7 18 -3 3 -9 -2 -12 -12z"/>
<path d="M3586 6572 c-3 -6 0 -13 6 -15 7 -3 3 -6 -9 -6 -26 -1 -67 -37 -58
-51 3 -5 0 -8 -7 -5 -16 6 -29 -3 -46 -32 -15 -29 -8 -29 19 -2 13 13 27 18
41 13 14 -4 18 -2 14 5 -4 6 0 11 11 11 27 0 43 14 48 40 5 27 -9 58 -19 42z"/>
<path d="M3430 6420 c-12 -7 -12 -12 -3 -21 10 -10 14 -9 19 5 8 22 2 27 -16
16z"/>
<path d="M4090 6399 c0 -5 -5 -7 -11 -3 -8 4 -8 0 0 -15 12 -21 -2 -31 -14
-11 -3 6 -14 10 -23 9 -9 0 -12 -3 -6 -5 9 -4 9 -13 1 -34 -9 -23 -14 -27 -29
-19 -14 7 -16 6 -12 -6 4 -9 0 -15 -10 -15 -10 0 -13 -5 -9 -17 5 -12 2 -15
-10 -10 -12 4 -17 1 -17 -10 0 -9 -3 -13 -7 -10 -3 4 -19 -7 -35 -25 -15 -17
-26 -33 -24 -36 9 -8 67 10 72 23 3 7 13 11 24 8 23 -6 35 14 20 32 -8 10 -9
15 -2 15 6 0 14 -4 17 -10 10 -16 28 -12 22 4 -4 10 -1 13 8 10 8 -3 21 -2 30
4 15 8 15 10 1 25 -19 19 -22 34 -3 19 17 -15 42 2 34 23 -6 13 -2 12 20 -5
43 -33 48 -3 6 37 -39 36 -43 38 -43 22z"/>
<path d="M4140 6395 c7 -9 15 -13 17 -11 7 7 -7 26 -19 26 -6 0 -6 -6 2 -15z"/>
<path d="M9308 6393 c7 -3 16 -2 19 1 4 3 -2 6 -13 5 -11 0 -14 -3 -6 -6z"/>
<path d="M9418 6393 c7 -3 16 -2 19 1 4 3 -2 6 -13 5 -11 0 -14 -3 -6 -6z"/>
<path d="M4236 6333 c-6 -14 -5 -15 5 -6 7 7 10 15 7 18 -3 3 -9 -2 -12 -12z"/>
<path d="M9766 6242 c23 -47 33 -83 13 -49 -17 30 -28 19 -16 -18 8 -28 15
-35 31 -33 12 2 21 8 22 13 0 6 4 18 9 28 5 13 0 24 -19 42 -14 13 -26 29 -26
34 0 6 -8 15 -18 20 -17 9 -16 5 4 -37z"/>
<path d="M4380 6250 c-8 -10 -44 -53 -80 -96 -36 -44 -84 -98 -107 -121 -40
-40 -83 -99 -83 -115 0 -5 9 -8 20 -8 11 0 19 3 18 8 -3 11 26 52 37 52 17 0
112 105 107 119 -2 6 4 11 13 11 9 0 13 5 10 10 -3 6 -2 10 3 10 17 0 84 107
80 128 -3 19 -4 19 -18 2z"/>
<path d="M9740 6230 c0 -5 5 -10 10 -10 6 0 10 5 10 10 0 6 -4 10 -10 10 -5 0
-10 -4 -10 -10z"/>
<path d="M4696 6197 c3 -10 9 -15 12 -12 3 3 0 11 -7 18 -10 9 -11 8 -5 -6z"/>
<path d="M3895 6171 c-6 -11 9 -23 19 -14 9 9 7 23 -3 23 -6 0 -12 -4 -16 -9z"/>
<path d="M9835 6130 c-4 -7 -2 -17 4 -23 6 -6 11 -19 11 -28 0 -10 6 -19 13
-22 6 -2 9 -8 5 -12 -10 -11 -28 4 -28 24 0 18 -18 41 -32 41 -17 0 -7 -32 17
-54 24 -22 24 -25 10 -40 -9 -9 -18 -16 -20 -16 -12 0 -50 49 -47 60 4 12 -14
30 -30 30 -5 0 -8 -17 -8 -37 0 -43 -17 -34 -22 12 -4 36 -38 49 -38 15 0 -19
-2 -20 -15 -10 -13 10 -15 9 -15 -9 0 -16 -6 -21 -25 -21 -18 0 -28 -7 -35
-25 -10 -27 -30 -34 -30 -11 0 7 -9 16 -20 19 -17 4 -20 2 -14 -15 4 -14 2
-18 -5 -14 -6 4 -11 3 -11 -2 0 -6 7 -12 15 -16 23 -8 18 -28 -5 -21 -15 5
-18 3 -14 -10 5 -13 2 -15 -20 -9 -16 4 -26 2 -26 -5 0 -6 5 -11 10 -11 6 0
10 -4 10 -10 0 -5 -10 -10 -23 -10 -14 0 -24 -6 -24 -15 0 -8 5 -15 11 -15 8
0 8 -2 0 -8 -15 -10 -39 -55 -36 -69 1 -6 -2 -14 -8 -18 -5 -3 -10 -18 -10
-32 0 -21 -2 -23 -15 -13 -12 10 -13 6 -8 -25 6 -35 4 -37 -16 -30 -24 7 -25
5 -9 -30 8 -18 9 -29 2 -33 -17 -11 -63 -157 -58 -179 3 -12 1 -24 -5 -27 -6
-4 -11 -16 -11 -27 0 -28 -38 -133 -50 -137 -6 -2 -8 -8 -4 -13 7 -12 -5 -51
-15 -45 -4 3 -13 1 -21 -5 -11 -6 -12 -9 -2 -9 7 0 10 -4 7 -10 -3 -5 -1 -10
5 -10 27 0 0 -25 -31 -30 l-34 -5 22 -22 c24 -24 20 -37 -6 -23 -10 5 -23 5
-32 -1 -8 -5 -9 -9 -3 -9 19 0 25 -40 6 -40 -15 0 -15 -2 -2 -10 13 -8 13 -10
-2 -10 -11 0 -15 -5 -12 -14 4 -11 0 -13 -18 -9 -21 6 -22 5 -9 -10 7 -9 20
-17 27 -17 16 0 19 -16 4 -25 -5 -3 -10 -2 -10 4 0 6 -7 8 -15 5 -8 -4 -15 -1
-15 6 0 7 -9 2 -19 -11 l-19 -24 41 -19 c22 -11 35 -22 28 -24 -6 -2 -28 4
-47 13 -19 9 -40 14 -47 12 -7 -3 0 -8 16 -12 15 -4 27 -11 27 -16 0 -5 -12
-4 -26 1 -42 16 -51 11 -16 -10 42 -26 41 -33 -2 -15 -30 13 -35 13 -40 -1 -5
-12 -2 -15 9 -10 9 3 13 2 10 -3 -3 -6 3 -15 12 -21 15 -8 12 -9 -12 -4 -16 3
-39 8 -50 10 -11 2 -14 1 -7 -2 9 -4 10 -10 3 -18 -8 -9 -4 -16 14 -26 14 -7
25 -17 25 -22 0 -5 -6 -6 -12 -1 -11 7 -78 12 -78 6 0 -1 9 -11 20 -21 20 -18
20 -18 -12 -14 -29 4 -31 3 -20 -11 9 -10 10 -17 2 -22 -5 -3 -10 -11 -10 -16
0 -6 5 -7 10 -4 6 3 10 2 10 -4 0 -5 -16 -9 -35 -8 -19 1 -35 -2 -35 -8 0 -5
4 -10 9 -10 5 0 13 -3 17 -7 10 -11 -10 -10 -40 2 -26 9 -38 -3 -13 -14 6 -3
-5 -4 -25 -1 -25 4 -38 2 -38 -6 0 -7 -9 -9 -22 -6 -13 4 -29 0 -38 -8 -15
-13 -19 -15 -42 -15 -6 0 -3 -9 7 -20 10 -11 24 -20 31 -20 7 0 16 -5 20 -11
7 -11 -13 -9 -68 7 -13 4 -21 -2 -28 -20 -10 -28 -25 -34 -33 -12 -8 20 -47
28 -47 9 0 -8 -6 -13 -13 -10 -7 3 -13 -3 -14 -13 -1 -14 12 -22 55 -34 31 -8
204 -65 383 -126 l326 -111 59 41 c32 23 71 49 86 58 15 9 29 25 32 34 2 12
10 16 20 12 10 -4 16 -1 16 7 0 22 136 102 160 94 16 -5 19 -3 13 10 -7 20 12
35 47 35 28 1 55 19 55 38 0 7 11 18 25 25 14 7 31 25 38 40 7 15 17 27 23 27
5 0 9 4 9 9 0 5 -10 7 -22 4 -17 -3 -19 -2 -9 5 18 13 6 32 -20 32 -11 0 -17
5 -14 10 9 14 -7 12 -50 -6 -25 -10 -34 -11 -29 -3 5 9 2 10 -10 6 -10 -4 -19
-7 -22 -7 -2 0 0 -8 3 -17 6 -15 4 -16 -8 -6 -17 14 -70 20 -87 10 -7 -5 -12
-3 -12 4 0 8 -7 5 -20 -6 -19 -17 -20 -17 -39 6 -16 19 -22 22 -32 12 -7 -7
-23 -13 -35 -13 -13 0 -40 -16 -61 -35 -39 -36 -68 -44 -76 -22 -3 6 -6 2 -6
-9 -1 -14 -12 -26 -31 -34 -36 -15 -51 -6 -24 15 17 13 17 14 2 15 -17 0 -20
8 -22 75 -1 11 -5 26 -9 33 -5 6 -4 12 1 12 14 0 24 31 13 44 -11 15 -8 51 7
69 6 7 14 29 16 48 3 19 5 34 6 34 1 0 3 11 4 24 2 13 10 28 20 33 9 5 14 13
11 17 -2 5 4 16 15 26 11 10 20 23 20 30 0 11 50 84 80 116 30 32 50 59 50 68
0 5 -8 12 -17 14 -15 4 -14 5 3 6 11 0 26 -5 33 -11 11 -11 13 -10 8 5 -5 12
-1 17 11 17 12 0 14 2 4 8 -9 6 -5 12 13 20 16 8 23 17 19 24 -6 9 -9 9 -12 0
-2 -7 -10 -12 -18 -12 -27 0 -4 19 36 31 39 12 56 39 25 39 -8 0 -14 -3 -13
-7 2 -5 1 -9 -2 -10 -3 -1 -17 -6 -31 -12 -24 -9 -26 -7 -22 9 6 22 34 33 78
32 24 -1 43 13 102 75 72 73 127 123 173 153 12 8 28 20 34 25 50 46 120 77
206 90 25 4 56 9 69 12 13 2 47 -1 75 -6 28 -5 75 -13 104 -16 45 -6 51 -5 46
9 -5 13 1 16 27 16 26 0 30 3 21 12 -7 7 -12 18 -12 26 0 15 -37 52 -52 52 -4
0 -8 7 -8 15 0 9 -10 20 -22 25 -13 5 -18 9 -13 10 6 0 3 5 -5 10 -20 13 -66
13 -90 0 -21 -11 -82 -2 -74 11 5 9 -5 12 -46 10 -22 -1 -23 0 -5 8 16 6 10 9
-28 15 -26 4 -45 11 -42 17 4 5 1 9 -6 9 -7 0 -9 3 -6 6 18 18 -52 51 -94 46
-4 -1 -5 8 -2 18 5 18 12 19 77 14 66 -5 69 -4 46 9 -13 9 -46 15 -72 15 -57
1 -68 6 -61 30 5 22 -22 49 -32 32z m91 -145 c-8 -8 -18 -15 -22 -15 -3 0 -1
7 6 15 7 8 17 15 22 15 5 0 3 -7 -6 -15z m-406 -559 c6 -8 21 -17 33 -19 14
-3 9 -5 -13 -6 -19 -1 -46 -4 -60 -8 -24 -6 -24 -6 -7 11 9 10 17 22 17 27 0
14 16 11 30 -5z m-480 -662 c0 -2 -9 0 -20 6 -11 6 -20 13 -20 16 0 2 9 0 20
-6 11 -6 20 -13 20 -16z m379 -126 c-43 -26 -69 -37 -73 -30 -5 9 21 25 54 35
14 4 28 0 19 -5z m13 -25 c-10 -4 -10 -8 -1 -19 9 -11 8 -14 -5 -14 -10 0 -14
5 -11 10 9 14 -1 12 -35 -5 -17 -9 -30 -11 -30 -6 0 9 66 40 85 40 6 0 4 -3
-3 -6z m-98 -11 c4 -7 -49 -46 -64 -47 -3 0 -17 -11 -30 -24 -18 -17 -20 -22
-7 -18 9 4 17 2 17 -5 0 -7 5 -6 15 2 8 7 15 9 15 4 0 -4 5 -3 12 4 17 17 30
15 26 -5 -5 -31 10 -44 35 -32 22 10 22 10 2 -6 -12 -9 -29 -14 -42 -10 -13 3
-39 -1 -59 -10 -50 -21 -52 -20 -47 20 3 34 3 34 -24 24 -27 -10 -27 -10 -8
10 10 12 25 21 34 21 9 0 27 12 40 25 13 14 29 25 36 25 7 0 15 7 19 15 6 16
22 20 30 7z m-671 -43 c4 -16 3 -18 -9 -8 -16 13 -19 29 -5 29 5 0 11 -9 14
-21z m657 -3 c0 -3 -4 -8 -10 -11 -5 -3 -10 -1 -10 4 0 6 5 11 10 11 6 0 10
-2 10 -4z m45 -6 c3 -5 1 -10 -4 -10 -6 0 -11 5 -11 10 0 6 2 10 4 10 3 0 8
-4 11 -10z m-854 -67 c13 -16 12 -17 -3 -4 -17 13 -22 21 -14 21 2 0 10 -8 17
-17z"/>
<path d="M4685 6120 c-3 -6 1 -7 9 -4 18 7 21 14 7 14 -6 0 -13 -4 -16 -10z"/>
<path d="M4630 6113 c0 -7 -7 -10 -15 -7 -23 9 -18 -10 10 -36 21 -19 25 -21
25 -7 0 9 5 17 10 17 6 0 10 5 10 12 0 6 -3 8 -7 5 -3 -4 -12 1 -19 11 -8 10
-13 12 -14 5z"/>
<path d="M5020 6106 c0 -9 5 -16 10 -16 6 0 10 4 10 9 0 6 -4 13 -10 16 -5 3
-10 -1 -10 -9z"/>
<path d="M5045 6090 c-5 -16 -10 -19 -18 -11 -13 13 -27 14 -27 2 0 -5 12 -16
26 -26 15 -9 23 -12 20 -6 -4 6 0 11 11 11 14 0 15 2 4 9 -11 7 -11 9 0 14 11
3 11 7 2 17 -8 9 -13 7 -18 -10z"/>
<path d="M9547 6079 c7 -7 15 -10 18 -7 3 3 -2 9 -12 12 -14 6 -15 5 -6 -5z"/>
<path d="M7493 6073 c9 -2 23 -2 30 0 6 3 -1 5 -18 5 -16 0 -22 -2 -12 -5z"/>
<path d="M7114 6056 c1 -8 7 -21 14 -29 10 -12 10 -16 0 -19 -8 -3 -6 -7 6
-11 11 -5 15 -3 10 5 -5 8 0 9 15 5 18 -4 20 -3 11 8 -7 8 -21 17 -31 20 -16
5 -18 10 -8 21 9 11 8 14 -4 14 -8 0 -14 -6 -13 -14z"/>
<path d="M4592 6038 c18 -27 35 -34 35 -14 0 8 -4 13 -8 11 -4 -3 -9 2 -13 10
-3 8 -11 15 -17 15 -8 0 -7 -7 3 -22z"/>
<path d="M7306 6041 c6 -7 31 -15 55 -18 49 -6 52 2 4 10 -16 3 -39 8 -50 12
-15 6 -17 5 -9 -4z"/>
<path d="M4970 6026 c0 -2 8 -10 18 -17 15 -13 16 -12 3 4 -13 16 -21 21 -21
13z"/>
<path d="M4030 6011 c0 -5 5 -13 10 -16 6 -3 10 -2 10 4 0 5 -4 13 -10 16 -5
3 -10 2 -10 -4z"/>
<path d="M6778 6013 c6 -2 18 -2 25 0 6 3 1 5 -13 5 -14 0 -19 -2 -12 -5z"/>
<path d="M4540 6004 c0 -3 5 -14 10 -24 8 -16 8 -18 -5 -14 -9 4 -15 0 -15 -9
0 -8 -7 -20 -15 -27 -9 -7 -14 -19 -11 -26 3 -7 1 -16 -4 -19 -6 -4 -10 -1
-10 4 0 6 -5 11 -11 11 -5 0 -8 -4 -4 -9 3 -5 -5 -17 -17 -25 l-22 -16 24 0
c15 0 20 -3 13 -8 -8 -5 -9 -13 -3 -22 6 -8 10 -11 10 -6 0 5 8 2 17 -5 14
-12 16 -12 8 0 -6 11 -4 13 8 8 23 -9 21 -2 -8 27 l-24 25 29 13 c17 7 30 21
30 30 0 10 4 18 8 18 14 0 50 -43 54 -65 4 -19 4 -19 10 2 4 15 -2 31 -18 50
-13 15 -27 43 -30 61 -3 17 -10 32 -15 32 -5 0 -9 -3 -9 -6z"/>
<path d="M4495 5990 c3 -5 8 -10 11 -10 2 0 4 5 4 10 0 6 -5 10 -11 10 -5 0
-7 -4 -4 -10z"/>
<path d="M4610 5981 c0 -9 30 -24 36 -18 2 1 -6 8 -16 15 -11 7 -20 8 -20 3z"/>
<path d="M4980 5971 c0 -6 4 -13 10 -16 6 -3 7 1 4 9 -7 18 -14 21 -14 7z"/>
<path d="M4590 5950 c0 -5 5 -10 11 -10 5 0 7 5 4 10 -3 6 -8 10 -11 10 -2 0
-4 -4 -4 -10z"/>
<path d="M4629 5913 c12 -24 31 -39 31 -25 0 5 -10 17 -21 28 -22 19 -22 19
-10 -3z"/>
<path d="M4914 5885 c-8 -21 6 -41 17 -24 12 19 11 39 -1 39 -6 0 -13 -7 -16
-15z"/>
<path d="M4560 5880 c0 -5 4 -10 9 -10 6 0 13 5 16 10 3 6 -1 10 -9 10 -9 0
-16 -4 -16 -10z"/>
<path d="M4510 5862 c0 -4 9 -13 20 -20 19 -12 20 -11 8 8 -13 20 -28 27 -28
12z"/>
<path d="M6350 5850 c0 -5 5 -10 11 -10 5 0 7 5 4 10 -3 6 -8 10 -11 10 -2 0
-4 -4 -4 -10z"/>
<path d="M4579 5797 c26 -28 19 -37 -8 -13 -10 9 -22 12 -30 7 -9 -6 -10 -11
-2 -15 6 -4 11 -2 11 4 0 7 7 5 16 -4 19 -19 54 -21 54 -3 0 7 -15 21 -32 31
l-33 19 24 -26z"/>
<path d="M7940 5810 c0 -5 5 -10 10 -10 6 0 10 5 10 10 0 6 -4 10 -10 10 -5 0
-10 -4 -10 -10z"/>
<path d="M7995 5810 c3 -5 8 -10 11 -10 2 0 4 5 4 10 0 6 -5 10 -11 10 -5 0
-7 -4 -4 -10z"/>
<path d="M8075 5740 c3 -5 8 -10 11 -10 2 0 4 5 4 10 0 6 -5 10 -11 10 -5 0
-7 -4 -4 -10z"/>
<path d="M8251 5726 c-9 -10 -8 -15 4 -20 10 -4 15 1 15 14 0 24 -4 25 -19 6z"/>
<path d="M6095 5700 c3 -5 8 -10 11 -10 2 0 4 5 4 10 0 6 -5 10 -11 10 -5 0
-7 -4 -4 -10z"/>
<path d="M8246 5676 c6 -15 44 -29 44 -17 0 4 -11 13 -25 19 -19 9 -23 9 -19
-2z"/>
<path d="M10215 5660 c7 -24 7 -25 -9 -5 -16 19 -16 19 -10 -7 4 -18 2 -28 -5
-28 -6 0 -11 7 -11 15 0 9 -9 15 -21 15 -18 0 -19 -2 -9 -15 10 -12 10 -15 -4
-15 -14 0 -21 18 -17 43 1 5 -4 7 -11 5 -7 -3 -14 -15 -16 -27 -3 -15 -8 -21
-19 -17 -9 4 -17 -1 -20 -14 -3 -11 -9 -20 -14 -20 -5 0 -8 4 -6 9 1 5 -2 9
-8 10 -5 0 -10 -5 -10 -12 -1 -6 -5 -25 -9 -41 l-9 -29 -13 24 -13 24 -1 -30
c0 -22 -3 -26 -10 -15 -17 27 -24 0 -8 -28 10 -17 13 -33 8 -42 -4 -7 -6 -19
-4 -25 3 -7 -2 -15 -10 -18 -13 -5 -13 -12 -4 -37 7 -20 15 -29 24 -26 8 3 14
0 14 -6 0 -6 3 -8 7 -5 3 4 13 1 22 -6 23 -20 51 -28 51 -16 0 6 5 7 10 4 6
-4 8 -11 5 -16 -4 -5 -2 -9 4 -9 5 0 11 5 13 12 5 13 91 -22 103 -42 3 -5 17
-7 31 -4 21 5 26 2 31 -16 6 -22 7 -22 19 -5 12 17 14 16 23 -9 14 -34 22 -33
44 10 22 44 23 99 2 90 -10 -4 -17 3 -21 22 -3 15 -8 33 -10 41 -9 27 8 82 22
77 12 -5 13 8 9 67 -4 39 -10 76 -16 82 -5 5 -9 6 -9 1 0 -4 -12 2 -26 13 -15
12 -36 21 -48 21 -12 0 -28 6 -35 13 -11 10 -12 7 -6 -13z m112 -72 c-3 -8 -6
-5 -6 6 -1 11 2 17 5 13 3 -3 4 -12 1 -19z m0 -290 c-3 -7 -5 -2 -5 12 0 14 2
19 5 13 2 -7 2 -19 0 -25z"/>
<path d="M10050 5650 c0 -5 5 -10 10 -10 6 0 10 5 10 10 0 6 -4 10 -10 10 -5
0 -10 -4 -10 -10z"/>
<path d="M8230 5640 c8 -5 20 -10 25 -10 6 0 3 5 -5 10 -8 5 -19 10 -25 10 -5
0 -3 -5 5 -10z"/>
<path d="M5996 5618 c3 -4 9 -8 15 -8 5 0 9 4 9 8 0 5 -7 9 -15 9 -8 0 -12 -4
-9 -9z"/>
<path d="M9906 5621 c-3 -5 1 -11 9 -15 8 -3 15 -1 15 4 0 13 -18 22 -24 11z"/>
<path d="M8285 5610 c3 -5 10 -10 16 -10 5 0 9 5 9 10 0 6 -7 10 -16 10 -8 0
-12 -4 -9 -10z"/>
<path d="M8325 5600 c3 -5 8 -10 11 -10 2 0 4 5 4 10 0 6 -5 10 -11 10 -5 0
-7 -4 -4 -10z"/>
<path d="M8800 5606 c0 -2 7 -7 16 -10 8 -3 12 -2 9 4 -6 10 -25 14 -25 6z"/>
<path d="M9907 5570 c17 -19 43 -27 43 -14 0 10 -33 33 -47 34 -9 0 -7 -7 4
-20z"/>
<path d="M7305 5560 c3 -5 11 -10 16 -10 6 0 7 5 4 10 -3 6 -11 10 -16 10 -6
0 -7 -4 -4 -10z"/>
<path d="M8528 5523 c7 -3 16 -2 19 1 4 3 -2 6 -13 5 -11 0 -14 -3 -6 -6z"/>
<path d="M8540 5456 c0 -2 7 -7 16 -10 8 -3 12 -2 9 4 -6 10 -25 14 -25 6z"/>
<path d="M8480 5430 c0 -5 5 -10 10 -10 6 0 10 5 10 10 0 6 -4 10 -10 10 -5 0
-10 -4 -10 -10z"/>
<path d="M9870 5436 c0 -2 7 -9 15 -16 9 -7 15 -8 15 -2 0 5 -7 12 -15 16 -8
3 -15 4 -15 2z"/>
<path d="M8668 5413 c6 -2 12 -11 12 -19 0 -8 5 -14 10 -14 16 0 11 27 -6 34
-9 3 -19 6 -22 5 -4 0 -1 -3 6 -6z"/>
<path d="M8983 5395 c0 -8 4 -12 9 -9 4 3 8 9 8 15 0 5 -4 9 -8 9 -5 0 -9 -7
-9 -15z"/>
<path d="M8620 5350 c33 -26 48 -26 25 0 -10 11 -25 20 -34 20 -12 0 -9 -6 9
-20z"/>
<path d="M9808 5313 c7 -3 16 -2 19 1 4 3 -2 6 -13 5 -11 0 -14 -3 -6 -6z"/>
<path d="M9940 5310 c0 -5 5 -10 11 -10 5 0 7 5 4 10 -3 6 -8 10 -11 10 -2 0
-4 -4 -4 -10z"/>
<path d="M7240 5222 c0 -12 19 -26 26 -19 2 2 -2 10 -11 17 -9 8 -15 8 -15 2z"/>
<path d="M8590 5220 c0 -5 5 -10 10 -10 6 0 10 5 10 10 0 6 -4 10 -10 10 -5 0
-10 -4 -10 -10z"/>
<path d="M7175 5200 c3 -5 11 -10 16 -10 6 0 7 5 4 10 -3 6 -11 10 -16 10 -6
0 -7 -4 -4 -10z"/>
<path d="M8515 5200 c3 -5 11 -10 16 -10 6 0 7 5 4 10 -3 6 -11 10 -16 10 -6
0 -7 -4 -4 -10z"/>
<path d="M9825 5080 c-3 -5 1 -10 10 -10 9 0 13 5 10 10 -3 6 -8 10 -10 10 -2
0 -7 -4 -10 -10z"/>
<path d="M8557 5049 c7 -7 15 -10 18 -7 3 3 -2 9 -12 12 -14 6 -15 5 -6 -5z"/>
<path d="M7125 5030 c-3 -5 -13 -6 -22 -3 -11 4 -14 3 -9 -5 10 -16 24 -15 42
3 9 8 11 15 5 15 -5 0 -12 -4 -16 -10z"/>
<path d="M9935 5030 l-60 -7 73 -1 c42 -1 72 2 72 8 0 6 -6 9 -12 8 -7 -1 -40
-4 -73 -8z"/>
<path d="M6850 5026 c0 -2 7 -7 16 -10 8 -3 12 -2 9 4 -6 10 -25 14 -25 6z"/>
<path d="M8548 5023 c7 -3 16 -2 19 1 4 3 -2 6 -13 5 -11 0 -14 -3 -6 -6z"/>
<path d="M7150 5011 c0 -5 6 -12 13 -15 6 -3 2 -3 -10 0 -23 5 -32 -9 -13 -21
6 -4 7 -11 4 -17 -4 -6 -12 -1 -21 13 -13 24 -13 24 -7 -6 4 -16 12 -33 18
-37 7 -5 4 -8 -6 -8 -11 0 -18 8 -18 20 0 13 -5 18 -14 14 -8 -3 -12 -12 -9
-19 12 -32 97 -29 86 3 -6 16 -5 16 13 1 35 -29 43 -31 42 -7 -2 34 -78 111
-78 79z"/>
<path d="M7265 4970 c3 -5 8 -10 11 -10 2 0 4 5 4 10 0 6 -5 10 -11 10 -5 0
-7 -4 -4 -10z"/>
<path d="M7170 4906 c0 -2 7 -7 16 -10 8 -3 12 -2 9 4 -6 10 -25 14 -25 6z"/>
<path d="M7280 4860 c0 -5 5 -10 11 -10 5 0 7 5 4 10 -3 6 -8 10 -11 10 -2 0
-4 -4 -4 -10z"/>
<path d="M9785 4680 c3 -5 11 -10 16 -10 6 0 7 5 4 10 -3 6 -11 10 -16 10 -6
0 -7 -4 -4 -10z"/>
<path d="M8490 4542 c0 -4 15 -13 33 -19 l32 -12 -24 19 c-24 21 -41 26 -41
12z"/>
<path d="M9924 4483 c1 -14 -8 -19 -36 -21 -23 -2 -38 -8 -38 -16 0 -11 6 -11
38 0 20 7 66 14 102 15 36 1 57 3 48 6 -25 6 -22 21 5 26 12 2 -10 5 -49 6
-63 1 -72 -1 -70 -16z"/>
<path d="M9788 4423 c-16 -2 -28 -8 -28 -13 0 -5 14 -5 31 0 30 9 53 22 33 19
-5 -1 -21 -4 -36 -6z"/>
<path d="M9480 4389 c0 -5 5 -7 10 -4 6 3 10 8 10 11 0 2 -4 4 -10 4 -5 0 -10
-5 -10 -11z"/>
<path d="M9650 4380 c-12 -8 -10 -10 8 -10 13 0 20 4 17 10 -7 12 -6 12 -25 0z"/>
<path d="M10117 4298 c6 -11 31 -10 37 1 3 5 -5 8 -18 7 -13 0 -22 -4 -19 -8z"/>
<path d="M10060 4290 c0 -5 12 -10 28 -9 24 0 25 1 7 9 -27 12 -35 12 -35 0z"/>
<path d="M10089 4261 c-1 -3 -1 -9 -1 -12 1 -7 -160 -24 -195 -20 -11 1 -24
-3 -28 -8 -3 -6 -1 -11 5 -11 6 0 8 -5 4 -12 -5 -8 0 -9 14 -6 14 4 22 2 22
-7 0 -7 -20 -15 -52 -18 -32 -4 -55 -13 -61 -22 -5 -10 -16 -14 -28 -10 -13 5
-17 2 -14 -8 4 -8 0 -14 -9 -14 -8 0 -12 5 -9 10 3 5 0 8 -6 6 -24 -8 -16 -24
18 -35 36 -12 34 -17 -11 -28 -40 -9 -35 -21 15 -35 23 -7 51 -16 62 -21 23
-8 66 -3 75 8 3 5 14 12 24 15 10 4 16 10 12 14 -10 10 25 42 40 36 8 -3 14 1
14 9 0 10 22 19 67 28 49 9 62 15 48 20 -19 7 -19 7 3 14 17 6 22 13 19 26 -3
10 1 21 9 24 7 3 11 12 8 21 -4 11 0 15 17 15 17 0 20 3 11 12 -12 12 -71 19
-73 9z m-262 -167 c-3 -3 -12 -4 -19 -1 -8 3 -5 6 6 6 11 1 17 -2 13 -5z"/>
<path d="M10158 4213 c6 -2 18 -2 25 0 6 3 1 5 -13 5 -14 0 -19 -2 -12 -5z"/>
<path d="M9495 4190 c-11 -12 -21 -16 -25 -11 -3 6 -17 3 -34 -8 -26 -18 -27
-20 -10 -29 11 -5 35 -14 55 -20 38 -10 42 -7 78 72 2 5 -4 6 -14 2 -10 -4
-21 -2 -25 4 -4 7 -13 3 -25 -10z m25 -10 c0 -5 -5 -10 -11 -10 -5 0 -7 5 -4
10 3 6 8 10 11 10 2 0 4 -4 4 -10z"/>
</g>
</svg>
